<svg width="30" height="30" viewBox="0 0 30 30" fill="none" xmlns="http://www.w3.org/2000/svg">
<path d="M28.3454 0H1.65608C0.741037 0 0 0.741 0 1.656V28.3455C0 29.259 0.741037 30 1.65608 30H16.0268V18.3825H12.1146V13.8555H16.0238V10.515C16.0238 6.6405 18.3909 4.53 21.8486 4.53C23.5047 4.53 24.9267 4.653 25.3423 4.7085V8.7585H22.9451C21.0641 8.7585 20.701 9.654 20.701 10.9635V13.8555H25.1848L24.5997 18.3825H20.6995V30H28.3469C29.259 30 30 29.259 30 28.344V1.656C30.0015 0.741 29.2605 0 28.3454 0Z" fill="#F1EFEB"/>
</svg>
