<svg width="30" height="30" viewBox="0 0 30 30" fill="none" xmlns="http://www.w3.org/2000/svg">
<path d="M15.2994 2.54082C19.2245 2.54082 19.6905 2.55492 21.2414 2.62401C25.2253 2.79744 27.0864 4.6107 27.2687 8.4036C27.3393 9.88974 27.3525 10.3353 27.3525 14.1C27.3525 17.8675 27.3378 18.3131 27.2672 19.7992C27.0849 23.5879 25.2297 25.404 21.2414 25.5788C19.6905 25.6465 19.2274 25.6606 15.2994 25.6606C11.3743 25.6606 10.9097 25.6465 9.36027 25.5788C5.36608 25.404 3.51525 23.5823 3.33296 19.7978C3.2624 18.3117 3.2477 17.8661 3.2477 14.1C3.2477 10.3353 3.2624 9.88974 3.33296 8.4036C3.51525 4.6107 5.37196 2.79603 9.36027 2.6226C10.9097 2.55492 11.3743 2.54082 15.2994 2.54082ZM15.2994 0C11.3081 0 10.8083 0.01692 9.23972 0.0846C3.90041 0.32007 0.932334 3.16122 0.688302 8.28657C0.616268 9.79104 0.600098 10.2704 0.600098 14.1C0.600098 17.9296 0.616268 18.4104 0.688302 19.9134C0.932334 25.0345 3.89453 27.8799 9.23825 28.1154C10.8083 28.1831 11.3081 28.2 15.2994 28.2C19.2921 28.2 19.7934 28.1831 21.3619 28.1154C26.6954 27.8799 29.6693 25.0388 29.9119 19.9134C29.9839 18.4104 30.0001 17.9296 30.0001 14.1C30.0001 10.2704 29.9839 9.79104 29.9119 8.28798C29.6723 3.17109 26.7071 0.32148 21.3634 0.0846C19.7934 0.0141 19.2921 0 15.2994 0ZM15.2994 6.85965C13.2973 6.85965 11.3772 7.62247 9.96154 8.9803C8.54586 10.3381 7.75053 12.1797 7.75053 14.1C7.75053 16.0203 8.54586 17.8619 9.96154 19.2197C11.3772 20.5775 13.2973 21.3404 15.2994 21.3404C17.3014 21.3404 19.2215 20.5775 20.6372 19.2197C22.0529 17.8619 22.8482 16.0203 22.8482 14.1C22.8482 12.1797 22.0529 10.3381 20.6372 8.9803C19.2215 7.62247 17.3014 6.85965 15.2994 6.85965ZM15.2994 18.7995C13.9999 18.7995 12.7536 18.3044 11.8347 17.4231C10.9158 16.5417 10.3996 15.3464 10.3996 14.1C10.3996 12.8536 10.9158 11.6583 11.8347 10.7769C12.7536 9.8956 13.9999 9.40047 15.2994 9.40047C16.5989 9.40047 17.8451 9.8956 18.764 10.7769C19.6829 11.6583 20.1991 12.8536 20.1991 14.1C20.1991 15.3464 19.6829 16.5417 18.764 17.4231C17.8451 18.3044 16.5989 18.7995 15.2994 18.7995ZM23.1481 4.88283C22.9164 4.88274 22.687 4.92641 22.4729 5.01136C22.2589 5.0963 22.0644 5.22086 21.9005 5.37791C21.7366 5.53496 21.6066 5.72143 21.5178 5.92668C21.4291 6.13193 21.3834 6.35193 21.3833 6.57413C21.3832 6.79632 21.4287 7.01636 21.5173 7.22168C21.6058 7.427 21.7357 7.61357 21.8994 7.77076C22.0632 7.92794 22.2576 8.05265 22.4716 8.13776C22.6856 8.22288 22.915 8.26674 23.1466 8.26683C23.6145 8.26683 24.0632 8.08857 24.394 7.77125C24.7248 7.45394 24.9107 7.02358 24.9107 6.57483C24.9107 6.12608 24.7248 5.69572 24.394 5.37841C24.0632 5.06109 23.6145 4.88283 23.1466 4.88283H23.1481Z" fill="#F1EFEB"/>
</svg>
