<svg width="35" height="30" viewBox="0 0 35 30" fill="none" xmlns="http://www.w3.org/2000/svg">
<path d="M35 3.55091C33.6894 4.1636 32.2991 4.56549 30.8755 4.74316C32.3754 3.79752 33.4975 2.30828 34.0323 0.553682C32.6226 1.43599 31.0803 2.05767 29.472 2.39188C28.8005 1.63569 27.9887 1.03315 27.0871 0.621691C26.1856 0.210228 25.2134 -0.00137911 24.231 6.76355e-06C19.5955 6.76355e-06 16.1902 4.56229 17.2366 9.29806C14.3818 9.1474 11.5889 8.36513 9.03928 7.00204C6.4897 5.63896 4.24046 3.72554 2.43763 1.38604C1.52023 3.05348 1.23939 5.02682 1.65221 6.90484C2.06503 8.78286 3.14053 10.4246 4.66002 11.4962C3.51971 11.4594 2.40429 11.1354 1.40693 10.5512C1.32818 14.0597 3.71157 17.343 7.16414 18.072C6.1067 18.3748 4.99765 18.419 3.92155 18.2012C4.37985 19.7065 5.27309 21.0229 6.47617 21.9661C7.67925 22.9093 9.13191 23.4321 10.6307 23.4611C7.62116 25.9509 3.79774 27.0793 0 26.5986C3.28333 28.8232 7.10445 30.0041 11.007 30C24.3378 30 31.8694 18.1255 31.4144 7.47463C32.8201 6.40256 34.0336 5.07519 34.9983 3.5546L35 3.55091Z" fill="#F1EFEB"/>
</svg>
