<svg width="30" height="30" viewBox="0 0 30 30" fill="none" xmlns="http://www.w3.org/2000/svg">
<path d="M15.6001 0C7.3171 0 0.600098 6.717 0.600098 15C0.600098 23.2845 7.3171 30 15.6001 30C23.8846 30 30.6001 23.2845 30.6001 15C30.6001 6.717 23.8846 0 15.6001 0ZM21.1516 21.1155C18.5236 21.2955 12.6721 21.2955 10.0486 21.1155C7.2031 20.9205 6.8716 19.527 6.8506 15C6.8716 10.464 7.2061 9.0795 10.0486 8.8845C12.6721 8.7045 18.5251 8.7045 21.1516 8.8845C23.9986 9.0795 24.3286 10.473 24.3511 15C24.3286 19.536 23.9941 20.9205 21.1516 21.1155ZM13.1011 12.072L19.2466 14.9955L13.1011 17.928V12.072Z" fill="#F1EFEB"/>
</svg>
