<?xml version="1.0" standalone="no"?>
<!DOCTYPE svg PUBLIC "-//W3C//DTD SVG 20010904//EN"
 "http://www.w3.org/TR/2001/REC-SVG-20010904/DTD/svg10.dtd">
<svg version="1.0" xmlns="http://www.w3.org/2000/svg"
 width="2000.000000pt" height="2000.000000pt" viewBox="0 0 2000.000000 2000.000000"
 preserveAspectRatio="xMidYMid meet">
<metadata>
Created by potrace 1.16, written by Peter Selinger 2001-2019
</metadata>
<g transform="translate(0.000000,2000.000000) scale(0.100000,-0.100000)"
fill="#000000" stroke="none">
<path d="M15920 16483 c0 -20 3 -33 6 -30 8 8 61 -48 69 -74 4 -10 15 -19 26
-19 12 0 19 -7 19 -20 0 -11 5 -20 10 -20 6 0 10 -7 10 -15 0 -23 26 -18 48
10 19 24 50 36 37 15 -3 -5 3 -10 15 -10 12 0 18 -4 15 -10 -3 -5 1 -10 9 -10
28 0 17 30 -24 70 -22 21 -40 43 -40 50 0 6 -16 26 -35 45 -29 30 -42 35 -82
36 -39 1 -43 2 -23 9 21 7 19 8 -17 9 -43 1 -43 1 -43 -36z"/>
<path d="M16500 15952 c0 -36 5 -51 20 -62 11 -8 20 -22 20 -32 0 -10 3 -18 8
-18 8 0 32 -48 32 -65 0 -6 9 -17 20 -25 11 -8 20 -20 20 -28 0 -7 5 -10 12
-6 6 4 8 3 4 -4 -3 -6 -1 -16 6 -24 7 -7 14 -20 16 -27 2 -8 16 -26 32 -41 17
-16 30 -35 30 -44 0 -9 5 -16 10 -16 6 0 10 -9 10 -20 0 -11 7 -20 16 -20 8 0
12 -4 9 -10 -4 -6 7 -10 24 -10 24 0 31 4 31 20 0 11 -4 20 -9 20 -5 0 -14 14
-21 30 -7 17 -16 30 -21 30 -5 0 -9 8 -9 18 0 10 -9 24 -20 32 -11 8 -20 22
-20 32 0 10 -4 18 -8 18 -5 0 -15 12 -23 28 -8 15 -22 34 -31 43 -10 9 -18 22
-18 29 0 7 -8 20 -17 29 -10 9 -19 23 -21 31 -2 8 -8 17 -13 18 -5 2 -9 10 -9
18 0 8 -4 14 -10 14 -5 0 -10 7 -10 15 0 8 -4 15 -10 15 -5 0 -10 10 -10 23 0
18 -2 19 -10 7 -8 -12 -10 -11 -10 8 0 12 -4 22 -10 22 -5 0 -10 -22 -10 -48z"/>
<path d="M16076 15555 c-3 -8 -12 -15 -21 -15 -8 0 -15 -6 -15 -12 0 -9 -4 -8
-10 2 -7 12 -10 8 -10 -15 0 -36 -14 -60 -29 -51 -6 4 -11 2 -11 -4 0 -15 -67
-80 -82 -80 -8 0 -20 -9 -28 -20 -8 -11 -21 -20 -30 -20 -9 0 -22 -9 -30 -20
-8 -11 -21 -20 -30 -20 -9 0 -22 -9 -30 -20 -8 -11 -21 -20 -30 -20 -9 0 -22
-9 -30 -20 -8 -11 -21 -20 -30 -20 -9 0 -22 -9 -30 -20 -8 -11 -21 -20 -30
-20 -9 0 -22 -9 -30 -20 -8 -11 -21 -20 -30 -20 -9 0 -22 -9 -30 -20 -8 -11
-21 -20 -30 -20 -9 0 -22 -9 -30 -20 -8 -11 -22 -20 -32 -20 -10 0 -18 -4 -18
-10 0 -5 -8 -10 -18 -10 -10 0 -24 -9 -32 -20 -8 -11 -21 -20 -30 -20 -9 0
-22 -9 -30 -20 -8 -11 -21 -20 -29 -20 -7 0 -21 -9 -30 -19 -10 -11 -24 -21
-32 -23 -8 -2 -21 -10 -29 -18 -8 -8 -27 -21 -42 -29 -16 -8 -28 -18 -28 -23
0 -4 -8 -8 -18 -8 -10 0 -24 -9 -32 -20 -8 -11 -21 -20 -30 -20 -9 0 -22 -9
-30 -20 -8 -11 -21 -20 -28 -20 -8 0 -27 -13 -42 -30 -15 -16 -34 -30 -42 -30
-7 0 -20 -9 -28 -20 -8 -11 -21 -20 -30 -20 -9 0 -22 -9 -30 -20 -8 -11 -21
-20 -30 -20 -9 0 -22 -9 -30 -20 -8 -11 -21 -20 -30 -20 -9 0 -22 -9 -30 -20
-8 -11 -21 -20 -30 -20 -9 0 -22 -9 -30 -20 -8 -11 -21 -20 -30 -20 -9 0 -22
-9 -30 -20 -8 -11 -21 -20 -30 -20 -9 0 -22 -9 -30 -20 -8 -11 -21 -20 -30
-20 -9 0 -22 -9 -30 -20 -8 -11 -21 -20 -30 -20 -9 0 -22 -9 -30 -20 -8 -11
-22 -20 -32 -20 -10 0 -18 -4 -18 -10 0 -5 -9 -10 -21 -10 -11 0 -17 -4 -14
-10 3 -5 0 -10 -7 -10 -8 0 -20 -9 -28 -20 -8 -11 -22 -20 -32 -20 -10 0 -18
-4 -18 -10 0 -5 -7 -10 -15 -10 -9 0 -27 -11 -41 -25 -14 -14 -29 -23 -33 -21
-4 3 -14 -4 -21 -15 -8 -10 -21 -19 -30 -19 -9 0 -22 -9 -30 -20 -8 -11 -21
-20 -30 -20 -9 0 -22 -9 -30 -20 -8 -11 -21 -20 -30 -20 -9 0 -22 -9 -30 -20
-8 -11 -22 -20 -32 -20 -10 0 -18 -4 -18 -10 0 -5 -8 -10 -18 -10 -10 0 -24
-9 -32 -20 -8 -11 -21 -20 -30 -20 -9 0 -22 -9 -30 -20 -8 -11 -21 -20 -30
-20 -9 0 -22 -9 -30 -20 -8 -11 -21 -20 -30 -20 -9 0 -22 -9 -30 -20 -8 -11
-21 -20 -30 -20 -9 0 -22 -9 -30 -20 -8 -11 -22 -20 -32 -20 -10 0 -18 -4 -18
-10 0 -5 -10 -10 -22 -10 -19 0 -20 -2 -8 -10 12 -8 11 -10 -7 -10 -13 0 -23
-4 -23 -10 0 -5 -8 -10 -18 -10 -10 0 -24 -9 -32 -20 -8 -11 -21 -20 -30 -20
-9 0 -22 -9 -30 -20 -8 -11 -21 -20 -30 -20 -9 0 -22 -9 -30 -20 -8 -11 -22
-20 -32 -20 -10 0 -18 -4 -18 -10 0 -5 -8 -10 -18 -10 -10 0 -24 -9 -32 -20
-8 -11 -21 -20 -30 -20 -9 0 -22 -9 -30 -20 -8 -11 -21 -20 -30 -20 -9 0 -22
-9 -30 -20 -8 -11 -21 -20 -30 -20 -9 0 -22 -9 -30 -20 -8 -11 -21 -20 -30
-20 -9 0 -22 -9 -30 -20 -8 -11 -21 -20 -30 -20 -9 0 -22 -9 -30 -20 -8 -11
-21 -20 -30 -20 -9 0 -22 -9 -30 -20 -8 -11 -22 -20 -32 -20 -10 0 -18 -4 -18
-10 0 -5 -8 -10 -18 -10 -10 0 -24 -9 -32 -20 -8 -11 -21 -20 -30 -20 -9 0
-22 -9 -30 -20 -8 -11 -21 -20 -30 -20 -9 0 -22 -9 -30 -20 -8 -11 -21 -20
-30 -20 -9 0 -22 -9 -30 -20 -8 -11 -22 -20 -32 -20 -10 0 -18 -4 -18 -10 0
-5 -6 -10 -13 -10 -7 0 -23 -9 -35 -20 -12 -11 -27 -20 -34 -20 -8 0 -20 -9
-28 -20 -8 -11 -21 -20 -30 -20 -9 0 -22 -9 -30 -20 -8 -11 -21 -20 -30 -20
-9 0 -22 -9 -30 -20 -8 -11 -21 -20 -30 -20 -9 0 -22 -9 -30 -20 -8 -11 -21
-20 -30 -20 -9 0 -22 -9 -30 -20 -8 -11 -22 -20 -32 -20 -10 0 -18 -4 -18 -10
0 -5 -7 -10 -16 -10 -8 0 -12 -4 -9 -10 3 -5 -3 -10 -14 -10 -12 0 -21 -4 -21
-10 0 -5 -8 -10 -18 -10 -10 0 -24 -9 -32 -20 -8 -11 -21 -20 -30 -20 -9 0
-22 -9 -30 -20 -8 -11 -21 -20 -30 -20 -9 0 -22 -9 -30 -20 -8 -11 -21 -20
-30 -20 -9 0 -22 -9 -30 -20 -8 -11 -22 -20 -32 -20 -10 0 -18 -4 -18 -10 0
-5 -8 -10 -18 -10 -10 0 -24 -9 -32 -20 -8 -11 -21 -20 -30 -20 -9 0 -22 -9
-30 -20 -8 -11 -21 -20 -30 -20 -9 0 -22 -9 -30 -20 -8 -11 -21 -20 -30 -20
-9 0 -22 -9 -30 -20 -8 -11 -22 -20 -31 -20 -10 0 -19 -4 -21 -9 -1 -5 -10
-11 -18 -13 -8 -2 -22 -11 -31 -20 -9 -10 -24 -18 -33 -18 -10 0 -14 -4 -11
-10 3 -5 -1 -10 -9 -10 -9 0 -16 -4 -16 -10 0 -5 -8 -10 -18 -10 -10 0 -24 -9
-32 -20 -8 -11 -21 -20 -30 -20 -9 0 -22 -9 -30 -20 -8 -11 -22 -20 -32 -20
-10 0 -18 -4 -18 -10 0 -5 -8 -10 -18 -10 -10 0 -24 -9 -32 -20 -8 -11 -21
-20 -30 -20 -9 0 -22 -9 -30 -20 -8 -11 -21 -20 -30 -20 -9 0 -22 -9 -30 -20
-8 -11 -21 -20 -30 -20 -9 0 -22 -9 -30 -20 -8 -11 -21 -20 -30 -20 -9 0 -22
-9 -30 -20 -8 -11 -22 -20 -32 -20 -10 0 -18 -4 -18 -10 0 -5 -8 -10 -18 -10
-10 0 -24 -9 -32 -20 -8 -11 -21 -20 -30 -20 -9 0 -22 -9 -30 -20 -8 -11 -21
-20 -30 -20 -9 0 -22 -9 -30 -20 -8 -11 -21 -20 -30 -20 -9 0 -22 -9 -30 -20
-8 -11 -21 -20 -30 -20 -9 0 -22 -9 -30 -20 -8 -11 -22 -20 -32 -20 -10 0 -18
-4 -18 -10 0 -5 -8 -10 -18 -10 -10 0 -24 -9 -32 -20 -8 -11 -21 -20 -30 -20
-9 0 -22 -9 -30 -20 -8 -11 -22 -20 -32 -20 -10 0 -18 -4 -18 -10 0 -5 -7 -10
-16 -10 -8 0 -12 -4 -9 -10 3 -5 -3 -10 -14 -10 -12 0 -21 -4 -21 -10 0 -5 -8
-10 -18 -10 -10 0 -24 -9 -32 -20 -8 -11 -21 -20 -30 -20 -9 0 -22 -9 -30 -20
-8 -11 -22 -20 -32 -20 -10 0 -18 -4 -18 -10 0 -5 -9 -10 -20 -10 -11 0 -20
-4 -20 -10 0 -5 -7 -10 -16 -10 -9 0 -25 -9 -35 -21 -9 -11 -20 -20 -23 -20
-21 3 -26 -1 -26 -19 0 -11 -4 -20 -10 -20 -5 0 -10 -9 -10 -20 0 -11 -4 -20
-10 -20 -5 0 -10 -21 -10 -47 l0 -47 34 37 c18 20 40 37 48 37 7 0 20 9 28 20
8 11 21 20 30 20 9 0 22 9 30 20 8 11 21 20 30 20 9 0 22 9 30 20 8 11 22 20
32 20 10 0 18 5 18 10 0 6 8 10 18 10 10 0 24 9 32 20 8 11 21 20 30 20 9 0
22 9 30 20 8 11 22 20 32 20 10 0 18 5 18 10 0 6 7 10 16 10 8 0 12 5 9 10 -3
6 3 10 14 10 12 0 21 5 21 10 0 6 8 10 18 10 10 0 24 9 32 20 8 11 21 20 30
20 9 0 22 9 30 20 8 11 21 20 30 20 9 0 22 9 30 20 8 11 21 20 30 20 9 0 22 9
30 20 8 11 22 20 32 20 10 0 18 5 18 10 0 6 8 10 18 10 10 0 24 9 32 20 8 11
21 20 29 20 7 0 21 8 30 18 9 9 23 18 31 20 8 2 16 8 18 13 2 5 11 9 21 9 9 0
23 9 31 20 8 11 22 20 32 20 10 0 18 5 18 10 0 6 7 10 16 10 8 0 12 5 9 10 -3
6 3 10 14 10 12 0 21 5 21 10 0 6 7 10 16 10 8 0 12 5 9 10 -3 6 2 10 12 10
10 0 25 9 33 20 8 11 22 20 32 20 10 0 18 5 18 10 0 6 8 10 18 10 10 0 24 9
32 20 8 11 22 20 32 20 10 0 18 5 18 10 0 6 8 10 18 10 10 0 24 9 32 20 8 11
21 20 30 20 9 0 22 9 30 20 8 11 21 20 30 20 9 0 22 9 30 20 8 11 22 20 32 20
10 0 18 5 18 10 0 6 8 10 18 10 10 0 24 9 32 20 8 11 21 20 30 20 9 0 22 9 30
20 8 11 22 20 32 20 10 0 18 5 18 10 0 6 8 10 18 10 10 0 24 9 32 20 8 11 22
20 32 20 10 0 18 5 18 10 0 6 6 10 13 10 7 0 23 9 35 20 12 11 27 20 34 20 8
0 20 9 28 20 8 11 20 20 28 20 7 0 22 9 34 20 12 11 28 20 35 20 7 0 13 5 13
10 0 6 8 10 18 10 10 0 24 9 32 20 8 11 22 20 32 20 10 0 18 5 18 10 0 6 8 10
18 10 10 0 24 9 32 20 8 11 21 20 29 20 7 0 21 8 30 18 9 9 28 23 44 31 15 8
27 18 27 23 0 4 7 8 15 8 8 0 15 5 15 10 0 6 7 10 15 10 8 0 15 6 15 13 0 9 2
9 8 0 6 -9 12 -7 22 7 8 11 21 20 30 20 9 0 22 9 30 20 8 11 21 20 30 20 9 0
22 9 30 20 8 11 22 20 32 20 10 0 18 5 18 10 0 6 7 10 16 10 9 0 29 14 44 30
15 17 33 30 40 30 6 0 38 27 70 60 32 33 64 60 70 60 6 0 33 23 60 50 27 28
54 50 60 50 6 0 29 18 50 40 21 22 44 40 50 40 6 0 38 27 70 60 42 42 66 60
84 60 15 0 26 -2 26 -5 0 -10 -90 -95 -100 -95 -6 0 -8 -4 -5 -10 3 -5 -1 -10
-10 -10 -20 0 -85 -64 -85 -85 0 -8 -7 -15 -15 -15 -9 0 -47 -31 -85 -70 -38
-38 -74 -70 -80 -70 -15 0 -232 -220 -249 -253 -8 -15 -18 -27 -23 -27 -18 0
-7 -36 12 -37 15 -1 20 4 20 25 0 16 8 34 20 42 11 8 20 22 20 31 0 10 14 23
30 31 17 7 30 16 30 20 0 5 7 8 15 8 9 0 47 32 85 70 38 39 74 70 80 70 6 0
27 16 46 35 19 20 39 33 45 30 5 -4 9 3 9 15 0 12 4 19 9 16 5 -3 16 5 25 19
9 14 21 25 27 25 6 0 24 14 39 30 15 17 33 30 40 30 6 0 29 18 50 40 21 22 44
40 50 40 6 0 29 18 50 40 25 26 47 40 64 40 14 0 26 5 26 10 0 6 9 10 20 10
13 0 20 -7 20 -20 0 -11 5 -20 11 -20 5 0 7 5 4 10 -3 6 3 10 15 10 12 0 18
-4 15 -10 -3 -5 3 -10 14 -10 12 0 21 5 21 10 0 6 14 10 31 10 17 0 28 4 24
10 -3 6 1 10 9 10 9 0 16 9 16 20 0 13 -7 20 -20 20 -11 0 -20 -4 -20 -10 0
-5 -9 -10 -19 -10 -11 0 -21 -4 -23 -9 -3 -10 -21 -14 -55 -12 -26 1 -30 25
-9 47 8 8 22 14 30 14 9 0 16 5 16 10 0 6 8 10 18 10 10 0 24 9 32 20 8 11 21
20 30 20 9 0 22 9 30 20 8 11 21 20 30 20 9 0 22 9 30 20 8 11 22 20 32 20 10
0 18 5 18 10 0 6 8 10 18 10 10 0 24 9 32 20 8 11 21 20 30 20 9 0 22 9 30 20
8 11 21 20 30 20 9 0 22 9 30 20 8 11 22 20 32 20 10 0 18 5 18 10 0 6 8 10
18 10 10 0 24 9 32 20 8 11 21 20 30 20 9 0 22 9 30 20 8 11 22 20 32 20 10 0
18 5 18 10 0 6 8 10 18 10 10 0 24 9 32 20 8 11 21 20 30 20 9 0 22 9 30 20 8
11 20 20 28 20 7 0 22 9 34 20 12 11 28 20 35 20 7 0 13 5 13 10 0 6 8 10 18
10 10 0 24 9 32 20 8 11 22 20 32 20 10 0 18 5 18 10 0 6 8 10 18 10 10 0 24
9 32 20 8 11 21 20 30 20 9 0 22 9 30 20 8 11 22 20 32 20 10 0 18 5 18 10 0
6 8 10 18 10 10 0 24 9 32 20 8 11 22 20 32 20 10 0 18 5 18 10 0 6 8 10 18
10 10 0 24 9 32 20 8 11 22 20 32 20 10 0 18 5 18 10 0 6 8 10 18 10 10 0 24
9 32 20 8 11 22 20 32 20 10 0 18 5 18 10 0 6 8 10 18 10 10 0 24 9 32 20 8
11 21 20 30 20 9 0 22 9 30 20 8 11 22 20 32 20 10 0 18 5 18 10 0 6 8 10 18
10 10 0 24 9 32 20 8 11 22 20 32 20 10 0 18 5 18 10 0 6 8 10 18 10 10 0 24
9 32 20 8 11 21 20 29 20 7 0 22 10 32 22 11 12 19 16 19 8 0 -8 8 -4 19 8 10
12 25 22 32 22 8 0 21 9 29 20 8 11 22 20 32 20 10 0 18 5 18 10 0 6 8 10 18
10 10 0 24 9 32 20 8 11 22 20 32 20 10 0 18 5 18 10 0 6 9 10 20 10 11 0 20
5 20 10 0 6 8 10 18 10 10 0 24 9 32 20 8 11 22 20 32 20 10 0 18 5 18 10 0 6
8 10 18 10 10 0 24 9 32 20 8 11 22 20 32 20 10 0 18 5 18 10 0 6 9 10 20 10
11 0 20 5 20 10 0 6 8 10 18 10 10 0 24 9 32 20 8 11 22 20 32 20 10 0 18 5
18 10 0 6 8 10 18 10 10 0 24 9 32 20 8 11 22 20 32 20 10 0 18 5 18 10 0 6 9
10 20 10 11 0 20 5 20 10 0 6 9 10 20 10 11 0 20 5 20 10 0 6 9 10 20 10 11 0
20 5 20 10 0 6 9 10 20 10 11 0 20 5 20 10 0 6 9 10 20 10 11 0 20 5 20 10 0
6 27 10 61 10 37 0 58 4 54 10 -3 6 3 10 15 10 12 0 19 4 16 9 -4 5 6 14 21
19 16 6 21 11 12 11 -20 1 -31 31 -33 86 -1 23 -8 48 -16 57 -13 14 -17 14
-32 -5 -18 -20 -18 -20 -18 8 0 17 -10 37 -25 51 -14 13 -28 37 -31 54 -8 35
-19 46 -28 25z"/>
<path d="M16904 15078 c-4 -13 -2 -24 5 -26 6 -2 11 -10 11 -18 0 -9 11 -14
28 -14 21 0 32 -7 40 -25 18 -38 16 -41 -28 -37 -39 4 -40 3 -40 -27 0 -17 5
-31 10 -31 6 0 10 -9 10 -20 0 -11 5 -20 10 -20 6 0 10 -16 10 -35 0 -19 5
-35 10 -35 6 0 10 -16 10 -35 0 -24 5 -35 14 -35 24 0 46 11 46 24 0 6 9 18
20 26 15 11 20 26 20 62 0 26 -4 48 -10 48 -5 0 -10 18 -10 41 0 24 -4 38 -10
34 -5 -3 -10 3 -10 15 0 25 -22 50 -44 50 -9 0 -16 8 -16 20 0 11 -4 20 -10
20 -5 0 -10 9 -10 20 0 29 -46 28 -56 -2z"/>
<path d="M13760 13110 c0 -5 -9 -10 -20 -10 -11 0 -20 -4 -20 -9 0 -5 -13 -14
-30 -21 -16 -7 -30 -16 -30 -21 0 -5 -16 -9 -36 -9 -19 0 -42 -7 -51 -15 -8
-9 -28 -19 -44 -22 -16 -3 -29 -9 -29 -14 0 -5 -9 -9 -20 -9 -11 0 -20 -4 -20
-10 0 -5 -8 -10 -18 -10 -10 0 -24 -9 -32 -20 -8 -11 -22 -20 -32 -20 -10 0
-18 -4 -18 -10 0 -5 -9 -10 -20 -10 -11 0 -20 -4 -20 -10 0 -5 -7 -10 -16 -10
-9 0 -29 -13 -44 -30 -15 -16 -35 -30 -44 -30 -9 0 -16 -4 -16 -10 0 -5 -8
-10 -18 -10 -10 0 -24 -9 -32 -20 -8 -11 -25 -20 -38 -20 -13 0 -38 -15 -57
-34 -19 -19 -43 -37 -55 -41 -11 -3 -20 -11 -20 -16 0 -5 -8 -9 -18 -9 -10 0
-24 -9 -32 -20 -8 -11 -21 -20 -30 -20 -9 0 -22 -9 -30 -20 -8 -11 -21 -20
-30 -20 -9 0 -22 -9 -30 -20 -8 -11 -22 -20 -32 -20 -10 0 -18 -4 -18 -10 0
-5 -8 -10 -18 -10 -10 0 -24 -9 -32 -20 -8 -11 -21 -20 -30 -20 -9 0 -22 -9
-30 -20 -8 -11 -21 -20 -30 -20 -9 0 -22 -9 -30 -20 -8 -11 -22 -20 -32 -20
-10 0 -18 -4 -18 -10 0 -5 -8 -10 -18 -10 -10 0 -24 -9 -32 -20 -8 -11 -21
-20 -30 -20 -9 0 -22 -9 -30 -20 -8 -11 -22 -20 -32 -20 -10 0 -18 -4 -18 -10
0 -5 -10 -10 -22 -10 -19 0 -20 -2 -8 -10 12 -8 11 -10 -7 -10 -13 0 -23 -4
-23 -10 0 -5 -8 -10 -18 -10 -10 0 -24 -9 -32 -20 -8 -11 -21 -20 -30 -20 -9
0 -22 -9 -30 -20 -8 -11 -22 -20 -32 -20 -10 0 -18 -4 -18 -10 0 -5 -8 -10
-18 -10 -10 0 -24 -9 -32 -20 -8 -11 -21 -20 -30 -20 -9 0 -22 -9 -30 -20 -8
-11 -21 -20 -30 -20 -9 0 -22 -9 -30 -20 -8 -11 -22 -20 -32 -20 -10 0 -18 -4
-18 -10 0 -5 -7 -10 -15 -10 -8 0 -15 -4 -15 -10 0 -5 -7 -10 -15 -10 -8 0
-15 -4 -15 -10 0 -5 -8 -10 -18 -10 -10 0 -24 -9 -32 -20 -8 -11 -21 -20 -30
-20 -9 0 -22 -9 -30 -20 -8 -11 -22 -20 -32 -20 -10 0 -18 -4 -18 -10 0 -5 -8
-10 -18 -10 -10 0 -24 -9 -32 -20 -8 -11 -21 -20 -30 -20 -9 0 -22 -9 -30 -20
-8 -11 -22 -20 -32 -20 -10 0 -18 -4 -18 -10 0 -5 -9 -10 -21 -10 -11 0 -17
-4 -14 -10 3 -5 -1 -10 -9 -10 -9 0 -16 -4 -16 -10 0 -5 -8 -10 -18 -10 -10 0
-24 -9 -32 -20 -8 -11 -22 -20 -32 -20 -10 0 -18 -4 -18 -10 0 -5 -9 -10 -21
-10 -11 0 -17 -4 -14 -10 3 -5 -1 -10 -9 -10 -9 0 -16 -4 -16 -10 0 -5 -8 -10
-18 -10 -10 0 -24 -9 -32 -20 -8 -11 -21 -20 -30 -20 -9 0 -22 -9 -30 -20 -8
-11 -22 -20 -32 -20 -10 0 -18 -4 -18 -10 0 -5 -8 -10 -18 -10 -10 0 -24 -9
-32 -20 -8 -11 -21 -20 -30 -20 -9 0 -22 -9 -30 -20 -8 -11 -20 -20 -28 -20
-7 0 -22 -9 -34 -20 -12 -11 -28 -20 -35 -20 -7 0 -13 -4 -13 -10 0 -5 -8 -10
-18 -10 -10 0 -24 -9 -32 -20 -8 -11 -21 -20 -30 -20 -9 0 -22 -9 -30 -20 -8
-11 -20 -20 -27 -20 -7 0 -13 -4 -13 -10 0 -5 -7 -10 -15 -10 -8 0 -15 -4 -15
-10 0 -5 -8 -10 -18 -10 -10 0 -24 -9 -32 -20 -8 -11 -24 -20 -36 -20 -11 0
-35 -13 -52 -30 -18 -16 -38 -30 -45 -30 -7 0 -19 -9 -27 -20 -8 -11 -22 -20
-32 -20 -10 0 -18 -4 -18 -10 0 -5 -8 -10 -18 -10 -10 0 -24 -9 -32 -20 -8
-11 -21 -20 -30 -20 -9 0 -22 -9 -30 -20 -8 -11 -22 -20 -32 -20 -10 0 -18 -4
-18 -10 0 -5 -8 -10 -18 -10 -10 0 -24 -9 -32 -20 -8 -11 -20 -20 -28 -20 -7
0 -10 -4 -7 -10 3 -6 -4 -10 -18 -10 -13 0 -33 -9 -45 -20 -12 -11 -27 -20
-34 -20 -8 0 -20 -9 -28 -20 -8 -11 -21 -20 -30 -20 -9 0 -22 -9 -30 -20 -8
-11 -21 -20 -30 -20 -9 0 -22 -9 -30 -20 -8 -11 -22 -20 -32 -20 -10 0 -18 -4
-18 -10 0 -5 -8 -10 -18 -10 -10 0 -24 -9 -32 -20 -8 -11 -21 -20 -30 -20 -9
0 -22 -9 -30 -20 -8 -11 -22 -20 -32 -20 -10 0 -18 -4 -18 -10 0 -5 -8 -10
-18 -10 -10 0 -24 -9 -32 -20 -8 -11 -21 -20 -30 -20 -9 0 -22 -9 -30 -20 -8
-11 -22 -20 -32 -20 -10 0 -18 -4 -18 -10 0 -5 -8 -10 -18 -10 -10 0 -24 -9
-32 -20 -8 -11 -21 -20 -30 -20 -9 0 -22 -9 -30 -20 -8 -11 -22 -20 -32 -20
-10 0 -18 -4 -18 -10 0 -5 -6 -10 -14 -10 -7 0 -27 -13 -44 -30 -18 -16 -39
-30 -47 -30 -8 0 -15 -4 -15 -10 0 -5 -8 -10 -18 -10 -10 0 -24 -9 -32 -20 -8
-11 -21 -20 -30 -20 -9 0 -22 -9 -30 -20 -8 -11 -22 -20 -31 -20 -10 0 -19 -4
-21 -9 -1 -5 -10 -11 -18 -13 -8 -2 -22 -11 -31 -20 -9 -10 -23 -18 -30 -18
-8 0 -21 -9 -29 -20 -8 -11 -21 -20 -30 -20 -9 0 -22 -9 -30 -20 -8 -11 -21
-20 -30 -20 -9 0 -22 -9 -30 -20 -8 -11 -22 -20 -32 -20 -10 0 -18 -4 -18 -10
0 -5 -8 -10 -18 -10 -10 0 -24 -9 -32 -20 -8 -11 -22 -20 -32 -20 -10 0 -18
-4 -18 -10 0 -5 -6 -10 -13 -10 -7 0 -23 -9 -35 -20 -12 -11 -27 -20 -34 -20
-8 0 -20 -9 -28 -20 -8 -11 -21 -20 -30 -20 -9 0 -22 -9 -30 -20 -8 -11 -22
-20 -32 -20 -10 0 -18 -4 -18 -10 0 -5 -6 -10 -13 -10 -7 0 -23 -9 -35 -20
-12 -11 -27 -20 -34 -20 -8 0 -20 -9 -28 -20 -8 -11 -21 -20 -30 -20 -9 0 -22
-9 -30 -20 -8 -11 -21 -20 -30 -20 -9 0 -22 -9 -30 -20 -8 -11 -22 -20 -32
-20 -10 0 -18 -4 -18 -10 0 -5 -8 -10 -18 -10 -10 0 -24 -9 -32 -20 -8 -11
-22 -20 -32 -20 -10 0 -18 -4 -18 -10 0 -5 -7 -10 -16 -10 -8 0 -12 -4 -9 -10
3 -5 -3 -10 -14 -10 -12 0 -21 -4 -21 -10 0 -5 -6 -10 -13 -10 -7 0 -23 -9
-35 -20 -12 -11 -27 -20 -34 -20 -8 0 -20 -9 -28 -20 -8 -11 -21 -20 -30 -20
-9 0 -22 -9 -30 -20 -8 -11 -22 -20 -32 -20 -10 0 -18 -4 -18 -10 0 -5 -8 -10
-18 -10 -10 0 -24 -9 -32 -20 -8 -11 -21 -20 -30 -20 -9 0 -22 -9 -30 -20 -8
-11 -22 -20 -32 -20 -10 0 -18 -4 -18 -10 0 -5 -8 -10 -18 -10 -10 0 -24 -9
-32 -20 -8 -11 -21 -20 -30 -20 -9 0 -22 -9 -30 -20 -8 -11 -21 -20 -30 -20
-9 0 -22 -9 -30 -20 -8 -11 -22 -20 -32 -20 -10 0 -18 -4 -18 -10 0 -5 -8 -10
-18 -10 -10 0 -24 -9 -32 -20 -8 -11 -22 -20 -32 -20 -10 0 -18 -4 -18 -10 0
-5 -8 -10 -18 -10 -10 0 -24 -9 -32 -20 -8 -11 -22 -20 -32 -20 -10 0 -18 -4
-18 -10 0 -5 -7 -10 -16 -10 -8 0 -12 -4 -9 -10 3 -5 -3 -10 -14 -10 -12 0
-21 -4 -21 -10 0 -5 -8 -10 -18 -10 -10 0 -24 -9 -32 -20 -8 -11 -22 -20 -32
-20 -10 0 -18 -4 -18 -10 0 -5 -8 -10 -18 -10 -10 0 -24 -9 -32 -20 -8 -11
-21 -20 -30 -20 -9 0 -22 -9 -30 -20 -8 -11 -22 -20 -32 -20 -10 0 -18 -4 -18
-10 0 -5 -8 -10 -18 -10 -10 0 -24 -9 -32 -20 -8 -11 -21 -20 -30 -20 -9 0
-22 -9 -30 -20 -8 -11 -22 -20 -32 -20 -10 0 -18 -4 -18 -10 0 -5 -6 -10 -13
-10 -7 0 -23 -9 -35 -20 -12 -11 -27 -20 -34 -20 -8 0 -20 -9 -28 -20 -8 -11
-21 -20 -30 -20 -9 0 -22 -9 -30 -20 -8 -11 -22 -20 -32 -20 -10 0 -18 -4 -18
-10 0 -5 -7 -10 -16 -10 -8 0 -12 -4 -9 -10 3 -5 -3 -10 -14 -10 -12 0 -21 -4
-21 -10 0 -5 -8 -10 -18 -10 -10 0 -24 -9 -32 -20 -8 -11 -21 -20 -30 -20 -9
0 -22 -9 -30 -20 -8 -11 -22 -20 -32 -20 -10 0 -18 -4 -18 -10 0 -5 -6 -10
-13 -10 -7 0 -23 -9 -35 -20 -12 -11 -27 -20 -34 -20 -8 0 -20 -9 -28 -20 -8
-11 -21 -20 -30 -20 -9 0 -22 -9 -30 -20 -8 -11 -21 -20 -30 -20 -9 0 -22 -9
-30 -20 -8 -11 -22 -20 -32 -20 -10 0 -18 -4 -18 -10 0 -5 -8 -10 -18 -10 -10
0 -24 -9 -32 -20 -8 -11 -21 -20 -29 -20 -7 0 -21 -8 -30 -17 -9 -10 -23 -19
-31 -21 -8 -2 -16 -8 -18 -13 -2 -5 -11 -9 -21 -9 -9 0 -23 -9 -31 -20 -8 -11
-21 -20 -30 -20 -9 0 -22 -9 -30 -20 -8 -11 -22 -20 -32 -20 -10 0 -18 -4 -18
-10 0 -5 -7 -10 -16 -10 -9 0 -24 -8 -33 -17 -9 -10 -23 -19 -31 -21 -8 -2
-16 -8 -18 -13 -2 -5 -11 -9 -21 -9 -9 0 -23 -9 -31 -20 -8 -11 -21 -20 -30
-20 -9 0 -22 -9 -30 -20 -8 -11 -21 -20 -30 -20 -9 0 -22 -9 -30 -20 -8 -11
-22 -20 -32 -20 -10 0 -18 -4 -18 -10 0 -5 -7 -10 -16 -10 -8 0 -12 -4 -9 -10
3 -5 -3 -10 -14 -10 -12 0 -21 -4 -21 -10 0 -5 -8 -10 -18 -10 -10 0 -24 -9
-32 -20 -8 -11 -21 -20 -30 -20 -9 0 -22 -9 -30 -20 -8 -11 -21 -20 -30 -20
-9 0 -22 -9 -30 -20 -8 -11 -21 -20 -30 -20 -9 0 -22 -9 -30 -20 -8 -11 -22
-20 -32 -20 -10 0 -18 -4 -18 -10 0 -5 -8 -10 -18 -10 -10 0 -24 -9 -32 -20
-8 -11 -21 -20 -30 -20 -9 0 -22 -9 -30 -20 -8 -11 -22 -20 -32 -20 -10 0 -18
-4 -18 -10 0 -5 -8 -10 -18 -10 -10 0 -24 -9 -32 -20 -8 -11 -21 -20 -30 -20
-9 0 -22 -9 -30 -20 -8 -11 -22 -20 -32 -20 -10 0 -18 -4 -18 -10 0 -5 -9 -10
-21 -10 -11 0 -17 -4 -14 -10 3 -5 -1 -10 -9 -10 -9 0 -16 -4 -16 -10 0 -5 -8
-10 -18 -10 -10 0 -24 -9 -32 -20 -8 -11 -21 -20 -28 -20 -8 0 -27 -13 -42
-30 -15 -16 -34 -30 -42 -30 -7 0 -20 -9 -28 -20 -8 -11 -21 -20 -30 -20 -9 0
-22 -9 -30 -20 -8 -11 -22 -20 -32 -20 -10 0 -18 -4 -18 -10 0 -5 -8 -10 -18
-10 -10 0 -24 -9 -32 -20 -8 -11 -21 -20 -30 -20 -9 0 -22 -9 -30 -20 -8 -11
-22 -20 -32 -20 -10 0 -18 -4 -18 -9 0 -5 -13 -14 -30 -21 -16 -7 -30 -16 -30
-21 0 -5 -8 -9 -18 -9 -10 0 -24 -9 -32 -20 -8 -11 -21 -20 -28 -20 -8 0 -27
-13 -42 -30 -15 -16 -35 -30 -44 -30 -9 0 -16 -4 -16 -10 0 -5 -8 -10 -18 -10
-10 0 -24 -9 -32 -20 -8 -11 -22 -20 -32 -20 -10 0 -18 -4 -18 -10 0 -5 -7
-10 -16 -10 -9 0 -29 -13 -44 -30 -15 -16 -35 -30 -44 -30 -9 0 -16 -4 -16
-10 0 -5 -7 -10 -15 -10 -14 0 -85 -62 -85 -75 0 -3 9 -5 20 -5 11 0 20 5 20
10 0 6 8 10 18 10 10 0 24 9 32 20 8 11 21 20 30 20 9 0 22 9 30 20 8 11 25
20 38 20 14 0 36 13 52 30 15 17 34 30 42 30 7 0 20 9 28 20 8 11 22 20 32 20
10 0 18 5 18 10 0 6 8 10 18 10 10 0 24 9 32 20 8 11 21 20 30 20 9 0 22 9 30
20 8 11 22 20 32 20 10 0 18 5 18 10 0 6 9 10 21 10 11 0 17 4 14 10 -3 6 1
10 9 10 9 0 16 5 16 10 0 6 8 10 18 10 10 0 24 9 32 20 8 11 21 20 30 20 9 0
22 9 30 20 8 11 21 20 30 20 9 0 22 9 30 20 8 11 21 20 30 20 9 0 22 9 30 20
8 11 22 20 32 20 10 0 18 5 18 10 0 6 7 10 16 10 8 0 12 5 9 10 -3 6 3 10 14
10 12 0 21 5 21 10 0 6 9 10 20 10 11 0 20 5 20 10 0 6 9 10 20 10 11 0 20 5
20 10 0 6 8 10 18 10 10 0 24 9 32 20 8 11 21 20 30 20 9 0 22 9 30 20 8 11
21 20 30 20 9 0 22 9 30 20 8 11 21 20 30 20 9 0 22 9 30 20 8 11 22 20 32 20
10 0 18 4 18 9 0 5 14 14 30 21 17 7 30 16 30 21 0 5 8 9 18 9 10 0 24 9 32
20 8 11 21 20 30 20 9 0 22 9 30 20 8 11 22 20 32 20 10 0 18 5 18 10 0 6 8
10 18 10 10 0 24 9 32 20 8 11 21 20 30 20 9 0 22 9 30 20 8 11 21 20 30 20 9
0 22 9 30 20 8 11 21 20 30 20 9 0 22 9 30 20 8 11 22 20 32 20 10 0 18 5 18
10 0 6 8 10 18 10 10 0 24 9 32 20 8 11 21 20 30 20 9 0 22 9 30 20 8 11 21
20 30 20 9 0 22 9 30 20 8 11 20 20 28 20 7 0 22 9 34 20 12 11 28 20 35 20 7
0 13 5 13 10 0 6 8 10 18 10 10 0 24 9 32 20 8 11 21 20 30 20 9 0 22 9 30 20
8 11 22 20 32 20 10 0 18 5 18 10 0 6 8 10 18 10 10 0 24 9 32 20 8 11 21 20
30 20 9 0 22 9 30 20 8 11 21 20 30 20 9 0 22 9 30 20 8 11 22 20 32 20 10 0
18 5 18 10 0 6 8 10 18 10 10 0 24 9 32 20 8 11 21 20 30 20 9 0 22 9 30 20 8
11 22 20 32 20 10 0 18 5 18 10 0 6 7 10 16 10 8 0 12 5 9 10 -3 6 3 10 14 10
12 0 21 5 21 10 0 6 8 10 18 10 10 0 24 9 32 20 8 11 21 20 30 20 9 0 22 9 30
20 8 11 22 20 31 20 10 0 19 4 21 9 2 5 10 11 18 13 8 2 22 11 31 21 9 9 23
17 30 17 8 0 21 9 29 20 8 11 22 20 32 20 10 0 18 5 18 10 0 6 6 10 13 10 7 0
23 9 35 20 12 11 27 20 34 20 8 0 20 9 28 20 8 11 22 20 31 20 10 0 19 4 21 9
2 5 10 11 18 13 8 2 22 11 31 21 9 9 23 17 30 17 8 0 21 9 29 20 8 11 21 20
30 20 9 0 22 9 30 20 8 11 22 20 31 20 10 0 19 4 21 9 2 5 10 11 18 13 8 2 22
11 31 21 9 9 23 17 30 17 8 0 21 9 29 20 8 11 21 20 30 20 9 0 22 9 30 20 8
11 22 20 32 20 10 0 18 5 18 10 0 6 7 10 16 10 8 0 12 5 9 10 -3 6 3 10 14 10
12 0 21 5 21 10 0 6 8 10 18 10 10 0 24 9 32 20 8 11 21 20 29 20 7 0 21 8 30
18 9 9 23 18 31 20 8 2 17 8 18 13 2 5 11 9 21 9 9 0 23 9 31 20 8 11 22 20
32 20 10 0 18 5 18 10 0 6 8 10 18 10 10 0 24 9 32 20 8 11 21 20 30 20 9 0
22 9 30 20 8 11 22 20 32 20 10 0 18 5 18 10 0 6 8 10 18 10 10 0 24 9 32 20
8 11 21 20 30 20 9 0 22 9 30 20 8 11 21 20 30 20 9 0 22 9 30 20 8 11 22 20
32 20 10 0 18 5 18 10 0 6 8 10 18 10 10 0 24 9 32 20 8 11 21 20 30 20 9 0
22 9 30 20 8 11 22 20 32 20 10 0 18 5 18 10 0 6 8 10 18 10 10 0 24 9 32 20
8 11 21 20 30 20 9 0 22 9 30 20 8 11 22 20 32 20 10 0 18 5 18 10 0 6 8 10
18 10 10 0 24 9 32 20 8 11 21 20 30 20 9 0 22 9 30 20 8 11 21 20 30 20 9 0
22 9 30 20 8 11 22 20 32 20 10 0 18 5 18 10 0 6 8 10 18 10 10 0 24 9 32 20
8 11 22 20 32 20 10 0 18 5 18 10 0 6 8 10 18 10 10 0 24 9 32 20 8 11 24 20
35 20 16 0 17 2 5 10 -12 8 -11 10 8 10 12 0 22 5 22 10 0 6 8 10 18 10 10 0
24 9 32 20 8 11 21 20 30 20 9 0 22 9 30 20 8 11 22 20 32 20 10 0 18 5 18 10
0 6 8 10 18 10 10 0 24 9 32 20 8 11 21 20 30 20 9 0 22 9 30 20 8 11 22 20
32 20 10 0 18 5 18 10 0 6 8 10 18 10 10 0 24 9 32 20 8 11 21 20 30 20 9 0
22 9 30 20 8 11 21 20 30 20 9 0 22 9 30 20 8 11 22 20 32 20 10 0 18 5 18 10
0 6 8 10 18 10 10 0 24 9 32 20 8 11 21 20 30 20 9 0 22 9 30 20 8 11 22 20
32 20 10 0 18 5 18 10 0 6 8 10 18 10 10 0 24 9 32 20 8 11 21 20 30 20 9 0
22 9 30 20 8 11 22 20 32 20 10 0 18 5 18 10 0 6 6 10 13 10 7 0 23 9 35 20
12 11 27 20 34 20 8 0 20 9 28 20 8 11 21 20 30 20 9 0 22 9 30 20 8 11 22 20
32 20 10 0 18 5 18 10 0 6 8 10 18 10 10 0 24 9 32 20 8 11 21 20 30 20 9 0
22 9 30 20 8 11 21 20 30 20 9 0 22 9 30 20 8 11 22 20 32 20 10 0 18 5 18 10
0 6 8 10 18 10 10 0 24 9 32 20 8 11 22 20 32 20 10 0 18 5 18 10 0 6 9 10 20
10 11 0 20 4 20 9 0 5 14 14 30 21 17 7 30 16 30 21 0 5 7 9 16 9 8 0 12 5 9
10 -3 6 2 10 12 10 10 0 25 9 33 20 8 11 22 20 32 20 10 0 18 5 18 10 0 6 9
10 20 10 11 0 20 5 20 10 0 6 7 10 16 10 8 0 12 5 9 10 -3 6 3 10 14 10 12 0
21 5 21 10 0 6 8 10 18 10 10 0 24 9 32 20 8 11 21 20 30 20 9 0 22 9 30 20 8
11 22 20 32 20 10 0 18 5 18 10 0 6 8 10 18 10 10 0 24 9 32 20 8 11 21 20 30
20 9 0 22 9 30 20 8 11 22 20 32 20 10 0 18 5 18 10 0 6 8 10 18 10 10 0 24 9
32 19 7 11 17 18 21 15 4 -2 13 1 21 8 7 7 25 19 41 27 15 8 27 18 27 23 0 4
8 8 18 8 10 0 24 9 32 20 8 11 21 20 30 20 9 0 22 9 30 20 8 11 22 20 32 20
10 0 18 5 18 10 0 6 8 10 18 10 10 0 24 9 32 20 8 11 21 20 30 20 9 0 22 9 30
20 8 11 21 20 30 20 9 0 22 9 30 20 8 11 22 20 32 20 10 0 18 5 18 10 0 6 8
10 18 10 10 0 24 9 32 20 8 11 22 20 32 20 10 0 18 4 18 9 0 5 14 14 30 21 17
7 30 16 30 21 0 5 8 9 18 9 10 0 24 9 32 20 8 11 21 20 30 20 9 0 22 9 30 20
8 11 21 20 30 20 9 0 22 9 30 20 8 11 22 20 32 20 10 0 18 5 18 10 0 6 8 10
18 10 10 0 24 9 32 20 8 11 21 20 30 20 9 0 22 9 30 20 8 11 22 20 32 20 10 0
18 5 18 10 0 6 8 10 18 10 10 0 24 9 32 20 8 11 21 20 30 20 9 0 22 9 30 20 8
11 21 20 30 20 9 0 22 9 30 20 8 11 22 20 32 20 10 0 18 5 18 10 0 6 8 10 18
10 10 0 24 9 32 20 8 11 21 20 30 20 9 0 22 9 30 20 8 11 22 20 32 20 10 0 18
5 18 10 0 6 7 10 15 10 8 0 15 5 15 10 0 6 7 10 15 10 8 0 15 5 15 10 0 6 8
10 18 10 10 0 24 9 32 20 8 11 22 20 32 20 10 0 18 5 18 10 0 6 7 10 16 10 8
0 12 5 9 10 -3 6 3 10 14 10 12 0 21 5 21 10 0 6 8 10 18 10 10 0 24 9 32 20
8 11 21 20 30 20 9 0 22 9 30 20 8 11 21 20 30 20 9 0 22 9 30 20 8 11 22 20
32 20 10 0 18 5 18 10 0 6 8 10 18 10 10 0 24 9 32 20 8 11 21 20 30 20 9 0
22 9 30 20 8 11 21 20 30 20 9 0 22 9 30 20 8 11 22 20 32 20 10 0 18 5 18 10
0 6 7 10 16 10 9 0 29 14 46 32 22 24 31 29 38 18 6 -10 17 -4 45 24 20 20 40
34 44 32 4 -3 14 4 21 15 8 10 21 19 30 19 9 0 22 9 30 20 8 11 22 20 32 20
10 0 18 5 18 10 0 6 8 10 18 10 10 0 24 9 32 20 8 11 21 20 30 20 9 0 22 9 30
20 8 11 22 20 32 20 10 0 18 5 18 10 0 6 9 10 20 10 11 0 20 5 20 10 0 6 14
10 30 10 17 0 30 5 30 10 0 6 9 10 20 10 11 0 20 5 20 10 0 6 18 10 40 10 22
0 40 4 40 8 0 5 30 10 68 11 37 1 69 6 70 12 5 14 59 11 66 -3 5 -10 7 -10 12
0 7 14 64 17 64 2 0 -5 18 -10 40 -10 22 0 40 -4 40 -10 0 -5 9 -10 20 -10 11
0 20 -4 20 -10 0 -5 9 -10 20 -10 11 0 20 -4 20 -10 0 -5 12 -10 26 -10 14 0
23 -4 19 -10 -3 -5 -1 -10 4 -10 6 0 11 9 11 21 0 11 -4 18 -8 15 -5 -3 -20 6
-34 19 -15 14 -32 26 -40 27 -24 5 -38 27 -38 58 0 41 -20 60 -64 60 -26 0
-36 -4 -36 -16 0 -8 5 -12 10 -9 6 3 10 -3 10 -14 0 -14 -6 -21 -20 -21 -11 0
-20 5 -20 10 0 6 -13 10 -30 10 -16 0 -30 5 -30 10 0 6 -10 10 -22 10 -19 0
-20 2 -8 10 12 8 11 10 -7 10 -12 0 -23 -6 -26 -12 -3 -10 -9 -10 -26 0 -25
15 -51 16 -51 2z"/>
<path d="M14713 12205 c-7 -8 -13 -30 -13 -49 0 -27 -5 -36 -21 -41 -17 -6
-19 -9 -8 -16 8 -5 10 -9 5 -9 -5 0 -3 -6 3 -14 9 -11 8 -17 -4 -29 -16 -16
-21 -47 -7 -47 4 0 14 9 22 20 8 12 26 20 42 20 15 0 28 5 28 10 0 14 36 13
77 -2 24 -9 36 -9 41 -2 8 13 42 14 42 2 0 -4 9 -8 20 -8 17 0 20 7 20 50 0
43 -3 50 -20 50 -11 0 -20 -4 -20 -10 0 -5 -8 -10 -19 -10 -11 0 -23 -12 -31
-30 -13 -32 -30 -40 -30 -14 0 9 -9 18 -20 21 -20 5 -29 43 -10 43 6 0 10 -4
10 -10 0 -5 5 -10 10 -10 16 0 12 30 -7 48 -12 12 -18 13 -21 4 -2 -6 -12 -12
-23 -12 -14 0 -19 -7 -19 -30 0 -16 -4 -30 -10 -30 -5 0 -10 14 -10 30 0 17
-4 30 -10 30 -5 0 -10 9 -10 20 0 11 5 20 10 20 6 0 10 5 10 10 0 14 -13 12
-27 -5z"/>
<path d="M14420 11890 c0 -5 -19 -10 -42 -11 -38 0 -41 -2 -20 -11 17 -9 22
-20 22 -50 0 -21 -4 -38 -10 -38 -5 0 -10 -9 -10 -20 0 -11 -4 -20 -10 -20 -5
0 -10 -9 -10 -20 0 -11 -4 -20 -10 -20 -5 0 -10 -7 -10 -15 0 -8 -34 -49 -75
-90 -53 -54 -82 -75 -100 -75 -14 0 -25 -4 -25 -10 0 -5 -9 -10 -20 -10 -11 0
-20 -7 -20 -15 0 -8 -4 -15 -10 -15 -5 0 -10 -7 -10 -15 0 -8 -9 -15 -20 -15
-11 0 -20 -4 -20 -10 0 -5 -7 -10 -16 -10 -9 0 -29 -13 -44 -30 -15 -16 -38
-30 -50 -30 -12 0 -35 -13 -50 -30 -15 -16 -35 -30 -44 -30 -9 0 -16 -4 -16
-10 0 -5 -8 -10 -18 -10 -10 0 -24 -9 -32 -20 -8 -11 -21 -20 -30 -20 -9 0
-22 -9 -30 -20 -8 -11 -22 -20 -32 -20 -10 0 -18 -4 -18 -10 0 -5 -7 -10 -16
-10 -8 0 -12 -4 -9 -10 3 -5 -3 -10 -14 -10 -12 0 -21 -4 -21 -10 0 -5 -8 -10
-18 -10 -10 0 -24 -9 -32 -20 -8 -11 -21 -20 -30 -20 -9 0 -22 -9 -30 -20 -8
-11 -22 -20 -32 -20 -10 0 -18 -4 -18 -10 0 -5 -8 -10 -18 -10 -10 0 -24 -9
-32 -20 -8 -11 -21 -20 -30 -20 -9 0 -22 -9 -30 -20 -8 -11 -22 -20 -32 -20
-10 0 -18 -4 -18 -10 0 -5 -6 -10 -13 -10 -7 0 -23 -9 -35 -20 -12 -11 -27
-20 -34 -20 -8 0 -20 -9 -28 -20 -8 -11 -21 -20 -30 -20 -9 0 -22 -9 -30 -20
-8 -11 -22 -20 -32 -20 -10 0 -18 -4 -18 -10 0 -5 -6 -10 -13 -10 -7 0 -23 -9
-35 -20 -12 -11 -27 -20 -34 -20 -8 0 -20 -9 -28 -20 -8 -11 -21 -20 -30 -20
-9 0 -22 -9 -30 -20 -8 -11 -22 -20 -32 -20 -10 0 -18 -4 -18 -10 0 -5 -6 -10
-13 -10 -7 0 -23 -9 -35 -20 -12 -11 -27 -20 -34 -20 -8 0 -20 -9 -28 -20 -8
-11 -21 -20 -30 -20 -9 0 -22 -9 -30 -20 -8 -11 -22 -20 -32 -20 -10 0 -18 -4
-18 -10 0 -5 -6 -10 -13 -10 -7 0 -23 -9 -35 -20 -12 -11 -27 -20 -34 -20 -8
0 -20 -9 -28 -20 -8 -11 -21 -20 -30 -20 -9 0 -22 -9 -30 -20 -8 -11 -22 -20
-32 -20 -10 0 -18 -4 -18 -10 0 -5 -8 -10 -18 -10 -10 0 -24 -9 -32 -20 -8
-11 -21 -20 -30 -20 -9 0 -22 -9 -30 -20 -8 -11 -21 -20 -30 -20 -9 0 -22 -9
-30 -20 -8 -11 -22 -20 -32 -20 -10 0 -18 -4 -18 -10 0 -5 -8 -10 -18 -10 -10
0 -24 -9 -32 -20 -8 -11 -21 -20 -30 -20 -9 0 -22 -9 -30 -20 -8 -11 -22 -20
-32 -20 -10 0 -18 -4 -18 -10 0 -5 -8 -10 -18 -10 -10 0 -24 -9 -32 -20 -8
-11 -21 -20 -30 -20 -9 0 -22 -9 -30 -20 -8 -11 -21 -20 -30 -20 -9 0 -22 -9
-30 -20 -8 -11 -22 -20 -32 -20 -10 0 -18 -4 -18 -10 0 -5 -8 -10 -18 -10 -10
0 -24 -9 -32 -20 -8 -11 -21 -20 -30 -20 -9 0 -22 -9 -30 -20 -8 -11 -22 -20
-32 -20 -10 0 -18 -4 -18 -10 0 -5 -6 -10 -13 -10 -7 0 -23 -9 -35 -20 -12
-11 -27 -20 -34 -20 -8 0 -20 -9 -28 -20 -8 -11 -21 -20 -30 -20 -9 0 -22 -9
-30 -20 -8 -11 -21 -20 -30 -20 -9 0 -22 -9 -30 -20 -8 -11 -22 -20 -32 -20
-10 0 -18 -4 -18 -10 0 -5 -8 -10 -18 -10 -10 0 -24 -9 -32 -20 -8 -11 -21
-20 -30 -20 -9 0 -22 -9 -30 -20 -8 -11 -21 -20 -30 -20 -9 0 -22 -9 -30 -20
-8 -11 -22 -20 -32 -20 -10 0 -18 -4 -18 -10 0 -5 -8 -10 -18 -10 -10 0 -24
-9 -32 -20 -8 -11 -21 -20 -30 -20 -9 0 -22 -9 -30 -20 -8 -11 -22 -20 -32
-20 -10 0 -18 -4 -18 -10 0 -5 -8 -10 -18 -10 -10 0 -24 -9 -32 -20 -8 -11
-21 -20 -30 -20 -9 0 -22 -9 -30 -20 -8 -11 -21 -20 -30 -20 -9 0 -22 -9 -30
-20 -8 -11 -22 -20 -32 -20 -10 0 -18 -4 -18 -10 0 -5 -9 -10 -19 -10 -11 0
-21 -3 -23 -7 -1 -5 -24 -19 -51 -32 -41 -21 -47 -28 -45 -53 2 -25 18 -42 18
-18 0 6 9 10 20 10 11 0 20 5 20 10 0 6 9 10 20 10 11 0 20 5 20 10 0 6 9 10
20 10 11 0 20 5 20 10 0 6 9 10 20 10 11 0 20 5 20 10 0 6 9 10 20 10 11 0 20
5 20 10 0 6 10 10 23 10 18 0 19 2 7 10 -13 8 -12 10 3 10 10 0 27 9 39 20 12
11 28 20 35 20 7 0 13 5 13 10 0 6 6 10 13 10 7 0 23 9 35 20 12 11 27 20 34
20 8 0 20 9 28 20 8 11 21 20 30 20 9 0 22 9 30 20 8 11 22 20 32 20 10 0 18
4 18 9 0 5 14 14 30 21 17 7 30 16 30 21 0 5 8 9 18 9 10 0 24 9 32 20 8 11
21 20 30 20 9 0 22 9 30 20 8 11 20 20 28 20 7 0 22 9 34 20 12 11 28 20 35
20 7 0 13 5 13 10 0 6 8 10 18 10 10 0 24 9 32 20 8 11 22 20 32 20 10 0 18 5
18 10 0 6 7 10 16 10 8 0 12 5 9 10 -3 6 3 10 14 10 12 0 21 5 21 10 0 6 8 10
18 10 10 0 24 9 32 20 8 11 21 20 30 20 9 0 22 9 30 20 8 11 21 20 30 20 9 0
22 9 30 20 8 11 22 20 32 20 10 0 18 5 18 10 0 6 8 10 18 10 10 0 24 9 32 20
8 11 21 20 30 20 9 0 22 9 30 20 8 11 22 20 32 20 10 0 18 5 18 10 0 6 7 10
16 10 8 0 12 5 9 10 -3 6 3 10 14 10 12 0 21 5 21 10 0 6 8 10 18 10 10 0 24
9 32 20 8 11 21 20 30 20 9 0 22 9 30 20 8 11 20 20 28 20 7 0 22 9 34 20 12
11 28 20 35 20 7 0 13 5 13 10 0 6 8 10 18 10 10 0 24 9 32 20 8 11 21 20 30
20 9 0 22 9 30 20 8 11 22 20 32 20 10 0 18 5 18 10 0 6 9 10 21 10 11 0 17 5
14 10 -3 6 1 10 9 10 9 0 16 5 16 10 0 6 8 10 18 10 10 0 24 9 32 20 8 11 21
20 30 20 9 0 22 9 30 20 8 11 22 20 32 20 10 0 18 5 18 10 0 6 8 10 18 10 10
0 24 9 32 20 8 11 21 20 30 20 9 0 22 9 30 20 8 11 21 20 30 20 9 0 22 9 30
20 8 11 22 20 32 20 10 0 18 5 18 10 0 6 10 10 23 10 18 0 19 2 7 10 -12 8
-11 10 8 10 12 0 22 5 22 10 0 6 8 10 18 10 10 0 24 9 32 20 8 11 21 20 30 20
9 0 22 9 30 20 8 11 22 20 32 20 10 0 18 5 18 10 0 6 8 10 18 10 10 0 24 9 32
20 8 11 21 20 30 20 9 0 22 9 30 20 8 11 22 20 32 20 10 0 18 5 18 10 0 6 8
10 18 10 10 0 24 9 32 20 8 11 21 20 30 20 9 0 22 9 30 20 8 11 22 20 32 20
10 0 18 5 18 10 0 6 8 10 18 10 10 0 24 9 32 20 8 11 21 20 30 20 9 0 22 9 30
20 8 11 21 20 30 20 9 0 22 9 30 20 8 11 22 20 32 20 10 0 18 5 18 10 0 6 8
10 18 10 10 0 24 9 32 20 8 11 22 20 32 20 10 0 18 5 18 10 0 6 8 10 18 10 10
0 24 9 32 20 8 11 21 20 30 20 9 0 22 9 30 20 8 11 22 20 32 20 10 0 18 5 18
10 0 6 9 10 20 10 11 0 20 7 20 15 0 27 44 62 78 63 24 0 42 11 71 41 26 27
48 41 65 41 14 0 26 5 26 10 0 6 7 10 15 10 19 0 165 144 165 163 0 7 9 19 20
27 11 8 20 22 20 32 0 10 5 18 10 18 6 0 10 9 10 20 0 11 5 20 10 20 6 0 10
14 10 30 0 17 5 30 10 30 6 0 10 23 10 50 0 28 -4 50 -10 50 -5 0 -10 -4 -10
-10z"/>
<path d="M13540 11830 c0 -5 -9 -10 -20 -10 -11 0 -20 -4 -20 -10 0 -5 -7 -10
-16 -10 -9 0 -30 -15 -47 -32 -19 -21 -32 -28 -34 -20 -5 14 -43 17 -43 2 0
-5 -7 -10 -16 -10 -9 0 -29 -13 -44 -30 -15 -16 -34 -30 -42 -30 -7 0 -20 -9
-28 -20 -8 -11 -21 -20 -30 -20 -9 0 -22 -9 -30 -20 -8 -11 -22 -20 -32 -20
-10 0 -18 -4 -18 -10 0 -5 -8 -10 -18 -10 -10 0 -24 -9 -32 -20 -8 -11 -21
-20 -30 -20 -9 0 -22 -9 -30 -20 -8 -11 -21 -20 -30 -20 -9 0 -22 -9 -30 -20
-8 -11 -21 -20 -30 -20 -9 0 -22 -9 -30 -20 -8 -11 -21 -20 -30 -20 -9 0 -22
-9 -30 -20 -8 -11 -22 -20 -32 -20 -10 0 -18 -4 -18 -10 0 -5 -9 -10 -21 -10
-11 0 -17 -4 -14 -10 3 -5 -1 -10 -9 -10 -9 0 -16 -4 -16 -10 0 -5 -8 -10 -18
-10 -10 0 -24 -9 -32 -20 -8 -11 -21 -20 -30 -20 -9 0 -22 -9 -30 -20 -8 -11
-21 -20 -30 -20 -9 0 -22 -9 -30 -20 -8 -11 -22 -20 -31 -20 -10 0 -19 -4 -21
-9 -1 -5 -10 -11 -18 -13 -8 -2 -22 -11 -31 -20 -9 -10 -23 -18 -30 -18 -8 0
-21 -9 -29 -20 -8 -11 -21 -20 -30 -20 -9 0 -22 -9 -30 -20 -8 -11 -20 -20
-28 -20 -7 0 -22 -9 -34 -20 -12 -11 -28 -20 -35 -20 -7 0 -13 -4 -13 -10 0
-5 -8 -10 -18 -10 -10 0 -24 -9 -32 -20 -8 -11 -21 -20 -30 -20 -9 0 -22 -9
-30 -20 -8 -11 -21 -20 -30 -20 -9 0 -22 -9 -30 -20 -8 -11 -22 -20 -32 -20
-10 0 -18 -4 -18 -10 0 -5 -6 -10 -13 -10 -7 0 -23 -9 -35 -20 -12 -11 -27
-20 -34 -20 -8 0 -20 -9 -28 -20 -8 -11 -21 -20 -30 -20 -9 0 -22 -9 -30 -20
-8 -11 -21 -20 -30 -20 -9 0 -22 -9 -30 -20 -8 -11 -22 -20 -32 -20 -10 0 -18
-4 -18 -10 0 -5 -6 -10 -13 -10 -7 0 -23 -9 -35 -20 -12 -11 -27 -20 -34 -20
-8 0 -20 -9 -28 -20 -8 -11 -21 -20 -30 -20 -9 0 -22 -9 -30 -20 -8 -11 -22
-20 -32 -20 -10 0 -18 -4 -18 -10 0 -5 -6 -10 -13 -10 -7 0 -24 -10 -36 -21
-13 -12 -26 -18 -30 -13 -17 24 -81 -16 -81 -51 0 -21 9 -19 31 7 11 11 21 19
24 16 9 -9 -7 -38 -20 -38 -7 0 -15 -6 -18 -12 -3 -9 -10 -7 -22 7 -14 17 -16
17 -11 3 4 -14 0 -18 -17 -18 -12 0 -29 -9 -37 -20 -8 -11 -21 -20 -30 -20 -9
0 -22 -9 -30 -20 -8 -11 -22 -20 -32 -20 -10 0 -18 -4 -18 -10 0 -5 -8 -10
-18 -10 -10 0 -24 -9 -32 -20 -8 -11 -21 -20 -30 -20 -9 0 -22 -9 -30 -20 -8
-11 -21 -20 -30 -20 -9 0 -22 -9 -30 -20 -8 -11 -21 -20 -30 -20 -9 0 -22 -9
-30 -20 -8 -11 -22 -20 -31 -20 -10 0 -19 -4 -21 -9 -1 -4 -19 -11 -39 -15
-27 -5 -41 -2 -57 13 -12 10 -22 23 -22 29 0 10 -30 26 -37 19 -8 -8 10 -37
23 -37 8 0 14 -9 14 -20 0 -11 5 -20 10 -20 15 0 12 -29 -4 -46 -8 -8 -21 -14
-28 -14 -8 0 -20 -9 -28 -20 -8 -11 -22 -20 -32 -20 -10 0 -18 -4 -18 -10 0
-5 -8 -10 -18 -10 -10 0 -24 -9 -32 -20 -8 -11 -21 -20 -30 -20 -9 0 -22 -9
-30 -20 -8 -11 -21 -20 -30 -20 -9 0 -22 9 -30 20 -8 11 -25 20 -38 20 -35 0
-59 27 -44 51 16 25 15 29 -8 29 -13 0 -20 7 -20 20 0 11 -4 20 -10 20 -5 0
-10 7 -10 16 0 8 -18 33 -40 54 -22 21 -40 44 -40 50 0 6 -4 8 -10 5 -5 -3
-10 3 -10 14 0 12 -4 21 -10 21 -5 0 -10 7 -10 16 0 8 -4 12 -10 9 -5 -3 -10
2 -10 12 0 10 -9 25 -20 33 -11 8 -20 20 -20 27 0 7 -4 13 -10 13 -5 0 -10 11
-10 25 0 14 -4 25 -10 25 -5 0 -10 9 -10 20 0 11 -4 20 -10 20 -5 0 -10 10
-10 23 l-1 22 -19 -24 c-28 -33 -25 -66 10 -103 30 -31 39 -58 20 -58 -5 0
-10 -7 -10 -16 0 -9 -9 -18 -20 -21 -11 -3 -20 -9 -20 -14 0 -5 9 -9 20 -9 11
0 20 5 20 10 0 6 7 10 15 10 8 0 15 -4 15 -10 0 -5 5 -10 11 -10 15 0 39 -26
39 -42 0 -7 10 -18 23 -23 12 -6 26 -24 32 -42 5 -18 13 -33 17 -33 4 0 8 -8
8 -19 0 -10 9 -21 20 -24 15 -4 20 -14 20 -37 0 -23 9 -40 30 -60 18 -17 30
-38 30 -54 0 -14 5 -26 10 -26 6 0 10 -7 10 -16 0 -9 8 -24 18 -33 9 -9 19
-27 20 -41 2 -14 8 -26 13 -28 5 -2 9 -12 9 -23 0 -10 5 -19 10 -19 6 0 10 -9
10 -20 0 -11 5 -20 10 -20 6 0 10 -16 10 -35 0 -19 6 -44 12 -55 10 -16 10
-24 0 -40 -6 -11 -12 -36 -12 -55 0 -28 4 -35 19 -35 11 0 21 6 24 13 2 6 8 9
12 5 11 -10 -35 -49 -48 -41 -6 3 -7 1 -3 -5 4 -7 1 -12 -8 -12 -9 0 -16 -9
-16 -20 0 -11 -4 -20 -10 -20 -5 0 -10 -9 -10 -20 0 -11 -4 -20 -10 -20 -5 0
-10 -13 -10 -30 0 -29 2 -30 46 -30 66 0 93 32 57 68 -12 12 -18 13 -21 4 -7
-23 -23 -12 -20 16 3 24 7 27 47 30 29 2 51 10 62 23 9 10 24 19 33 19 10 0
14 5 11 10 -3 6 1 10 9 10 9 0 16 5 16 10 0 6 13 10 28 10 16 0 34 8 42 20 9
13 21 18 36 14 19 -5 22 -3 17 15 -3 12 -9 24 -14 27 -5 3 -9 14 -9 25 0 25
-12 24 -30 -1 -17 -24 -50 -27 -50 -4 0 8 -22 37 -49 63 -27 27 -50 54 -51 62
-5 36 1 59 16 59 12 0 15 7 12 25 -3 13 -1 22 3 19 5 -3 9 0 9 5 0 6 -9 11
-20 11 -11 0 -20 -4 -20 -10 0 -15 -49 -12 -66 4 -20 20 -18 46 4 46 10 0 24
9 32 20 8 11 21 20 30 20 9 0 22 9 30 20 8 11 21 20 30 20 9 0 22 9 30 20 8
11 22 20 32 20 10 0 18 5 18 10 0 6 7 10 15 10 8 0 15 5 15 10 0 6 7 10 15 10
8 0 15 5 15 10 0 6 9 10 20 10 11 0 20 5 20 10 0 6 7 10 16 10 9 0 29 14 44
30 15 17 34 30 42 30 7 0 20 9 28 20 8 11 22 20 32 20 10 0 18 4 18 9 0 5 14
14 30 21 17 7 30 16 30 21 0 5 8 9 18 9 10 0 24 9 32 20 8 11 21 20 30 20 9 0
22 9 30 20 8 11 21 20 30 20 9 0 22 9 30 20 8 11 22 20 32 20 10 0 18 5 18 10
0 6 8 10 18 10 10 0 24 9 32 20 8 11 21 20 30 20 9 0 22 9 30 20 8 11 21 20
30 20 9 0 22 9 30 20 8 11 21 20 30 20 9 0 22 9 30 20 8 11 22 20 32 20 10 0
18 5 18 10 0 6 8 10 18 10 10 0 24 9 32 20 8 11 21 20 30 20 9 0 22 9 30 20 8
11 21 20 30 20 9 0 22 9 30 20 8 11 22 20 32 20 10 0 18 5 18 10 0 6 8 10 18
10 10 0 24 9 32 20 8 11 21 20 30 20 9 0 22 9 30 20 8 11 21 20 30 20 9 0 22
9 30 20 8 11 22 20 32 20 10 0 18 5 18 10 0 6 7 10 15 10 8 0 15 5 15 10 0 6
7 10 15 10 8 0 15 5 15 10 0 6 8 10 18 10 10 0 24 9 32 20 8 11 21 20 30 20 9
0 22 9 30 20 8 11 22 20 32 20 10 0 18 5 18 10 0 6 8 10 18 10 10 0 24 9 32
20 8 11 21 20 30 20 9 0 22 9 30 20 8 11 21 20 30 20 9 0 22 9 30 20 8 11 21
20 30 20 9 0 22 9 30 20 8 11 22 20 32 20 10 0 18 5 18 10 0 6 8 10 18 10 10
0 24 9 32 20 8 11 21 20 30 20 9 0 22 9 30 20 8 11 22 20 32 20 10 0 18 4 18
9 0 5 14 14 30 21 17 7 30 16 30 21 0 5 8 9 18 9 10 0 24 9 32 20 8 11 21 20
30 20 9 0 22 9 30 20 8 11 21 20 30 20 9 0 22 9 30 20 8 11 22 20 32 20 10 0
18 5 18 10 0 6 8 10 18 10 10 0 24 9 32 20 8 11 21 20 30 20 9 0 22 9 30 20 8
11 21 20 30 20 9 0 22 9 30 20 8 11 21 20 30 20 9 0 22 9 30 20 8 11 22 20 32
20 10 0 18 5 18 10 0 6 8 10 18 10 10 0 24 9 32 20 8 11 22 20 32 20 10 0 18
5 18 10 0 6 8 10 18 10 10 0 24 9 32 20 8 11 22 20 32 20 10 0 18 5 18 10 0
15 68 12 73 -2 4 -10 7 -10 18 0 7 6 21 12 30 12 10 0 20 6 23 13 5 10 7 10
12 0 3 -7 14 -13 25 -13 27 0 26 51 -1 70 -11 8 -20 22 -20 32 0 24 -9 23 -31
-4 -11 -11 -22 -18 -27 -13 -4 4 -1 10 6 12 14 6 16 23 2 23 -5 0 -10 -4 -10
-10z"/>
<path d="M14613 11763 c-7 -3 -13 -13 -13 -24 0 -10 -4 -19 -10 -19 -5 0 -10
-8 -10 -18 0 -10 -9 -24 -20 -32 -11 -8 -20 -22 -20 -32 0 -10 -4 -18 -10 -18
-5 0 -10 -9 -10 -20 0 -11 5 -20 10 -20 6 0 10 9 10 20 0 11 5 20 10 20 6 0
10 9 10 20 0 14 7 20 21 20 11 0 18 4 15 9 -6 8 26 51 38 51 3 0 6 -22 6 -50
0 -27 -4 -50 -10 -50 -5 0 -10 -7 -10 -16 0 -18 -17 -37 -42 -47 -25 -9 -23
-37 2 -37 12 0 20 7 20 16 0 8 6 22 14 30 23 23 46 17 46 -12 0 -14 -4 -23 -8
-20 -4 2 -9 -4 -9 -15 -1 -10 2 -19 8 -19 5 0 9 7 9 15 0 8 5 15 10 15 6 0 10
6 10 14 0 8 4 16 8 18 22 9 55 73 54 104 -1 18 3 36 8 39 18 11 11 35 -10 35
-11 0 -20 -4 -20 -10 0 -5 -9 -10 -20 -10 -11 0 -20 5 -20 10 0 6 -7 10 -16
10 -9 0 -22 6 -28 14 -6 7 -17 12 -23 9z"/>
<path d="M13620 11620 c0 -11 5 -20 10 -20 6 0 10 -9 10 -20 0 -13 7 -20 20
-20 13 0 20 -7 20 -20 0 -16 7 -20 30 -20 23 0 30 -5 30 -19 0 -27 15 -34 34
-16 8 8 19 15 23 14 32 -5 43 3 43 31 0 35 -10 38 -30 10 -8 -11 -24 -20 -35
-19 -20 0 -20 0 0 9 17 7 17 9 3 9 -24 1 -23 33 2 51 21 15 28 50 9 50 -5 0
-7 -4 -4 -10 3 -6 -5 -10 -19 -10 -13 0 -27 6 -29 13 -4 9 -8 8 -16 -3 -10
-13 -12 -13 -21 0 -9 13 -11 13 -20 0 -6 -10 -10 -11 -10 -2 0 6 -11 12 -25
12 -18 0 -25 -5 -25 -20z"/>
<path d="M9840 11430 c0 -5 -9 -10 -20 -10 -11 0 -20 -4 -20 -10 0 -5 -8 -10
-18 -10 -10 0 -24 -9 -32 -20 -8 -11 -20 -20 -28 -20 -19 0 -69 -53 -54 -58 7
-2 12 -12 12 -23 0 -27 51 -26 70 1 8 11 21 20 29 20 7 0 21 8 30 18 9 9 27
23 40 30 19 11 25 11 32 1 4 -7 5 -17 2 -23 -3 -5 -1 -6 5 -2 15 9 16 56 2 56
-5 0 -10 7 -10 16 0 15 -23 44 -34 44 -3 0 -6 -4 -6 -10z"/>
<path d="M9140 11382 c0 -10 9 -24 20 -32 11 -8 20 -22 20 -32 0 -10 5 -18 10
-18 6 0 10 -9 10 -20 0 -11 5 -20 10 -20 21 0 9 -53 -17 -79 -33 -31 -53 -64
-53 -86 0 -8 -4 -15 -10 -15 -15 0 -12 -70 4 -86 8 -8 22 -14 30 -14 9 0 16
-4 16 -10 0 -5 18 -10 40 -10 22 0 40 5 40 10 0 6 9 10 20 10 11 0 20 5 20 10
0 6 14 10 30 10 17 0 30 5 30 10 0 6 9 10 20 10 11 0 20 5 20 10 0 6 8 10 18
10 10 0 24 9 32 20 8 11 20 20 27 20 19 0 123 106 123 125 0 8 5 15 10 15 16
0 12 89 -4 106 -8 8 -34 14 -59 14 -27 0 -48 5 -51 13 -5 10 -7 10 -12 0 -3
-7 -19 -13 -35 -13 -16 0 -29 -4 -29 -10 0 -5 -8 -10 -19 -10 -22 0 -33 -41
-24 -93 9 -58 -37 -89 -67 -47 -8 11 -22 20 -32 20 -13 0 -18 8 -18 28 0 16
-8 34 -20 42 -11 8 -20 21 -20 30 0 9 -9 22 -20 30 -11 8 -20 20 -20 28 0 13
-23 42 -34 42 -3 0 -6 -8 -6 -18z"/>
<path d="M12720 11084 c0 -9 -10 -25 -21 -35 -23 -20 -20 -49 6 -49 21 0 19
-7 -10 -35 -29 -30 -35 -31 -35 -5 0 11 -5 20 -11 20 -6 0 -9 6 -6 14 4 10 -2
12 -26 7 -41 -9 -46 -33 -10 -52 34 -17 73 -54 73 -69 0 -15 -22 -52 -42 -71
-26 -23 -24 -69 2 -69 11 0 20 5 20 10 0 6 9 10 20 10 11 0 20 7 20 15 0 9 11
27 25 41 14 14 23 30 20 35 -4 5 8 9 24 9 17 0 31 5 31 10 0 6 16 10 35 10 43
0 98 45 74 61 -26 17 -63 23 -67 11 -5 -15 -42 -16 -42 -2 0 18 -35 11 -50
-10 -13 -18 -50 -29 -50 -14 0 11 29 34 44 34 13 0 16 13 16 66 0 41 4 63 10
59 6 -3 10 -1 10 4 0 6 -13 11 -30 11 -21 0 -30 -5 -30 -16z"/>
<path d="M8640 11072 c0 -4 9 -14 20 -22 11 -8 20 -22 20 -32 0 -10 5 -18 10
-18 6 0 10 -7 10 -16 0 -9 14 -29 30 -44 18 -17 30 -38 30 -54 0 -14 5 -26 10
-26 16 0 11 -50 -7 -68 -12 -12 -18 -13 -21 -4 -2 6 -10 12 -19 12 -19 0 -75
59 -67 71 3 5 0 9 -5 9 -6 0 -11 8 -11 18 0 10 -9 24 -20 32 -11 8 -20 22 -20
32 0 10 -7 18 -15 18 -8 0 -15 -4 -15 -9 0 -5 7 -16 15 -25 8 -8 15 -20 15
-27 0 -6 10 -20 22 -31 14 -12 18 -22 12 -26 -6 -4 -13 -15 -17 -24 -3 -10
-13 -18 -22 -18 -8 0 -15 -9 -15 -21 0 -11 -4 -17 -10 -14 -6 4 -10 -5 -10
-19 0 -14 -4 -26 -10 -26 -5 0 -10 -13 -10 -29 0 -16 -6 -32 -12 -35 -10 -5
-10 -7 0 -12 6 -3 12 -19 12 -35 0 -27 2 -29 40 -29 22 0 40 -4 40 -10 0 -5
-4 -10 -10 -10 -5 0 -10 -4 -10 -10 0 -5 9 -10 20 -10 12 0 20 7 20 16 0 23
25 44 54 44 14 0 26 5 26 10 0 6 9 10 20 10 11 0 20 5 20 10 0 6 9 10 20 10
11 0 20 5 20 10 0 6 8 10 18 10 10 0 24 9 32 20 8 11 21 20 28 20 7 0 31 18
52 40 21 22 46 40 54 40 9 0 16 5 16 10 0 6 9 10 20 10 11 0 20 5 20 10 0 6
-4 10 -10 10 -6 0 -10 27 -10 60 l0 60 -30 0 c-16 0 -30 5 -30 10 0 6 -18 10
-40 10 -22 0 -40 -4 -40 -10 0 -5 -18 -10 -39 -10 -22 0 -42 -6 -45 -12 -5
-10 -7 -10 -12 0 -3 6 -12 12 -21 12 -17 0 -33 16 -52 53 -8 15 -18 27 -23 27
-4 0 -8 9 -8 20 0 13 -7 20 -20 20 -11 0 -20 -4 -20 -8z"/>
<path d="M9536 10869 c-35 -36 -85 -40 -93 -9 -7 27 -37 22 -41 -7 -2 -15 9
-34 32 -58 39 -39 66 -45 66 -15 0 11 5 20 10 20 6 0 10 -4 10 -10 0 -5 14
-10 30 -10 17 0 30 5 30 10 0 6 6 10 13 10 19 0 69 47 58 55 -6 3 -11 15 -11
26 0 32 -68 25 -104 -12z"/>
<path d="M8060 10694 c0 -3 7 -12 15 -21 8 -8 13 -19 10 -24 -4 -5 -1 -9 4 -9
6 0 11 -8 11 -18 0 -10 9 -24 20 -32 11 -8 20 -22 20 -32 0 -11 7 -18 20 -18
16 0 20 -7 21 -32 3 -80 -7 -132 -18 -100 -3 6 -17 12 -32 12 -15 0 -33 9 -41
20 -8 11 -25 20 -38 20 -26 0 -92 -61 -92 -85 0 -8 -4 -15 -10 -15 -6 0 -10
-27 -10 -60 0 -33 4 -60 10 -60 6 0 10 -9 10 -20 0 -11 5 -20 10 -20 6 0 10 5
10 10 0 6 18 10 40 10 22 0 40 5 40 10 0 6 18 10 40 10 22 0 40 5 40 10 0 6 8
10 18 10 10 0 24 9 32 20 8 11 22 20 32 20 10 0 18 5 18 10 0 6 7 10 16 10 8
0 42 27 74 60 54 55 90 75 90 50 0 -5 9 -10 20 -10 16 0 20 7 20 30 0 23 -4
30 -20 30 -23 0 -28 34 -7 44 10 5 10 7 0 12 -7 3 -13 14 -13 25 0 12 -7 19
-20 19 -11 0 -20 5 -20 10 0 6 -30 10 -70 10 -40 0 -70 -4 -70 -10 0 -5 -9
-10 -20 -10 -11 0 -20 -4 -20 -10 0 -5 -9 -10 -21 -10 -11 0 -17 5 -14 10 3 6
-1 10 -9 10 -9 0 -16 8 -16 18 0 10 -9 24 -20 32 -11 8 -20 20 -20 28 0 7 -6
20 -14 28 -15 15 -26 18 -26 8z"/>
<path d="M9010 10622 c-10 -11 -11 -17 -2 -20 7 -2 12 -21 12 -43 0 -32 -3
-39 -20 -39 -11 0 -20 -4 -20 -10 0 -5 -8 -10 -18 -10 -10 0 -24 -9 -32 -20
-16 -22 -50 -27 -50 -7 0 8 -4 7 -10 -3 -6 -10 -10 -11 -10 -2 0 7 -13 12 -30
12 -16 0 -30 -4 -30 -10 0 -5 5 -10 10 -10 6 0 10 -9 10 -20 0 -16 7 -20 34
-20 23 0 36 -6 41 -17 3 -10 1 -19 -4 -21 -24 -8 -9 -22 23 -22 48 0 66 9 66
32 0 11 6 26 14 34 17 16 46 19 46 4 0 -5 9 -10 20 -10 52 0 -4 -74 -64 -85
-21 -4 -36 -13 -36 -21 0 -8 -4 -14 -10 -14 -5 0 -10 -4 -10 -10 0 -5 17 -10
38 -10 26 0 42 6 52 20 8 11 20 20 28 20 18 0 62 46 62 65 0 8 -4 15 -10 15
-5 0 -10 7 -10 15 0 8 -4 15 -10 15 -23 0 -7 41 30 76 47 44 49 56 15 89 -26
27 -50 32 -59 13 -5 -10 -7 -10 -12 0 -11 24 -38 31 -54 14z"/>
<path d="M8433 10245 c-16 -18 -17 -42 -2 -51 7 -4 -5 -21 -31 -45 -23 -22
-45 -39 -49 -39 -3 0 -12 -9 -19 -20 -11 -18 -9 -24 13 -46 14 -14 25 -20 25
-14 0 5 9 10 20 10 29 0 70 44 70 75 0 14 5 25 10 25 6 0 10 23 10 50 0 29 -5
50 -11 50 -5 0 -7 5 -4 10 9 15 -18 11 -32 -5z"/>
<path d="M7900 10190 c0 -5 -8 -10 -18 -10 -10 0 -24 -9 -32 -20 -8 -11 -21
-20 -30 -20 -9 0 -22 -9 -30 -20 -8 -11 -21 -20 -30 -20 -9 0 -22 -9 -30 -20
-8 -11 -21 -20 -30 -20 -9 0 -22 -9 -30 -20 -8 -11 -22 -20 -32 -20 -10 0 -18
-4 -18 -10 0 -5 -7 -10 -16 -10 -8 0 -12 -4 -9 -10 3 -5 -3 -10 -14 -10 -12 0
-21 -4 -21 -10 0 -5 -8 -10 -18 -10 -10 0 -24 -9 -32 -20 -8 -11 -21 -20 -30
-20 -9 0 -22 -9 -30 -20 -8 -11 -22 -20 -32 -20 -10 0 -18 -4 -18 -10 0 -5 -8
-10 -18 -10 -10 0 -24 -9 -32 -20 -8 -11 -21 -20 -30 -20 -9 0 -22 -9 -30 -20
-8 -11 -21 -20 -30 -20 -9 0 -22 -9 -30 -20 -8 -11 -21 -20 -30 -20 -9 0 -22
-9 -30 -20 -8 -11 -21 -20 -30 -20 -9 0 -22 -9 -30 -20 -8 -11 -20 -20 -28
-20 -7 0 -22 -9 -34 -20 -12 -11 -28 -20 -35 -20 -7 0 -13 -4 -13 -10 0 -5 -8
-10 -18 -10 -10 0 -24 -9 -32 -20 -8 -11 -22 -20 -32 -20 -10 0 -18 -4 -18
-10 0 -5 -7 -10 -16 -10 -8 0 -12 -4 -9 -10 3 -5 -2 -10 -12 -10 -10 0 -25 -9
-33 -20 -8 -11 -20 -20 -28 -20 -7 0 -22 -9 -34 -20 -12 -11 -28 -20 -35 -20
-7 0 -13 -4 -13 -10 0 -5 -8 -10 -18 -10 -10 0 -24 -9 -32 -20 -8 -11 -22 -20
-32 -20 -10 0 -18 -4 -18 -10 0 -5 -8 -10 -18 -10 -10 0 -24 -9 -32 -20 -8
-11 -20 -20 -28 -20 -13 0 -42 -23 -42 -34 0 -3 9 -6 20 -6 11 0 20 -4 20 -10
0 -5 -10 -10 -22 -10 -19 0 -20 -2 -8 -10 12 -8 9 -10 -13 -10 -19 0 -39 -10
-57 -30 -15 -16 -33 -30 -40 -30 -6 0 -8 -4 -5 -10 3 -5 -2 -10 -12 -10 -10 0
-25 -9 -33 -20 -8 -11 -21 -20 -28 -20 -7 0 -31 -18 -52 -40 -21 -22 -43 -40
-50 -40 -6 0 -51 -40 -100 -90 -49 -49 -94 -90 -100 -90 -16 0 -83 -70 -75
-78 4 -4 10 -1 12 6 3 6 12 12 22 12 9 0 23 9 31 20 8 11 21 20 28 20 8 0 27
14 42 30 15 17 33 30 39 30 6 0 11 5 11 10 0 6 5 10 11 10 6 0 24 14 40 31 16
17 29 26 29 19 0 -7 13 2 29 19 16 17 34 31 41 31 7 0 25 14 40 30 15 17 35
30 44 30 9 0 16 5 16 10 0 6 9 10 20 10 11 0 20 5 20 10 0 6 7 10 16 10 8 0
12 5 9 10 -3 6 2 10 12 10 10 0 25 9 33 20 8 11 22 20 32 20 10 0 18 5 18 10
0 6 7 10 16 10 8 0 21 6 28 13 14 14 17 47 4 47 -4 0 -8 5 -8 10 0 6 12 10 26
10 17 0 39 14 64 40 21 22 46 40 54 40 9 0 16 5 16 10 0 6 8 10 18 10 10 0 24
9 32 20 8 11 22 20 32 20 10 0 18 5 18 10 0 6 6 10 13 10 7 0 23 9 35 20 12
11 28 20 37 20 8 0 15 5 15 10 0 6 8 10 18 10 10 0 24 9 32 20 8 11 21 20 30
20 9 0 22 9 30 20 8 11 21 20 30 20 9 0 22 9 30 20 8 11 22 20 32 20 10 0 18
5 18 10 0 6 6 10 14 10 7 0 27 14 44 30 18 17 39 30 47 30 8 0 15 5 15 10 0 6
8 10 18 10 10 0 24 9 32 20 8 11 22 20 32 20 10 0 18 5 18 10 0 6 9 10 20 10
11 0 20 5 20 10 0 6 7 10 16 10 9 0 29 14 44 30 15 17 35 30 44 30 9 0 16 5
16 10 0 6 8 10 18 10 10 0 24 9 32 20 8 11 23 20 33 20 10 0 15 5 12 10 -3 6
1 10 9 10 9 0 16 5 16 10 0 6 9 10 20 10 11 0 20 5 20 10 0 6 8 10 18 10 10 0
24 9 32 20 8 11 21 20 30 20 9 0 22 9 30 20 8 11 21 20 30 20 9 0 22 9 30 20
8 11 20 20 28 20 18 0 62 46 62 65 0 9 -4 14 -9 10 -5 -3 -16 2 -24 10 -18 17
-27 19 -27 5z"/>
<path d="M9773 9985 c-7 -8 -13 -21 -13 -30 0 -8 -4 -15 -10 -15 -5 0 -10 -9
-10 -19 0 -27 -15 -34 -33 -16 -9 8 -27 15 -41 15 -17 0 -26 6 -26 16 0 8 -4
12 -10 9 -5 -3 -10 -1 -10 4 0 6 -4 11 -10 11 -5 0 -10 -9 -10 -20 0 -13 7
-20 20 -20 12 0 20 -7 20 -16 0 -18 23 -44 39 -44 6 0 11 -4 11 -8 0 -5 9 -19
20 -32 17 -20 21 -21 35 -7 8 9 15 23 15 31 0 9 8 16 20 16 11 0 20 5 20 10 0
6 9 10 20 10 18 0 20 7 20 60 0 59 -1 60 -27 60 -16 -1 -34 -7 -40 -15z"/>
<path d="M9513 9493 c-15 -6 -17 -33 -3 -33 6 0 10 -9 10 -20 0 -11 5 -20 10
-20 6 0 10 -9 10 -20 0 -11 5 -20 10 -20 6 0 10 -9 10 -20 0 -11 5 -20 10 -20
6 0 10 -13 10 -30 0 -16 5 -30 10 -30 15 0 12 -67 -2 -74 -10 -5 -10 -7 -1
-12 16 -7 -8 -34 -31 -34 -9 0 -16 -5 -16 -12 0 -6 3 -9 6 -5 7 7 23 -9 41
-39 9 -17 8 -23 -8 -35 -10 -7 -19 -21 -19 -31 0 -20 -16 -24 -22 -6 -7 19
-38 -16 -38 -41 0 -12 -6 -21 -16 -21 -8 0 -13 -4 -10 -9 4 -5 -3 -7 -14 -4
-11 3 -20 12 -20 20 0 8 -22 36 -50 63 -27 27 -50 54 -50 60 0 17 -30 44 -38
35 -4 -4 -1 -10 6 -12 6 -3 12 -13 12 -24 0 -10 5 -19 10 -19 6 0 10 -9 10
-20 0 -11 5 -20 10 -20 6 0 10 -8 10 -18 0 -10 9 -24 20 -32 11 -8 20 -20 20
-28 0 -18 25 -42 44 -42 20 0 21 -27 2 -46 -21 -21 -26 -18 -26 16 0 21 -5 30
-16 30 -20 0 -44 24 -44 44 0 9 -4 16 -10 16 -5 0 -10 6 -10 13 0 7 -9 23 -20
35 -11 12 -20 28 -20 37 0 8 -4 15 -8 15 -5 0 -15 12 -23 28 -8 15 -22 34 -31
43 -10 9 -18 24 -18 33 0 9 -4 16 -10 16 -5 0 -10 9 -10 20 0 11 -4 20 -10 20
-5 0 -10 8 -10 18 0 10 -9 24 -20 32 -11 8 -20 20 -20 28 0 16 -45 62 -61 62
-7 0 -9 3 -6 6 6 6 -49 64 -60 64 -8 0 9 -44 22 -57 7 -6 15 -9 19 -6 3 4 6 0
6 -8 0 -8 9 -21 20 -29 11 -8 20 -22 20 -32 0 -10 5 -18 10 -18 6 0 10 -13 10
-30 0 -23 -4 -30 -20 -30 -11 0 -20 -4 -20 -10 0 -5 -9 -10 -20 -10 -18 0 -20
-6 -18 -39 1 -22 5 -38 10 -35 4 3 8 10 8 15 0 5 16 25 35 44 37 38 72 45 81
18 3 -10 10 -26 15 -35 5 -10 9 -24 9 -32 0 -8 6 -16 13 -19 8 -3 5 -11 -10
-24 -13 -12 -23 -32 -23 -47 0 -25 3 -27 33 -26 58 3 67 1 67 -20 0 -11 5 -20
10 -20 6 0 10 -14 10 -31 0 -17 4 -28 10 -24 6 3 10 -1 10 -9 0 -9 9 -16 20
-16 13 0 20 -7 20 -20 0 -13 7 -20 20 -20 11 0 20 -7 20 -15 0 -23 -46 -65
-70 -65 -12 0 -28 -7 -36 -15 -13 -13 -11 -18 15 -45 27 -29 30 -30 46 -14 10
10 20 13 23 8 4 -5 24 -11 45 -13 36 -2 37 -1 37 29 0 25 -4 31 -15 26 -8 -3
-22 -9 -30 -12 -10 -4 -15 0 -15 11 0 26 26 45 62 45 41 0 58 15 58 52 0 15 5
28 10 28 6 0 10 18 10 41 0 23 7 47 15 55 8 9 15 14 16 12 0 -2 2 -11 4 -21 6
-30 14 -32 34 -9 26 30 71 26 71 -6 0 -13 -4 -20 -10 -17 -6 4 -10 -7 -10 -24
0 -17 -4 -31 -10 -31 -5 0 -10 -4 -10 -10 0 -5 9 -10 20 -10 13 0 20 7 20 20
0 13 7 20 20 20 13 0 20 7 20 20 0 11 -4 20 -10 20 -5 0 -10 9 -10 20 0 13 7
20 20 20 14 0 20 7 20 21 0 11 4 18 8 15 4 -2 9 9 10 26 2 21 17 44 55 81 30
29 47 52 39 55 -14 4 -17 62 -2 62 15 0 12 49 -4 66 -17 16 -66 19 -66 4 0 -5
-13 -10 -30 -10 -16 0 -30 5 -30 10 0 6 -11 10 -25 10 -26 0 -115 78 -115 100
0 6 -4 8 -10 5 -5 -3 -10 1 -10 10 0 14 -23 46 -32 44 -2 0 -9 -3 -15 -6z"/>
<path d="M8660 9270 c0 -5 5 -10 10 -10 6 0 10 -8 10 -18 0 -10 9 -24 20 -32
11 -8 20 -22 20 -32 0 -10 5 -18 11 -18 7 0 10 -15 7 -40 -2 -28 0 -40 9 -40
7 0 13 -6 13 -13 0 -7 9 -23 20 -35 11 -12 20 -28 20 -37 0 -9 5 -13 10 -10 6
3 10 1 10 -5 0 -7 14 -25 30 -40 17 -15 30 -35 30 -44 0 -9 5 -16 10 -16 6 0
10 -22 10 -50 0 -54 7 -61 30 -30 15 21 70 28 70 10 0 -5 5 -10 10 -10 6 0 10
9 10 20 0 11 -4 20 -10 20 -5 0 -10 9 -10 20 0 11 -7 20 -15 20 -21 0 -65 45
-65 65 0 9 -4 13 -10 10 -5 -3 -10 0 -10 7 0 8 -9 20 -20 28 -11 8 -20 21 -20
29 0 17 -40 52 -51 45 -5 -3 -9 9 -9 26 0 18 -4 29 -10 25 -5 -3 -10 1 -10 9
0 9 -4 16 -10 16 -5 0 -10 8 -10 18 0 10 -9 24 -20 32 -11 8 -20 20 -20 28 0
12 -43 62 -55 62 -3 0 -5 -4 -5 -10z"/>
<path d="M10260 9256 c0 -8 -6 -17 -12 -19 -10 -4 -10 -6 0 -6 6 -1 12 -8 12
-16 0 -8 9 -15 20 -15 30 0 24 -26 -15 -65 -47 -47 -65 -46 -65 5 0 38 -13 54
-23 28 -3 -9 -11 -6 -24 10 -24 27 -33 28 -33 4 0 -10 9 -24 20 -32 12 -8 20
-26 20 -42 0 -25 4 -28 31 -28 17 0 28 -4 24 -10 -4 -6 5 -10 19 -10 14 0 26
5 26 10 0 6 7 10 15 10 29 0 65 47 65 85 0 28 -4 35 -20 35 -13 0 -20 7 -20
20 0 11 -4 20 -10 20 -5 0 -10 7 -10 15 0 8 -4 15 -10 15 -5 0 -10 -6 -10 -14z"/>
<path d="M8578 9000 c2 -22 8 -40 13 -40 5 0 9 -40 9 -89 0 -62 4 -91 13 -95
10 -5 10 -7 0 -12 -7 -3 -13 -14 -13 -25 0 -10 -4 -19 -10 -19 -5 0 -10 -7
-10 -15 0 -9 -20 -36 -45 -60 -24 -25 -51 -45 -60 -45 -8 0 -15 -4 -15 -10 0
-5 -9 -10 -20 -10 -11 0 -20 -4 -20 -10 0 -14 -38 -12 -42 2 -3 8 -14 3 -32
-15 -15 -15 -29 -27 -31 -27 -6 0 7 44 18 58 19 25 -6 11 -33 -18 -33 -35 -44
-38 -37 -10 3 13 0 20 -9 20 -8 0 -14 5 -14 10 0 6 -17 10 -38 10 -26 0 -42 6
-52 20 -8 11 -20 20 -27 20 -19 0 -103 86 -103 105 0 8 -4 15 -10 15 -5 0 -10
-11 -10 -25 0 -14 5 -25 10 -25 6 0 10 -7 10 -15 0 -8 5 -15 10 -15 6 0 10 -8
10 -18 0 -10 9 -24 19 -32 11 -7 18 -17 15 -22 -3 -4 1 -8 8 -8 8 0 20 -9 28
-20 8 -11 22 -20 32 -20 10 0 18 -4 18 -10 0 -5 13 -10 29 -10 16 0 32 -6 34
-12 4 -10 8 -9 16 2 7 10 11 11 11 3 0 -9 20 -13 65 -13 37 0 65 -4 65 -10 0
-22 34 -8 70 30 21 22 46 40 54 40 9 0 16 5 16 10 0 6 23 10 50 10 43 0 50 3
50 20 0 13 -7 20 -20 20 -11 0 -20 4 -20 8 0 4 9 14 20 22 11 8 20 22 20 32 0
10 5 18 10 18 6 0 10 18 10 40 0 22 5 40 10 40 6 0 10 30 10 70 0 40 -4 70
-10 70 -5 0 -10 9 -10 20 0 11 -4 20 -10 20 -5 0 -10 7 -10 16 0 17 -23 44
-37 44 -5 0 -7 -18 -5 -40z"/>
<path d="M6046 8996 c-10 -14 -24 -22 -32 -19 -8 3 -14 0 -14 -6 0 -6 -9 -11
-20 -11 -11 0 -20 -4 -20 -10 0 -5 -8 -10 -18 -10 -10 0 -24 -9 -32 -20 -8
-11 -21 -20 -28 -20 -8 0 -27 -13 -42 -30 -15 -16 -35 -30 -44 -30 -9 0 -16
-4 -16 -10 0 -5 -8 -10 -18 -10 -10 0 -24 -9 -32 -20 -8 -11 -21 -20 -30 -20
-9 0 -22 -9 -30 -20 -8 -11 -21 -20 -28 -20 -7 0 -31 -18 -52 -40 -21 -22 -43
-40 -49 -40 -16 0 -241 -227 -241 -243 0 -7 -9 -19 -20 -27 -11 -8 -20 -20
-20 -28 0 -7 -5 -10 -12 -6 -6 4 -8 3 -4 -4 3 -6 -1 -17 -9 -25 -8 -9 -15 -23
-15 -31 0 -9 -4 -16 -10 -16 -5 0 -10 -8 -10 -18 0 -10 -9 -24 -20 -32 -12 -8
-20 -26 -20 -42 0 -15 -4 -28 -10 -28 -5 0 -10 -9 -10 -20 0 -11 -4 -20 -10
-20 -5 0 -10 -11 -10 -25 0 -14 -4 -25 -10 -25 -5 0 -10 -11 -10 -25 0 -14 -4
-25 -10 -25 -5 0 -10 -13 -10 -30 0 -16 -4 -30 -10 -30 -5 0 -10 -18 -10 -39
0 -22 -5 -41 -12 -44 -7 -2 -10 -8 -6 -12 5 -5 16 2 27 13 10 12 24 22 30 22
21 0 41 27 41 54 0 14 5 26 10 26 6 0 10 14 10 30 0 17 5 30 10 30 6 0 10 14
10 30 0 17 5 30 10 30 6 0 10 13 10 28 0 16 8 34 20 42 11 8 20 21 20 30 0 9
9 22 20 30 11 8 20 22 20 32 0 10 5 18 10 18 6 0 10 7 10 16 0 8 17 32 38 53
20 20 38 42 40 49 3 17 189 202 203 202 6 0 24 14 39 30 15 17 34 30 42 30 7
0 20 9 28 20 9 13 26 20 48 20 38 0 62 19 62 50 0 21 61 90 80 90 19 0 61 48
47 53 -7 3 -2 6 11 6 12 1 22 5 22 10 0 5 9 13 20 16 11 3 20 13 20 21 0 8 7
14 15 14 15 0 65 42 65 55 0 13 -17 3 -34 -19z"/>
<path d="M9885 8920 c-4 -14 -10 -27 -14 -30 -13 -11 -31 -51 -31 -70 0 -12
-4 -18 -10 -15 -5 3 -10 -1 -10 -9 0 -9 -4 -16 -10 -16 -5 0 -10 -13 -10 -30
0 -23 5 -30 19 -30 12 0 20 -9 23 -24 7 -35 -3 -136 -13 -136 -5 0 -9 -9 -9
-20 0 -27 26 -25 55 5 17 16 25 35 25 60 0 19 5 35 10 35 6 0 10 20 10 45 0
25 5 45 10 45 6 0 10 25 10 55 0 30 5 55 10 55 6 0 10 -9 10 -20 0 -11 5 -20
10 -20 6 0 10 -22 10 -50 0 -27 -4 -50 -10 -50 -5 0 -10 -13 -10 -30 0 -16 -4
-30 -10 -30 -5 0 -10 -9 -10 -20 0 -11 -4 -20 -10 -20 -5 0 -10 -18 -10 -40 0
-22 5 -40 10 -40 6 0 10 9 10 20 0 16 7 20 30 20 27 0 30 3 30 30 0 17 5 30
10 30 6 0 10 7 10 16 0 9 14 29 30 44 23 21 30 37 30 64 0 29 4 36 20 36 13 0
20 7 20 20 0 11 -4 20 -9 20 -6 0 -9 9 -8 20 1 12 8 20 19 20 22 0 23 7 4 26
-10 9 -37 14 -80 14 -37 0 -66 4 -66 10 0 6 -18 10 -39 10 -23 0 -41 5 -44 13
-2 6 -7 1 -12 -13z"/>
<path d="M9660 8790 c0 -27 -4 -50 -10 -50 -5 0 -10 -9 -10 -20 0 -11 -4 -20
-10 -20 -5 0 -10 -8 -10 -18 0 -10 -9 -24 -20 -32 -11 -8 -20 -22 -20 -32 0
-10 -4 -18 -10 -18 -5 0 -10 -9 -10 -20 0 -11 -4 -20 -10 -20 -5 0 -10 -9 -10
-19 0 -11 -6 -22 -12 -25 -10 -5 -10 -7 0 -12 6 -3 12 -14 12 -25 0 -10 5 -19
10 -19 6 0 10 -9 10 -20 0 -12 7 -20 16 -20 18 0 44 23 44 40 0 6 5 8 10 5 6
-3 10 3 10 14 0 12 5 21 10 21 6 0 10 9 10 20 0 11 5 20 10 20 6 0 10 7 10 16
0 8 7 22 15 31 14 14 17 13 33 -4 9 -11 25 -22 35 -26 13 -5 17 -1 17 18 0 14
-4 25 -10 25 -5 0 -10 9 -10 20 0 11 -4 20 -10 20 -5 0 -10 14 -10 30 0 17 -4
30 -10 30 -5 0 -10 11 -10 25 0 14 -3 25 -7 25 -11 0 -33 50 -33 72 0 10 -4
18 -10 18 -5 0 -10 -22 -10 -50z"/>
<path d="M9100 8790 c0 -5 -9 -10 -20 -10 -12 0 -20 -7 -20 -16 0 -19 -68 -84
-87 -84 -7 0 -13 -4 -13 -10 0 -5 -7 -10 -15 -10 -9 0 -25 -9 -37 -20 -12 -11
-28 -20 -35 -20 -7 0 -13 -4 -13 -10 0 -5 -7 -10 -16 -10 -8 0 -12 -4 -9 -10
3 -5 -3 -10 -14 -10 -12 0 -21 -4 -21 -10 0 -5 -8 -10 -18 -10 -10 0 -24 -9
-32 -20 -8 -11 -21 -20 -30 -20 -9 0 -22 -9 -30 -20 -8 -11 -21 -20 -30 -20
-9 0 -22 -9 -30 -20 -8 -11 -25 -20 -38 -20 -14 0 -36 -13 -52 -30 -15 -16
-34 -30 -42 -30 -7 0 -20 -9 -28 -20 -8 -11 -22 -20 -32 -20 -10 0 -18 -4 -18
-10 0 -5 -6 -10 -13 -10 -7 0 -23 -9 -35 -20 -12 -11 -27 -20 -34 -20 -8 0
-20 -9 -28 -20 -8 -11 -20 -20 -28 -20 -7 0 -22 -9 -34 -20 -12 -11 -28 -20
-35 -20 -7 0 -13 -4 -13 -10 0 -5 -8 -10 -18 -10 -10 0 -24 -9 -32 -20 -8 -11
-22 -20 -32 -20 -10 0 -18 -4 -18 -10 0 -5 -10 -10 -22 -10 -19 0 -20 -2 -8
-10 12 -8 11 -10 -7 -10 -13 0 -23 -4 -23 -10 0 -5 -6 -10 -13 -10 -7 0 -23
-9 -35 -20 -12 -11 -27 -20 -34 -20 -8 0 -20 -9 -28 -20 -8 -11 -21 -20 -29
-20 -7 0 -22 -10 -32 -22 -11 -11 -19 -15 -19 -8 0 6 -13 -2 -29 -19 -16 -17
-36 -31 -45 -31 -9 0 -16 -4 -16 -10 0 -5 -8 -10 -18 -10 -10 0 -24 -9 -32
-20 -8 -11 -21 -20 -30 -20 -9 0 -22 -9 -30 -20 -8 -11 -21 -20 -30 -20 -9 0
-22 -9 -30 -20 -8 -11 -20 -20 -27 -20 -7 0 -13 -4 -13 -10 0 -5 -5 -10 -10
-10 -15 0 -52 -39 -69 -72 -8 -16 -18 -28 -23 -28 -4 0 -8 -9 -8 -20 0 -11 -4
-20 -10 -20 -5 0 -10 -9 -10 -20 0 -11 -4 -20 -10 -20 -5 0 -10 -13 -10 -30 0
-16 -4 -30 -10 -30 -5 0 -10 -18 -10 -39 0 -22 -6 -42 -12 -45 -10 -5 -10 -7
0 -12 6 -3 12 -19 12 -35 0 -16 5 -29 10 -29 6 0 10 -9 10 -20 0 -11 5 -20 10
-20 6 0 10 -7 10 -15 0 -14 62 -85 75 -85 3 0 5 9 5 20 0 13 7 20 20 20 11 0
20 -4 20 -10 0 -5 18 -10 40 -10 22 0 40 -4 40 -10 0 -5 14 -10 30 -10 17 0
30 -4 30 -10 0 -5 18 -10 40 -10 22 0 40 5 40 10 0 6 21 10 46 10 27 0 43 4
39 10 -3 6 3 10 14 10 12 0 21 5 21 10 0 6 9 10 20 10 11 0 20 5 20 10 0 6 9
10 20 10 11 0 20 5 20 10 0 6 8 10 18 10 10 0 24 9 32 20 8 11 22 20 32 20 10
0 18 5 18 10 0 6 7 10 16 10 8 0 12 5 9 10 -3 6 3 10 14 10 12 0 21 5 21 10 0
6 8 10 18 10 10 0 24 9 32 20 8 11 21 20 30 20 9 0 22 9 30 20 8 11 22 20 32
20 10 0 18 5 18 10 0 6 8 10 18 10 10 0 24 9 32 20 8 11 21 20 30 20 9 0 22 9
30 20 8 11 22 20 32 20 10 0 18 5 18 10 0 6 8 10 18 10 10 0 24 9 32 20 8 11
21 20 30 20 9 0 22 9 30 20 8 11 22 20 32 20 10 0 18 5 18 10 0 6 9 10 21 10
11 0 17 5 14 10 -3 6 1 10 9 10 9 0 16 5 16 10 0 6 8 10 18 10 10 0 24 9 32
20 8 11 21 20 30 20 9 0 22 9 30 20 8 11 22 20 32 20 10 0 18 5 18 10 0 6 10
10 23 10 18 0 19 2 7 10 -12 8 -11 10 8 10 12 0 22 5 22 10 0 6 8 10 18 10 10
0 24 9 32 20 8 11 22 20 32 20 10 0 18 5 18 10 0 6 8 10 18 10 10 0 24 9 32
20 8 11 21 20 30 20 9 0 22 9 30 20 8 11 22 20 32 20 10 0 18 5 18 10 0 6 6
10 13 10 7 0 23 9 35 20 12 11 27 20 34 20 8 0 20 9 28 20 8 11 22 20 32 20
10 0 18 5 18 10 0 6 8 10 18 10 10 0 24 9 32 20 8 11 20 20 28 20 20 0 84 68
69 74 -7 2 -3 5 8 5 23 1 85 64 85 86 0 11 -12 15 -40 15 -39 0 -40 -1 -40
-36 0 -41 -19 -64 -52 -64 -13 0 -30 -9 -38 -20 -8 -11 -21 -20 -30 -20 -9 0
-22 -9 -30 -20 -8 -11 -21 -20 -30 -20 -9 0 -22 -9 -30 -20 -8 -11 -22 -20
-32 -20 -10 0 -18 -4 -18 -10 0 -5 -9 -10 -20 -10 -11 0 -20 -4 -20 -10 0 -5
-8 -10 -18 -10 -10 0 -24 -9 -32 -20 -8 -11 -21 -20 -30 -20 -9 0 -22 -9 -30
-20 -8 -11 -22 -20 -32 -20 -10 0 -18 -4 -18 -10 0 -5 -8 -10 -18 -10 -10 0
-24 -9 -32 -20 -8 -11 -21 -20 -30 -20 -9 0 -22 -9 -30 -20 -8 -11 -22 -20
-32 -20 -10 0 -18 -4 -18 -9 0 -5 -13 -14 -30 -21 -16 -7 -30 -16 -30 -21 0
-5 -8 -9 -18 -9 -10 0 -24 -9 -32 -20 -8 -11 -21 -20 -30 -20 -9 0 -22 -9 -30
-20 -8 -11 -22 -20 -32 -20 -10 0 -18 -4 -18 -10 0 -5 -8 -10 -18 -10 -10 0
-24 -9 -32 -20 -8 -11 -21 -20 -30 -20 -9 0 -22 -9 -30 -20 -8 -11 -22 -20
-32 -20 -10 0 -18 -4 -18 -10 0 -5 -8 -10 -18 -10 -10 0 -24 -9 -32 -20 -8
-11 -21 -20 -30 -20 -9 0 -22 -9 -30 -20 -8 -11 -22 -20 -32 -20 -10 0 -18 -4
-18 -10 0 -5 -10 -10 -22 -10 -19 0 -20 -2 -8 -10 12 -8 11 -10 -7 -10 -13 0
-23 -4 -23 -10 0 -5 -8 -10 -18 -10 -10 0 -24 -9 -32 -20 -8 -11 -21 -20 -29
-20 -7 0 -21 -8 -30 -17 -9 -10 -23 -19 -31 -21 -8 -2 -16 -8 -18 -13 -2 -5
-11 -9 -21 -9 -9 0 -23 -9 -31 -20 -8 -11 -21 -20 -30 -20 -9 0 -22 -9 -30
-20 -8 -11 -22 -20 -32 -20 -10 0 -18 -4 -18 -10 0 -5 -9 -10 -20 -10 -11 0
-20 -4 -20 -10 0 -5 -9 -10 -20 -10 -11 0 -20 -4 -20 -10 0 -5 -9 -10 -21 -10
-11 0 -17 -4 -14 -10 4 -6 -8 -10 -29 -10 -20 0 -36 5 -36 10 0 6 -12 10 -26
10 -29 0 -54 21 -54 44 0 9 -4 16 -10 16 -5 0 -10 9 -10 20 0 13 7 20 20 20
11 0 20 -4 20 -10 0 -5 14 -10 30 -10 24 0 30 4 30 21 0 18 -5 21 -30 17 -24
-4 -30 -1 -30 15 0 15 -5 18 -29 12 -27 -6 -29 -4 -35 38 -7 45 -1 77 15 77 5
0 9 13 9 28 0 16 8 34 19 42 11 7 17 18 14 23 -3 5 -21 -7 -39 -27 -29 -31
-34 -43 -34 -86 0 -41 -5 -56 -25 -75 -13 -14 -29 -25 -35 -25 -17 0 -40 26
-40 44 0 9 -4 16 -10 16 -6 0 -10 30 -10 70 0 40 4 70 10 70 6 0 10 9 10 20 0
11 5 20 10 20 6 0 10 7 10 15 0 18 44 65 60 65 6 0 20 9 32 20 12 11 28 20 35
20 7 0 13 5 13 10 0 6 9 10 20 10 11 0 20 5 20 10 0 6 8 10 18 10 10 0 24 9
32 20 8 11 21 20 30 20 9 0 22 9 30 20 8 11 21 20 30 20 9 0 22 9 30 20 8 11
22 20 32 20 10 0 18 5 18 10 0 6 8 10 18 10 10 0 24 9 32 20 8 11 22 20 32 20
10 0 18 5 18 10 0 6 8 10 18 10 10 0 24 9 32 20 8 11 21 20 30 20 9 0 22 9 30
20 8 11 21 20 30 20 9 0 22 9 30 20 8 11 22 20 32 20 10 0 18 5 18 10 0 6 8
10 18 10 10 0 24 9 32 20 8 11 22 20 32 20 10 0 18 5 18 10 0 6 8 10 18 10 10
0 24 9 32 20 8 11 21 20 30 20 9 0 22 9 30 20 8 11 21 20 30 20 9 0 22 9 30
20 8 11 22 20 32 20 10 0 18 5 18 10 0 6 8 10 18 10 10 0 24 9 32 20 8 11 21
20 30 20 9 0 22 9 30 20 8 11 22 20 32 20 10 0 18 5 18 10 0 6 8 10 18 10 10
0 24 9 32 20 8 11 21 20 30 20 9 0 22 9 30 20 8 11 21 20 30 20 9 0 22 9 30
20 8 11 22 20 32 20 10 0 18 5 18 10 0 6 7 10 16 10 8 0 33 18 54 40 21 22 44
40 50 40 14 0 40 25 40 38 0 5 13 9 30 8 24 -1 30 -5 30 -23 0 -14 -6 -23 -16
-23 -15 0 -44 -23 -44 -34 0 -12 38 -5 43 8 3 9 15 12 31 9 23 -5 26 -2 26 24
0 17 -9 38 -20 48 -11 10 -20 24 -20 32 0 7 -9 13 -20 13 -11 0 -20 5 -20 10
0 6 -4 10 -10 10 -5 0 -10 -4 -10 -10z"/>
<path d="M9173 8585 c-19 -21 -16 -34 17 -65 17 -15 30 -33 30 -40 0 -6 18
-29 40 -50 47 -45 51 -67 13 -76 -31 -8 -52 -30 -53 -56 0 -25 8 -22 40 12 15
17 35 30 44 30 9 0 16 5 16 10 0 6 7 10 15 10 9 0 31 16 50 35 19 19 35 41 35
50 0 8 5 15 10 15 6 0 10 16 10 36 0 21 4 33 10 29 15 -9 12 4 -4 21 -10 10
-38 14 -90 14 -44 0 -76 4 -76 10 0 6 -9 10 -20 10 -11 0 -20 5 -20 10 0 15
-53 11 -67 -5z"/>
<path d="M9080 8530 c0 -5 -13 -10 -30 -10 l-30 0 0 -70 c0 -63 2 -70 20 -70
11 0 20 -4 20 -10 0 -5 -9 -10 -20 -10 -11 0 -20 -4 -20 -10 0 -5 -8 -10 -18
-10 -10 0 -24 -9 -32 -20 -8 -11 -21 -20 -30 -20 -9 0 -22 -9 -30 -20 -8 -11
-20 -20 -28 -20 -7 0 -21 -7 -30 -16 -14 -15 -17 -15 -28 1 -12 16 -14 16 -28
2 -9 -9 -16 -20 -16 -26 0 -6 -4 -11 -10 -11 -5 0 -10 -5 -10 -11 0 -14 -18
-31 -52 -48 -16 -8 -28 -18 -28 -23 0 -4 -9 -8 -20 -8 -11 0 -20 -4 -20 -8 0
-5 -12 -15 -27 -23 -16 -8 -35 -22 -44 -31 -9 -10 -23 -18 -30 -18 -8 0 -21
-9 -29 -20 -8 -11 -22 -20 -32 -20 -10 0 -18 -4 -18 -10 0 -5 -8 -10 -18 -10
-10 0 -24 -9 -32 -19 -7 -11 -17 -18 -21 -15 -4 2 -19 -7 -33 -21 -16 -16 -36
-25 -56 -25 -37 0 -60 -20 -60 -50 0 -23 -21 -50 -39 -50 -6 0 -10 -10 -10
-22 1 -14 3 -17 6 -7 4 18 62 14 76 -5 5 -6 5 -1 2 12 -6 19 -3 22 25 22 18 0
29 4 25 10 -3 6 -1 10 4 10 6 0 11 9 11 20 0 11 6 20 14 20 7 0 27 14 44 30
18 17 39 30 47 30 8 0 15 5 15 10 0 6 8 10 18 10 10 0 24 9 32 20 8 11 22 20
32 20 10 0 18 5 18 10 0 6 8 10 18 10 10 0 24 9 32 20 8 11 21 20 30 20 9 0
22 9 30 20 8 11 21 20 30 20 9 0 22 9 30 20 8 11 22 20 32 20 10 0 18 5 18 10
0 6 8 10 18 10 10 0 24 9 32 20 8 11 21 20 30 20 9 0 22 9 30 20 8 11 22 20
32 20 10 0 18 5 18 10 0 6 7 10 15 10 8 0 29 14 47 30 17 17 37 30 44 30 8 0
14 5 14 10 0 6 8 10 18 10 10 0 24 9 32 20 14 20 37 29 25 10 -3 -5 1 -10 9
-10 9 0 16 -4 16 -10 0 -5 9 -10 20 -10 16 0 20 7 20 33 0 19 -8 42 -20 55
-11 12 -20 35 -20 52 0 18 -4 29 -10 25 -5 -3 -10 1 -10 10 0 9 -6 23 -14 31
-17 16 -46 19 -46 4z"/>
<path d="M8080 7785 c0 -17 -46 -65 -63 -65 -7 0 -19 -9 -27 -20 -8 -11 -21
-20 -30 -20 -9 0 -22 -9 -30 -20 -8 -11 -21 -20 -30 -20 -9 0 -22 -9 -30 -20
-10 -14 -16 -16 -22 -7 -6 9 -8 9 -8 0 0 -7 -7 -13 -15 -13 -18 0 -51 -18 -79
-42 -11 -10 -24 -18 -28 -18 -5 0 -18 -9 -30 -20 -23 -21 -48 -27 -48 -10 0 6
-4 10 -10 10 -5 0 -10 -9 -10 -20 0 -11 5 -20 10 -20 6 0 10 -9 10 -20 0 -17
7 -20 40 -20 22 0 40 5 40 10 0 6 9 10 21 10 11 0 17 5 14 10 -4 6 8 10 29 10
26 0 36 4 36 16 0 19 24 44 42 44 8 0 20 9 28 20 8 11 21 20 28 20 8 0 26 12
41 28 14 15 33 28 41 30 8 2 17 8 18 13 2 5 12 9 23 9 10 0 19 5 19 10 0 6 9
10 19 10 11 0 21 4 23 10 6 20 -4 110 -13 110 -5 0 -9 -7 -9 -15z"/>
<path d="M7330 7280 c-8 -11 -22 -20 -32 -20 -10 0 -18 -4 -18 -10 0 -5 -8
-10 -18 -10 -10 0 -24 -9 -32 -20 -8 -11 -21 -20 -30 -20 -9 0 -22 -9 -30 -20
-8 -11 -22 -20 -32 -20 -10 0 -18 -4 -18 -10 0 -5 -8 -10 -18 -10 -10 0 -24
-9 -32 -20 -8 -11 -20 -20 -28 -20 -7 0 -22 -9 -34 -20 -12 -11 -28 -20 -35
-20 -7 0 -13 -4 -13 -10 0 -5 -9 -10 -20 -10 -11 0 -20 -4 -20 -10 0 -5 -9
-10 -20 -10 -11 0 -20 -4 -20 -10 0 -5 -9 -10 -20 -10 -11 0 -20 -4 -20 -10 0
-5 -9 -10 -20 -10 -11 0 -20 -4 -20 -10 0 -5 -9 -10 -20 -10 -11 0 -20 -4 -20
-10 0 -5 -9 -10 -20 -10 -11 0 -20 -4 -20 -10 0 -5 -9 -10 -20 -10 -11 0 -20
-4 -20 -10 0 -5 -13 -10 -30 -10 -16 0 -30 -4 -30 -10 0 -5 -9 -10 -20 -10
-11 0 -20 -4 -20 -10 0 -5 -18 -10 -40 -10 -22 0 -40 -4 -40 -10 0 -5 -9 -10
-19 -10 -11 0 -22 -6 -25 -12 -5 -10 -7 -10 -12 0 -7 14 -44 16 -44 2 0 -6
-50 -10 -130 -10 -80 0 -130 4 -130 10 0 6 -13 10 -29 10 -16 0 -32 6 -35 13
-5 10 -7 10 -12 0 -7 -15 -44 -17 -44 -3 0 6 -7 10 -16 10 -9 0 -25 10 -36 22
-15 18 -21 20 -28 9 -7 -12 -11 -12 -24 2 -19 19 -21 44 -3 50 6 2 9 8 5 12
-9 10 -38 -19 -38 -39 0 -9 -4 -16 -10 -16 -5 0 -10 12 -10 26 0 23 -20 54
-34 54 -3 0 -6 -9 -6 -20 0 -11 -4 -20 -10 -20 -5 0 -10 9 -10 20 0 13 -7 20
-18 20 -10 0 -24 9 -32 20 -8 11 -21 20 -28 20 -8 0 -27 14 -42 30 -15 17 -34
30 -42 30 -7 0 -20 9 -28 20 -8 11 -20 20 -28 20 -18 0 -42 25 -42 44 0 9 -4
16 -10 16 -5 0 -10 7 -10 16 0 8 -4 12 -10 9 -5 -3 -10 3 -10 14 0 14 -6 21
-20 21 -25 0 -24 -27 3 -51 9 -9 17 -22 17 -29 0 -6 14 -25 30 -40 17 -15 30
-34 30 -42 0 -7 9 -20 20 -28 11 -8 20 -22 20 -32 0 -11 7 -18 20 -18 12 0 20
-7 20 -16 0 -19 24 -44 42 -44 8 0 20 -9 28 -20 8 -11 20 -20 28 -20 7 0 22
-9 34 -20 12 -11 28 -20 35 -20 7 0 13 -4 13 -10 0 -5 14 -10 30 -10 17 0 30
-4 30 -10 0 -5 14 -10 30 -10 17 0 30 -4 30 -10 0 -5 18 -10 40 -10 22 0 40
-4 40 -10 0 -5 18 -10 40 -10 22 0 40 -4 40 -10 0 -6 53 -10 140 -10 87 0 140
4 140 10 0 6 23 10 50 10 28 0 50 5 50 10 0 6 14 10 30 10 17 0 30 5 30 10 0
6 14 10 30 10 17 0 30 5 30 10 0 6 14 10 30 10 17 0 30 5 30 10 0 6 9 10 20
10 11 0 20 5 20 10 0 6 14 10 30 10 17 0 30 5 30 10 0 6 9 10 20 10 11 0 20 5
20 10 0 6 9 10 20 10 11 0 20 5 20 10 0 6 7 10 15 10 8 0 15 5 15 10 0 6 7 10
15 10 8 0 15 5 15 10 0 6 9 10 20 10 11 0 20 5 20 10 0 6 9 10 20 10 11 0 20
5 20 10 0 6 8 10 18 10 10 0 24 9 32 20 8 11 22 20 32 20 10 0 18 5 18 10 0 6
8 10 18 10 10 0 24 9 32 20 8 11 22 20 32 20 10 0 18 5 18 10 0 6 8 10 18 10
10 0 24 9 32 20 8 11 22 20 32 20 10 0 18 5 18 10 0 6 7 10 15 10 21 0 82 62
82 83 0 23 -29 21 -47 -3z"/>
<path d="M3720 6810 c0 -5 -9 -10 -20 -10 -11 0 -20 -4 -20 -10 0 -5 -8 -10
-18 -10 -10 0 -24 -9 -32 -20 -8 -11 -22 -20 -32 -20 -10 0 -18 -4 -18 -10 0
-5 -7 -10 -15 -10 -8 0 -15 -4 -15 -10 0 -5 -7 -10 -15 -10 -8 0 -15 -4 -15
-10 0 -5 -13 -10 -30 -10 -25 0 -30 -4 -30 -24 0 -14 -4 -28 -10 -31 -5 -3
-10 -1 -10 4 0 6 -4 11 -10 11 -5 0 -10 -9 -10 -20 0 -11 -4 -20 -10 -20 -5 0
-10 5 -10 10 0 18 -55 11 -70 -10 -8 -11 -21 -20 -30 -20 -9 0 -22 -9 -30 -20
-8 -11 -22 -20 -32 -20 -25 0 -24 -45 2 -72 11 -12 20 -28 20 -35 0 -23 31
-14 60 17 15 17 35 30 44 30 9 0 16 5 16 10 0 6 9 10 20 10 12 0 20 7 20 16 0
20 24 44 45 44 9 0 13 5 10 10 -3 6 0 10 7 10 8 0 20 9 28 20 8 11 25 20 39
20 13 0 31 9 40 19 10 11 24 21 32 23 7 2 26 15 40 31 15 15 32 27 38 27 21 0
61 49 61 75 0 18 -5 25 -20 25 -11 0 -20 -4 -20 -10z"/>
</g>
</svg>
