<?xml version="1.0" standalone="no"?>
<!DOCTYPE svg PUBLIC "-//W3C//DTD SVG 20010904//EN"
 "http://www.w3.org/TR/2001/REC-SVG-20010904/DTD/svg10.dtd">
<svg version="1.0" xmlns="http://www.w3.org/2000/svg"
 width="460.000000pt" height="460.000000pt" viewBox="0 0 460.000000 460.000000"
 preserveAspectRatio="xMidYMid meet">
<metadata>
Created by potrace 1.16, written by Peter Selinger 2001-2019
</metadata>
<g transform="translate(0.000000,460.000000) scale(0.100000,-0.100000)"
fill="#000000" stroke="none">
<path d="M4217 3614 c-4 -4 -201 -10 -439 -14 -354 -6 -444 -10 -493 -23 -33
-9 -73 -19 -89 -22 -15 -3 -26 -8 -24 -11 3 -2 29 1 59 7 93 20 850 10 994
-13 22 -3 30 20 21 58 -6 24 -17 30 -29 18z"/>
<path d="M2735 3592 c-213 -1 -353 -6 -359 -12 -11 -11 749 -14 853 -4 98 11
70 25 -41 22 -57 -2 -260 -4 -453 -6z"/>
<path d="M1195 3430 c380 -4 1016 -10 1415 -14 768 -8 783 -9 842 -56 23 -18
24 -18 25 1 1 11 -5 19 -14 19 -9 0 -21 7 -27 15 -6 8 -38 19 -71 24 -33 5
-690 11 -1460 14 -918 3 -1162 2 -710 -3z"/>
<path d="M2260 3270 c-2 -14 -4 -48 -5 -77 -4 -60 -31 -124 -57 -131 -22 -5
-24 -22 -3 -22 8 0 15 5 15 11 0 6 6 9 13 6 8 -3 29 -2 48 2 l34 8 -28 8 c-19
5 -26 12 -23 22 3 8 6 21 6 29 0 9 6 11 18 7 15 -6 15 -5 3 10 -13 16 15 17
431 17 317 0 447 -3 455 -11 7 -7 19 -9 29 -5 16 6 16 8 -2 21 -16 11 -98 14
-461 15 -244 0 -449 3 -456 6 -8 3 -12 17 -9 38 2 19 2 42 -1 52 -4 15 -5 14
-7 -6z"/>
<path d="M1564 3120 c-255 -5 -269 -7 -296 -45 -23 -31 17 -89 73 -105 19 -6
135 -9 259 -9 148 1 208 4 175 9 -27 5 -138 9 -246 9 -163 1 -199 4 -209 16
-19 23 -7 29 68 33 90 5 105 22 19 22 -45 0 -67 4 -67 12 0 9 -3 9 -12 0 -7
-7 -16 -12 -20 -12 -14 0 -9 28 8 44 13 14 51 16 265 16 159 0 249 4 249 10 0
6 -3 9 -7 8 -5 -1 -121 -5 -259 -8z"/>
<path d="M1996 2445 c-57 -27 -169 -134 -196 -185 -16 -32 -69 -80 -86 -80 -4
0 -22 -11 -40 -25 -18 -14 -36 -25 -41 -25 -5 0 -19 -8 -33 -17 -21 -15 -62
-16 -425 -14 -427 3 -498 -3 -558 -43 -44 -30 -83 -91 -96 -151 -15 -71 -17
-276 -3 -362 11 -69 25 -285 37 -598 8 -210 33 -293 105 -359 66 -59 108 -66
417 -66 234 0 277 -2 298 -16 19 -12 37 -14 77 -9 78 11 618 11 1135 1 428 -8
452 -10 456 -27 4 -16 15 -19 67 -19 34 0 71 5 82 11 14 8 123 11 342 10 356
-2 408 4 461 50 69 61 95 163 96 383 0 103 5 157 13 171 21 32 25 63 31 215 3
80 10 179 16 220 19 121 16 335 -4 401 -32 105 -90 156 -212 184 -59 14 -120
15 -445 9 l-378 -7 -20 46 c-14 32 -27 47 -39 47 -11 0 -51 20 -89 43 -39 24
-86 47 -105 51 -18 3 -45 17 -59 31 -98 94 -351 155 -635 155 -106 -1 -126 -3
-169 -25z"/>
</g>
</svg>
