<?xml version="1.0" standalone="no"?>
<!DOCTYPE svg PUBLIC "-//W3C//DTD SVG 20010904//EN"
 "http://www.w3.org/TR/2001/REC-SVG-20010904/DTD/svg10.dtd">
<svg version="1.0" xmlns="http://www.w3.org/2000/svg"
 width="460.000000pt" height="460.000000pt" viewBox="0 0 460.000000 460.000000"
 preserveAspectRatio="xMidYMid meet">
<metadata>
Created by potrace 1.16, written by Peter Selinger 2001-2019
</metadata>
<g transform="translate(0.000000,460.000000) scale(0.100000,-0.100000)"
fill="#000000" stroke="none">
<path d="M2218 3818 l-3 -162 -105 -27 c-131 -33 -199 -64 -295 -130 -54 -38
-78 -49 -87 -42 -19 15 -96 32 -118 26 -16 -4 -19 -2 -13 13 6 17 5 16 -18 -1
-106 -80 -169 -269 -149 -448 11 -97 28 -159 96 -352 50 -143 57 -171 61 -260
4 -85 2 -110 -16 -164 -33 -95 -84 -191 -174 -325 -157 -235 -228 -429 -230
-626 0 -58 5 -129 12 -159 14 -53 23 -67 115 -164 38 -41 57 -73 86 -149 54
-140 111 -231 204 -323 65 -64 100 -90 176 -128 165 -82 224 -92 515 -92 233
1 259 3 380 28 333 71 550 178 717 356 174 185 261 396 259 629 -2 275 -48
381 -349 819 -81 117 -97 167 -96 303 0 109 3 122 48 257 80 244 90 290 83
428 -6 123 -23 199 -59 263 -29 52 -58 87 -71 87 -7 0 -13 10 -15 22 -4 26
-40 54 -137 104 -107 56 -235 88 -235 59 0 -5 -5 -10 -11 -10 -8 0 -8 4 0 14
7 8 11 37 9 68 -2 43 -7 54 -22 56 -17 4 -18 -1 -13 -49 4 -30 7 -89 7 -131 0
-64 3 -77 18 -81 15 -4 15 -5 -2 -6 -17 -1 -18 -7 -13 -68 4 -38 7 -90 7 -117
0 -39 3 -47 15 -42 9 3 15 0 15 -9 0 -9 -6 -12 -15 -9 -12 5 -15 -4 -15 -46 0
-47 2 -51 20 -45 14 5 20 2 20 -10 0 -12 -6 -15 -21 -10 -21 7 -21 5 -15 -66
3 -41 7 -129 8 -196 2 -68 7 -123 12 -123 4 0 5 -7 2 -16 -3 -9 -2 -12 5 -9 5
4 7 16 3 28 -6 20 -5 20 13 -3 10 -14 27 -44 38 -68 16 -37 17 -45 4 -53 -8
-5 -18 -9 -24 -9 -5 1 -2 5 8 11 9 5 17 15 17 21 0 9 -3 9 -12 0 -7 -7 -15
-12 -18 -12 -11 0 -8 34 4 49 9 11 6 13 -14 6 -23 -7 -23 -7 -7 9 23 23 21 29
-4 14 -20 -13 -21 -19 -17 -182 3 -152 5 -169 23 -182 15 -11 15 -14 4 -14
-12 0 -16 -14 -18 -62 -2 -70 16 -715 25 -873 l6 -100 36 0 c31 0 38 -4 40
-23 3 -17 -1 -22 -20 -22 -39 0 -68 -12 -68 -26 0 -8 -4 -14 -10 -14 -5 0 -7
7 -3 17 6 14 0 15 -42 10 -26 -4 -61 -7 -77 -7 -21 0 -31 -6 -38 -24 -5 -13
-14 -27 -19 -31 -8 -4 -8 2 -1 21 l11 27 -62 -7 c-34 -3 -70 -6 -80 -6 -11 0
-25 -13 -34 -31 -9 -17 -19 -29 -22 -26 -2 3 0 15 7 26 10 19 8 21 -22 21 -18
0 -57 -3 -86 -7 -44 -5 -55 -10 -63 -29 -11 -30 -21 -31 -14 -1 6 21 3 22 -38
19 -31 -3 -47 1 -57 13 -18 22 0 35 50 35 19 0 40 4 47 8 12 8 24 952 11 952
-4 0 -3 14 2 31 5 17 9 224 9 460 l1 429 -33 1 c-26 0 -28 2 -12 8 11 5 26 6
33 4 8 -4 12 9 12 45 0 50 -1 51 -32 55 l-33 4 33 1 c32 2 32 2 32 56 0 52 -1
55 -27 59 l-28 4 28 2 27 1 0 194 c0 177 -2 195 -17 199 -17 4 -17 5 0 6 13 1
17 10 18 41 0 22 1 64 1 93 l1 52 -41 3 -41 3 -3 -163z"/>
<path d="M2319 3878 c1 -133 -7 -1145 -14 -1961 l-6 -639 78 7 c43 4 82 10 87
13 5 3 6 298 2 721 -4 394 -7 811 -7 928 l1 212 -68 4 -67 3 68 2 67 2 0 49
c0 46 -2 50 -27 54 l-28 4 28 2 c26 1 27 3 27 55 0 54 0 55 -32 59 l-33 4 33
1 32 2 0 55 c0 53 -1 55 -27 56 l-28 1 25 7 c28 8 27 5 22 344 l-2 117 -65 0
-66 0 0 -102z"/>
<path d="M2471 3630 l0 -350 70 0 69 0 0 54 c0 52 -1 55 -27 59 l-28 4 28 2
c26 1 27 3 27 56 0 48 -2 55 -20 55 -11 0 -20 5 -20 10 0 6 9 10 20 10 18 0
20 7 20 59 l0 60 -37 4 -38 4 39 1 39 2 -7 61 c-3 34 -6 106 -6 160 l0 99 -65
0 -65 0 1 -350z"/>
<path d="M2620 3821 l0 -160 28 -4 27 -4 -28 -2 -29 -1 5 -121 c3 -89 8 -123
18 -130 10 -6 10 -9 2 -9 -10 0 -13 -28 -13 -105 l0 -105 70 0 70 0 0 49 c0
49 -1 50 -32 54 l-33 4 34 1 c33 2 34 3 27 40 -3 20 -6 45 -6 54 0 11 -5 15
-14 12 -8 -3 -17 -1 -21 5 -3 7 2 11 14 11 19 0 21 6 21 54 0 52 -1 55 -27 59
l-28 4 28 2 c26 1 27 3 27 61 0 58 -1 60 -27 61 -24 2 -25 2 -5 6 20 4 22 10
22 68 0 62 -1 64 -27 68 l-28 4 28 2 28 1 -3 88 -3 87 -62 3 -63 3 0 -160z"/>
<path d="M2639 3159 c-9 -5 -10 -41 -6 -130 3 -68 7 -277 10 -464 4 -230 9
-341 16 -343 6 -2 11 -8 11 -13 0 -6 -5 -7 -10 -4 -10 6 -6 -478 6 -752 l6
-133 37 0 c20 0 53 3 74 6 l37 7 0 111 c0 156 -20 806 -26 834 -2 12 -9 22
-15 22 -6 0 -8 -9 -3 -22 3 -13 5 -21 3 -18 -2 3 -13 15 -24 28 -16 20 -16 22
-2 16 10 -3 17 -1 17 5 0 6 6 8 13 6 13 -6 13 -7 2 300 -7 191 -6 185 -17 185
-5 0 -7 10 -4 23 3 12 3 16 0 10 -3 -7 -10 -13 -15 -13 -5 0 -4 9 3 19 7 11
16 17 20 15 10 -6 10 53 1 204 l-6 113 -58 -2 c-32 -1 -63 -6 -70 -10z"/>
<path d="M2473 3003 c4 -87 7 -310 7 -496 0 -223 3 -336 10 -332 6 3 10 1 10
-4 0 -6 -4 -11 -9 -11 -12 0 -15 -578 -5 -749 l7 -113 76 7 c42 4 78 9 80 11
2 2 -1 248 -8 546 -6 299 -14 713 -18 921 l-6 377 -75 0 -75 0 6 -157z"/>
</g>
</svg>
