<?xml version="1.0" standalone="no"?>
<!DOCTYPE svg PUBLIC "-//W3C//DTD SVG 20010904//EN"
 "http://www.w3.org/TR/2001/REC-SVG-20010904/DTD/svg10.dtd">
<svg version="1.0" xmlns="http://www.w3.org/2000/svg"
 width="460.000000pt" height="460.000000pt" viewBox="0 0 460.000000 460.000000"
 preserveAspectRatio="xMidYMid meet">
<metadata>
Created by potrace 1.16, written by Peter Selinger 2001-2019
</metadata>
<g transform="translate(0.000000,460.000000) scale(0.100000,-0.100000)"
fill="#000000" stroke="none">
<path d="M2470 3501 c-68 -14 -95 -36 -135 -111 l-37 -72 18 -35 c11 -19 27
-41 37 -50 16 -16 16 -17 0 -36 -18 -19 -17 -20 5 -8 13 7 26 10 29 7 3 -3 -6
-11 -21 -17 -14 -7 -26 -19 -26 -27 0 -11 9 -7 30 13 16 15 29 31 28 34 -3 27
3 31 27 15 27 -18 34 -37 10 -28 -9 4 -15 0 -15 -9 0 -8 -24 -37 -52 -63 -47
-42 -51 -55 -5 -16 9 8 17 11 17 7 0 -5 10 1 23 13 l22 21 59 -44 58 -44 64
23 c87 32 108 48 133 99 26 54 27 137 2 192 -44 96 -165 157 -271 136z"/>
<path d="M1934 3343 c-140 -117 -273 -199 -425 -262 -74 -31 -78 -34 -109 -94
-79 -149 -197 -294 -351 -433 -51 -46 -57 -56 -68 -112 -14 -72 -11 -79 53
-132 l47 -39 -39 -20 c-29 -15 -47 -34 -66 -73 -103 -206 131 -427 341 -323
53 27 77 54 89 99 3 14 10 26 15 26 13 0 489 -401 489 -411 0 -5 -18 -18 -39
-28 -28 -15 -46 -34 -65 -73 -68 -137 5 -289 161 -334 110 -32 240 20 279 113
l14 33 85 -69 c73 -60 97 -73 172 -96 112 -34 235 -85 299 -123 182 -110 228
-140 230 -155 3 -20 10 -28 126 -127 l93 -80 141 0 c78 0 155 3 172 6 l31 6
-57 44 c-31 24 -62 48 -69 54 -7 5 -14 6 -17 1 -3 -5 19 -27 49 -50 30 -23 55
-44 55 -48 0 -7 -9 0 -142 100 -57 42 -140 105 -185 138 -46 34 -83 65 -83 70
0 4 9 13 20 19 11 6 20 8 20 4 0 -3 8 0 17 7 11 10 14 10 9 2 -8 -14 17 -57
27 -46 4 3 7 -1 7 -10 0 -14 13 -22 23 -15 1 1 16 -11 32 -26 17 -16 41 -36
55 -44 14 -9 77 -55 140 -102 63 -47 123 -90 135 -97 13 -8 69 -12 163 -13
l142 0 0 313 0 313 -68 47 c-219 149 -371 342 -466 589 -84 217 -83 214 -208
343 -116 120 -116 120 -137 101 -21 -19 -22 -19 -36 0 -14 18 -15 17 -9 -8 3
-16 2 -28 -2 -28 -20 1 -55 37 -59 63 -6 30 6 35 29 11 9 -8 16 -11 16 -5 0 6
-11 18 -25 27 -25 16 -25 16 -4 33 19 16 11 25 -301 330 -320 312 -321 313
-342 295 -15 -14 -22 -16 -25 -6 -8 20 -22 14 -16 -8 8 -31 -11 -24 -63 23
-35 33 -44 46 -34 52 8 5 11 4 7 -2 -4 -6 1 -17 10 -24 12 -10 14 -10 9 -1
-12 20 3 33 25 21 12 -6 24 -8 27 -4 3 3 -4 8 -16 12 -27 7 -27 12 -4 29 15
12 6 24 -98 129 -63 64 -122 120 -131 125 -13 7 -35 -6 -95 -57z m6 -230 c41
-9 103 -8 127 0 18 7 22 5 17 -7 -3 -8 -1 -23 4 -32 9 -16 10 -15 17 5 9 29
50 26 50 -4 0 -13 7 -20 20 -20 31 0 63 -28 70 -60 4 -25 4 -26 -4 -9 -17 39
-31 38 -32 -3 0 -35 -1 -36 -11 -15 -15 30 -26 28 -30 -5 -3 -27 -4 -27 -36
20 -18 26 -28 47 -23 47 5 0 17 -10 25 -22 9 -12 16 -17 16 -10 0 7 5 10 11 6
7 -4 4 7 -6 24 -15 24 -22 29 -32 20 -7 -6 -13 -7 -13 -2 0 4 -6 -1 -14 -11
-17 -24 -9 -54 19 -67 15 -7 21 -16 18 -29 -4 -15 0 -19 20 -19 14 0 28 4 31
9 3 5 15 7 26 4 15 -4 20 0 21 13 1 18 2 18 6 1 4 -14 11 -17 29 -13 20 5 24
3 24 -15 0 -14 5 -19 14 -16 9 4 36 -18 71 -54 31 -32 62 -59 70 -59 19 0 26
-42 10 -60 -8 -9 -21 -31 -28 -50 -13 -29 -13 -40 0 -83 8 -27 12 -51 10 -54
-3 -2 -18 2 -34 11 -15 8 -22 15 -15 16 9 0 11 7 7 21 -5 13 -2 25 6 31 11 7
11 11 2 15 -7 2 -13 11 -13 19 0 17 -20 19 -21 2 0 -10 -2 -10 -6 0 -2 6 -8
12 -12 12 -10 0 -31 -47 -30 -68 0 -9 6 -2 13 17 10 28 14 31 19 17 4 -10 12
-14 18 -10 7 4 4 -7 -7 -25 -15 -25 -25 -31 -54 -31 -19 0 -48 -7 -64 -15 -27
-14 -55 -20 -44 -10 3 3 -26 36 -64 73 -66 64 -68 68 -53 87 9 11 14 14 10 7
-4 -7 4 -16 20 -22 14 -5 23 -14 20 -20 -3 -5 3 -10 15 -10 11 0 23 -7 26 -15
5 -13 8 -13 27 0 26 18 58 19 77 3 12 -11 12 -10 3 2 -10 13 -8 18 8 28 11 7
25 9 32 5 7 -4 7 0 -2 10 -9 12 -10 17 -2 17 8 0 9 5 2 19 -6 10 -8 20 -6 23
2 2 -5 9 -15 16 -17 11 -20 10 -20 -8 0 -11 -7 -20 -15 -20 -8 0 -15 6 -15 13
0 6 -13 12 -30 13 -17 1 -39 9 -51 20 -17 15 -22 16 -29 4 -5 -8 -12 -11 -16
-7 -4 4 -2 13 4 19 16 16 15 28 -3 28 -8 0 -15 5 -15 10 0 6 7 10 15 10 20 0
19 10 -2 26 -17 12 -16 13 5 14 12 0 22 2 22 5 0 9 -49 53 -54 47 -3 -3 -6 1
-6 10 0 8 -9 23 -21 34 -21 19 -21 19 -19 -1 4 -32 0 -41 -10 -25 -8 13 -11
13 -22 1 -10 -11 -10 -14 0 -18 6 -3 12 -11 12 -19 0 -8 5 -14 12 -14 6 0 8 3
5 7 -8 7 11 33 25 33 6 0 8 -7 5 -14 -4 -10 -1 -13 7 -10 9 4 14 -3 14 -21 0
-20 -3 -23 -14 -14 -11 9 -14 7 -15 -7 -1 -11 -1 -23 1 -29 3 -16 -39 27 -45
46 -4 11 -13 19 -21 19 -8 0 -14 5 -14 10 0 6 -7 10 -16 10 -14 0 -14 -3 -4
-15 7 -8 18 -15 26 -15 7 0 18 -9 24 -21 22 -39 3 -29 -48 26 -28 30 -55 55
-59 55 -5 0 -16 -9 -26 -20 -25 -30 -37 -24 -20 10 15 30 20 121 8 140 -10 16
5 32 24 25 9 -4 27 -9 41 -12z m-233 -470 c51 -35 68 -63 40 -63 -8 0 -22 9
-33 21 -29 32 -55 43 -64 28 -6 -8 2 -18 23 -29 38 -21 52 -42 43 -65 -6 -17
-8 -17 -30 4 -12 11 -26 18 -29 14 -4 -3 -7 1 -7 9 0 22 -26 42 -35 28 -8 -13
34 -62 46 -54 5 3 9 -1 9 -10 0 -8 3 -22 7 -32 3 -9 -13 4 -37 29 -43 48 -60
57 -60 35 1 -17 35 -58 49 -58 6 0 11 -10 11 -22 0 -20 -4 -18 -39 20 -21 23
-41 42 -45 42 -16 0 -3 -33 24 -62 17 -17 30 -38 30 -47 0 -12 -6 -10 -21 9
-11 14 -18 19 -14 13 3 -7 1 -13 -5 -13 -7 0 -10 7 -6 15 5 13 -27 45 -46 45
-14 0 5 -35 34 -62 52 -48 27 -89 -25 -42 -17 16 -24 20 -14 8 25 -30 23 -52
-3 -29 -11 10 -20 15 -20 12 0 -5 -21 13 -95 81 -19 18 -27 21 -22 10 3 -10 0
-24 -9 -33 -26 -25 -35 -17 -18 16 9 19 14 47 12 69 -2 21 0 36 3 34 4 -2 9 1
11 7 3 9 9 9 24 1 15 -8 24 -8 32 0 15 15 16 42 2 33 -5 -3 -10 1 -10 10 0 11
5 15 14 12 13 -5 56 2 104 17 16 6 22 3 22 -8 0 -23 17 -20 25 4 5 15 15 20
43 20 28 0 33 3 22 10 -8 5 -11 10 -6 10 5 0 33 -16 63 -37z m17 -148 c-6 -24
-4 -25 20 -19 22 5 25 3 20 -11 -5 -12 -2 -16 12 -15 52 6 74 -3 130 -51 72
-64 79 -80 54 -122 -24 -38 -26 -84 -5 -123 8 -16 15 -37 15 -47 0 -14 -4 -16
-19 -7 -11 5 -30 10 -43 11 -15 0 -18 3 -8 6 22 9 31 26 17 35 -16 10 -39 10
-33 0 9 -15 -10 -31 -43 -37 -19 -3 -42 -10 -53 -16 -10 -5 -23 -7 -28 -4 -6
4 -9 1 -8 -6 2 -6 -3 -14 -11 -17 -8 -2 -11 0 -8 5 3 5 -3 15 -14 21 -19 12
-19 11 -9 -8 22 -41 2 -31 -64 30 -57 54 -65 66 -60 89 9 33 8 33 28 25 10 -4
15 -13 11 -24 -5 -15 -2 -17 15 -13 16 4 20 1 20 -18 0 -21 1 -22 13 -5 13 17
14 17 31 1 16 -17 18 -17 32 4 8 11 24 21 34 21 12 0 26 13 36 31 15 30 15 32
-2 25 -16 -5 -16 -4 2 11 12 10 24 25 27 34 4 12 0 15 -18 11 -15 -2 -22 -9
-18 -18 3 -8 -1 -14 -11 -14 -9 0 -16 5 -16 12 0 9 -3 9 -12 0 -9 -9 -8 -16 4
-29 16 -18 14 -43 -3 -43 -5 0 -9 12 -9 26 0 16 -4 23 -12 18 -7 -5 -8 -3 -3
6 8 13 -10 30 -34 30 -10 0 -12 -10 -7 -37 4 -27 3 -32 -4 -18 -5 11 -9 28 -9
38 -1 10 -14 29 -31 43 -17 15 -27 31 -23 39 3 10 -2 15 -13 16 -16 1 -16 2
-2 6 18 5 33 33 18 33 -6 0 -10 4 -10 10 0 5 7 7 16 3 10 -4 17 1 21 15 3 12
11 18 18 15 8 -3 20 8 30 26 19 38 28 40 19 6z m984 -111 c37 -4 67 -2 80 5
21 11 22 9 24 -26 1 -21 0 -55 -1 -75 -2 -32 2 -40 23 -50 14 -6 26 -19 26
-28 0 -20 40 -34 54 -20 7 7 5 10 -4 10 -8 1 -29 20 -47 43 -32 42 -36 60 -8
37 8 -7 15 -9 15 -5 0 4 6 2 14 -5 8 -6 13 -17 11 -23 -7 -17 6 -33 33 -41 16
-6 22 -3 22 8 0 21 9 20 27 -1 10 -13 16 -15 19 -5 8 18 25 14 22 -5 -2 -12 3
-18 14 -17 10 1 15 -3 12 -8 -3 -5 0 -8 8 -6 7 2 13 -1 13 -7 0 -5 -3 -9 -7
-8 -4 2 -5 -4 -2 -12 7 -17 24 -20 24 -4 0 5 5 7 10 4 6 -4 7 -12 4 -18 -4 -7
-3 -9 1 -4 10 9 96 -73 89 -85 -3 -4 2 -5 10 -2 20 8 20 6 -4 -41 -11 -22 -20
-46 -20 -53 0 -9 -6 -12 -16 -8 -14 5 -15 4 -4 -9 19 -23 4 -18 -19 6 l-20 21
-25 -25 c-14 -15 -26 -34 -26 -44 0 -13 3 -14 12 -5 16 16 25 15 32 -4 4 -11
2 -15 -8 -11 -9 4 -13 1 -10 -6 3 -8 -7 -14 -28 -15 -18 -2 -47 -12 -66 -22
-39 -24 -42 -24 -42 -7 0 7 -30 40 -67 72 -55 48 -65 48 -18 0 55 -57 64 -75
11 -23 -68 65 -69 67 -59 100 11 31 12 32 18 10 4 -13 14 -21 23 -20 10 2 18
-7 22 -22 4 -17 8 -21 14 -12 10 17 26 15 26 -3 0 -19 14 -19 30 0 7 8 16 13
20 10 5 -3 11 -1 15 5 3 5 15 10 26 10 10 0 19 5 19 11 0 5 4 7 10 4 7 -4 7 2
1 19 -8 20 -6 27 12 40 19 13 20 17 7 25 -21 15 -33 13 -27 -4 4 -8 2 -17 -4
-20 -5 -4 -12 1 -15 9 -8 21 -24 20 -24 -1 0 -15 -1 -15 -18 0 -10 10 -21 15
-24 12 -3 -3 -11 1 -18 10 -14 17 -40 20 -40 5 0 -5 -5 -10 -12 -10 -6 0 -4 8
6 19 19 21 7 37 -19 27 -8 -3 -15 -1 -15 5 0 5 7 12 15 15 8 4 15 10 15 15 0
5 -7 9 -15 9 -8 0 -15 5 -15 10 0 6 9 10 20 10 30 0 24 13 -15 34 -19 10 -32
22 -30 26 7 11 -35 61 -46 55 -16 -10 -10 -24 21 -52 18 -16 30 -36 30 -51 0
-21 -2 -22 -15 -12 -13 10 -15 9 -15 -11 0 -24 -1 -24 -26 6 -18 21 -21 23
-10 5 31 -47 15 -44 -39 10 -30 29 -52 57 -49 62 8 13 -33 9 -48 -5 -13 -13
-48 -30 -48 -23 0 2 7 17 15 32 18 35 19 89 4 134 -13 37 2 56 33 39 9 -5 44
-12 76 -15z m-1218 -16 c27 -20 28 -22 12 -34 -15 -12 -15 -15 -2 -24 13 -8
12 -10 -5 -10 -24 0 -135 -96 -135 -116 0 -22 -12 -17 -50 23 -20 21 -27 34
-17 30 9 -3 17 -2 17 3 0 6 10 10 22 10 12 0 18 3 15 6 -3 4 9 25 29 47 19 23
32 47 30 53 -7 18 5 24 25 13 15 -7 19 -6 19 6 0 20 5 19 40 -7z m1023 -394
c65 -40 85 -71 45 -70 -19 1 -22 -4 -19 -24 1 -14 7 -28 13 -31 5 -3 2 -9 -7
-12 -9 -4 -14 -3 -11 1 3 4 -4 13 -14 20 -14 9 -19 8 -23 -2 -3 -8 0 -19 6
-25 6 -6 7 -11 1 -11 -5 0 -15 5 -21 11 -8 8 -13 5 -18 -10 -9 -29 -15 -27
-49 14 -16 19 -33 35 -38 35 -17 0 -7 -27 22 -58 17 -18 30 -37 30 -41 0 -4
12 -7 28 -6 21 0 26 4 24 20 -3 16 -1 18 9 8 17 -17 29 -16 29 2 0 18 5 18 31
5 13 -7 19 -7 19 0 0 5 5 10 10 10 6 0 10 -7 10 -15 0 -11 11 -15 35 -15 30 0
45 -9 97 -60 33 -33 64 -60 70 -60 5 0 3 -10 -3 -22 -7 -12 -18 -44 -25 -71
-12 -47 -12 -51 12 -89 30 -47 21 -66 -20 -44 -17 9 -23 16 -16 21 8 5 6 11
-7 21 -16 13 -16 14 0 8 21 -8 23 12 2 32 -21 22 -38 7 -31 -28 4 -20 2 -27
-6 -22 -7 5 -9 2 -5 -9 4 -12 -2 -17 -26 -22 -18 -4 -47 -15 -65 -26 -31 -18
-33 -18 -50 -1 -9 9 -45 39 -80 66 -54 42 -62 53 -61 80 2 30 2 30 6 4 4 -26
23 -41 23 -18 0 6 5 10 11 10 6 0 9 -9 6 -20 -6 -22 0 -25 22 -11 9 6 22 6 35
-1 15 -8 21 -8 24 1 2 6 14 11 26 11 13 0 31 9 42 21 18 20 18 21 -6 40 -33
25 -36 24 -34 -12 1 -17 -1 -27 -4 -24 -7 7 -8 12 -11 40 0 8 -10 15 -21 15
-29 0 -92 63 -84 84 5 12 0 16 -22 16 -15 0 -37 8 -48 18 -16 14 -16 11 4 -17
24 -35 13 -34 -26 1 -21 19 -63 45 -113 70 -20 11 -26 9 -40 -7 -9 -11 -26
-20 -38 -21 -18 0 -20 3 -12 17 15 28 10 108 -7 139 -24 40 -12 63 28 55 54
-12 123 -8 156 9 31 16 32 16 32 -4 0 -26 17 -26 25 1 6 17 13 20 45 17 21 -2
36 0 34 4 -9 14 5 9 49 -18z m-235 -277 c21 5 76 -42 67 -57 -3 -6 -1 -10 4
-10 6 0 11 -4 11 -9 0 -5 -12 -8 -27 -6 -23 3 -39 -8 -85 -53 -32 -31 -58 -62
-58 -69 0 -20 -14 -15 -39 13 -17 20 -20 29 -10 40 6 7 15 12 19 9 5 -3 14 8
21 24 7 16 17 27 23 24 5 -3 6 -1 2 6 -4 6 5 32 21 56 15 25 29 41 31 36 2 -5
11 -7 20 -4z"/>
<path d="M2176 2895 c-32 -30 -33 -65 -3 -92 31 -28 52 -34 86 -22 55 19 59
88 7 122 -35 23 -58 21 -90 -8z"/>
<path d="M1671 2434 c-58 -49 -25 -124 55 -124 69 0 96 65 48 117 -34 37 -65
39 -103 7z"/>
<path d="M2950 2193 c-28 -10 -60 -47 -60 -69 0 -30 29 -63 65 -73 88 -25 131
81 52 129 -34 21 -34 21 -57 13z"/>
<path d="M2491 1754 c-40 -33 -42 -75 -5 -109 37 -34 86 -34 113 1 28 36 26
66 -5 103 -32 38 -62 40 -103 5z"/>
<path d="M3130 2768 c-36 -18 -51 -35 -76 -83 -48 -92 -49 -96 -10 -147 33
-42 34 -46 18 -63 -9 -10 -11 -15 -4 -11 29 17 33 -7 5 -38 l-28 -31 32 29
c18 16 30 32 28 36 -3 4 3 7 13 6 13 -1 16 5 14 27 -4 28 -4 29 22 12 29 -19
35 -38 10 -28 -12 4 -15 2 -12 -8 3 -8 -11 -31 -31 -52 l-36 -39 36 21 35 21
55 -35 c30 -19 62 -35 71 -35 10 0 48 12 85 28 54 22 72 35 94 70 56 89 43
194 -33 269 -76 74 -199 96 -288 51z"/>
</g>
</svg>
