<?xml version="1.0" standalone="no"?>
<!DOCTYPE svg PUBLIC "-//W3C//DTD SVG 20010904//EN"
 "http://www.w3.org/TR/2001/REC-SVG-20010904/DTD/svg10.dtd">
<svg version="1.0" xmlns="http://www.w3.org/2000/svg"
 width="2000.000000pt" height="2000.000000pt" viewBox="0 0 2000.000000 2000.000000"
 preserveAspectRatio="xMidYMid meet">
<metadata>
Created by potrace 1.16, written by Peter Selinger 2001-2019
</metadata>
<g transform="translate(0.000000,2000.000000) scale(0.100000,-0.100000)"
fill="#000000" stroke="none">
<path d="M13613 17437 c-23 -7 -45 -15 -49 -19 -4 -5 -20 -8 -35 -8 -15 0 -31
-4 -34 -10 -3 -5 -24 -10 -45 -10 -21 0 -42 -4 -45 -10 -3 -5 -23 -10 -43 -10
-20 0 -53 -4 -72 -9 -19 -5 -75 -12 -125 -15 -275 -18 -295 -22 -295 -54 0 -6
-3 -12 -7 -14 -5 -1 -19 -18 -32 -37 -26 -37 -26 -36 4 -241 9 -63 20 -129 26
-146 5 -17 9 -49 9 -72 0 -23 5 -42 10 -42 14 0 12 -32 -3 -51 -15 -20 -49
-31 -71 -23 -19 7 -66 94 -66 122 0 23 -25 36 -115 59 -55 15 -78 16 -105 8
-68 -20 -150 -85 -150 -120 0 -8 -4 -15 -9 -15 -4 0 -13 -26 -20 -57 -11 -61
-4 -108 26 -166 20 -40 83 -107 99 -107 8 0 14 -4 14 -10 0 -5 13 -10 29 -10
17 0 33 -4 36 -10 12 -19 101 -11 147 13 71 37 86 55 97 125 12 77 25 96 60
87 38 -10 61 -34 61 -66 0 -15 9 -80 21 -146 24 -143 44 -284 64 -458 3 -27
10 -59 15 -70 9 -19 11 -44 26 -232 l6 -73 -44 0 -44 0 -23 58 c-39 97 -42
102 -85 112 -23 6 -49 15 -58 20 -78 44 -268 -76 -268 -169 0 -12 -4 -21 -10
-21 -5 0 -10 -22 -10 -50 0 -46 4 -61 36 -135 15 -35 96 -115 116 -115 8 0 19
-5 25 -11 14 -14 151 -17 161 -4 4 6 21 17 37 25 60 30 75 52 83 120 7 62 8
65 40 74 61 17 78 -23 109 -257 3 -20 9 -40 14 -43 5 -3 9 -16 9 -30 0 -13 5
-24 10 -24 6 0 10 -7 10 -15 0 -8 4 -15 9 -15 5 0 14 -13 21 -30 7 -16 16 -30
19 -30 4 0 18 -20 30 -45 12 -25 28 -51 34 -58 7 -7 17 -22 23 -32 6 -11 23
-42 37 -68 15 -26 27 -54 27 -62 0 -8 5 -15 10 -15 6 0 10 -9 10 -20 0 -11 5
-20 10 -20 6 0 10 -11 10 -25 0 -14 5 -25 10 -25 6 0 10 -8 10 -19 0 -10 6
-34 14 -52 7 -19 18 -63 25 -99 7 -36 16 -87 22 -115 6 -31 11 -801 14 -1995
5 -2258 11 -2781 28 -2793 9 -7 9 -10 0 -14 -7 -2 -13 -14 -13 -25 0 -18 -5
-16 -31 15 -34 39 -59 40 -59 1 0 -31 36 -103 55 -111 8 -3 15 -11 15 -19 0
-8 5 -14 10 -14 16 0 11 -70 -6 -87 -18 -18 -75 -30 -279 -60 -22 -3 -44 -9
-50 -13 -5 -4 -41 -15 -78 -25 -37 -10 -70 -22 -73 -27 -3 -4 -15 -8 -27 -8
-12 0 -33 -9 -47 -20 -14 -11 -33 -20 -42 -20 -10 0 -18 -4 -18 -10 0 -5 -7
-10 -15 -10 -13 0 -96 -50 -132 -80 -6 -5 -29 -19 -50 -31 -21 -12 -40 -24
-43 -28 -9 -12 -90 -61 -100 -61 -5 0 -10 -4 -10 -10 0 -5 -13 -10 -30 -10
-16 0 -30 4 -30 9 0 5 -9 12 -20 16 -11 3 -51 34 -88 68 -38 34 -78 69 -90 77
-12 8 -22 20 -22 28 0 21 -26 42 -53 42 -26 0 -86 -52 -137 -119 -14 -18 -31
-39 -37 -46 -7 -8 -13 -17 -13 -21 0 -3 -9 -14 -19 -23 -11 -10 -37 -53 -58
-97 -20 -43 -41 -80 -45 -82 -5 -2 -8 -12 -8 -23 0 -11 -4 -27 -9 -37 -12 -25
-27 -76 -47 -167 -27 -117 -27 -420 -1 -487 15 -39 23 -48 43 -48 17 0 43 -18
79 -55 30 -30 61 -55 68 -55 7 0 19 -9 27 -20 8 -11 19 -20 25 -20 14 -1 75
-57 75 -70 0 -6 4 -18 9 -28 5 -9 19 -62 31 -117 25 -118 50 -206 62 -219 4
-6 8 -18 8 -28 0 -10 4 -26 9 -36 5 -9 18 -37 29 -62 19 -44 194 -407 213
-442 5 -10 9 -25 9 -33 0 -8 3 -15 8 -15 8 0 42 -107 67 -208 8 -35 15 -95 15
-133 0 -65 -1 -69 -22 -69 -14 1 -38 18 -63 47 -57 65 -165 173 -209 208 -21
17 -55 45 -76 62 -20 18 -44 33 -51 33 -19 0 -39 -47 -39 -92 0 -21 -4 -38
-10 -38 -5 0 -10 -7 -10 -15 0 -17 -1 -19 -56 -127 -21 -43 -42 -78 -46 -78
-5 0 -8 -5 -8 -11 0 -6 -29 -53 -65 -104 -36 -52 -65 -98 -65 -103 0 -4 -8
-17 -18 -28 -9 -10 -35 -47 -57 -81 -22 -35 -43 -63 -47 -63 -5 0 -8 -6 -8
-14 0 -8 -3 -16 -8 -18 -11 -4 -102 -145 -102 -158 0 -5 -3 -10 -7 -10 -5 0
-21 -28 -38 -61 -16 -33 -38 -69 -47 -79 -10 -11 -18 -26 -18 -35 0 -8 -4 -15
-10 -15 -5 0 -10 -5 -10 -11 0 -9 -89 -202 -121 -261 -5 -10 -9 -27 -9 -38 0
-11 -3 -20 -8 -20 -4 0 -12 -17 -19 -37 -31 -103 -28 -159 12 -208 61 -76 145
-196 145 -208 0 -21 56 -82 94 -102 l36 -20 0 -127 c0 -71 -4 -128 -9 -128 -9
0 -13 -17 -34 -155 -15 -101 -14 -321 2 -445 6 -52 14 -117 17 -145 3 -27 10
-54 15 -60 5 -5 9 -26 9 -46 0 -21 5 -41 10 -44 6 -3 10 -15 10 -25 0 -47 164
-387 192 -398 4 -2 8 -10 8 -18 0 -8 5 -14 10 -14 6 0 10 -7 10 -15 0 -8 5
-15 10 -15 6 0 10 -5 10 -11 0 -7 8 -19 18 -28 9 -9 35 -38 57 -66 50 -62 68
-80 130 -130 28 -22 57 -48 66 -57 9 -10 21 -18 27 -18 6 0 12 -3 14 -8 4 -11
145 -102 158 -102 5 0 10 -3 10 -8 0 -4 15 -13 33 -21 28 -12 112 -50 159 -73
10 -4 27 -8 37 -8 11 0 23 -5 26 -10 3 -6 21 -10 40 -10 19 0 36 -4 39 -9 3
-4 29 -11 58 -15 29 -3 78 -11 108 -16 197 -32 427 -50 646 -50 236 0 572 30
695 61 20 5 52 9 72 9 20 0 39 5 42 10 3 6 26 10 51 10 24 0 52 4 62 9 9 5 44
15 77 22 67 13 130 30 221 59 34 11 70 20 81 20 10 0 23 4 29 8 5 5 29 14 54
22 104 30 260 90 403 155 43 19 84 35 90 35 7 0 23 9 37 20 14 11 31 20 38 20
6 0 12 5 12 10 0 6 7 10 15 10 18 0 128 68 133 81 2 5 9 9 15 9 7 0 26 11 42
25 17 14 45 38 64 53 114 92 272 260 356 377 11 16 26 34 33 41 6 7 12 15 12
18 0 3 16 30 35 60 19 30 35 60 35 66 0 5 5 10 10 10 6 0 10 9 10 19 0 11 3
21 8 23 9 4 82 154 82 169 0 5 5 19 12 32 24 48 28 57 28 76 0 11 4 22 9 25 5
3 11 20 14 38 3 18 19 89 36 158 29 119 30 135 30 335 0 195 -2 220 -29 350
-39 183 -40 187 -50 210 -4 11 -13 36 -20 55 -16 45 -35 90 -71 165 -16 33
-29 65 -29 72 0 7 -3 13 -8 13 -4 0 -14 15 -21 33 -8 17 -30 55 -48 84 -18 29
-33 57 -33 63 0 5 -4 10 -10 10 -5 0 -10 5 -10 10 0 6 -5 16 -10 23 -6 7 -27
37 -47 67 -20 30 -43 61 -50 68 -7 7 -13 17 -13 22 0 5 -6 15 -13 22 -7 7 -30
36 -52 63 -22 28 -48 57 -57 66 -10 9 -18 21 -18 27 0 6 -3 12 -8 14 -4 2 -25
28 -47 58 -22 30 -43 57 -47 58 -5 2 -8 10 -8 18 0 8 -4 14 -10 14 -5 0 -10 5
-10 11 0 6 -20 39 -45 73 -25 35 -45 69 -45 75 0 6 -3 11 -8 11 -4 0 -15 19
-25 42 -79 182 -96 346 -56 534 12 55 23 110 26 124 4 25 17 59 34 92 5 10 9
27 9 38 0 11 5 20 10 20 6 0 10 6 10 14 0 16 40 117 71 179 10 22 19 45 19 53
0 8 5 14 10 14 6 0 10 6 10 14 0 7 13 42 29 77 15 35 36 91 45 124 10 33 22
68 27 77 5 10 9 31 9 48 0 16 4 30 9 30 5 0 12 21 14 48 3 26 11 74 17 107 6
33 14 146 17 250 4 156 2 205 -13 275 -9 47 -19 102 -21 123 -3 20 -9 37 -14
37 -5 0 -9 16 -9 35 0 19 -4 35 -10 35 -5 0 -10 9 -10 19 0 24 -69 161 -81
161 -5 0 -9 6 -9 13 0 7 -8 22 -17 33 -47 52 -89 103 -103 122 -8 12 -18 22
-22 22 -7 0 -51 33 -135 100 -7 6 -17 10 -23 10 -5 0 -10 4 -10 9 0 5 -8 11
-17 14 -10 3 -49 23 -88 44 -38 21 -88 44 -110 51 -22 7 -49 17 -60 22 -58 23
-177 46 -352 67 -138 16 -143 16 -163 -2 -12 -11 -33 -19 -48 -20 -17 0 -30
-8 -38 -23 -11 -22 -12 -23 -29 -5 -15 14 -36 18 -97 19 -43 1 -78 5 -78 10
-1 9 96 27 114 21 6 -2 19 5 30 15 21 19 66 25 66 8 0 -5 15 -10 34 -10 45 0
50 16 41 138 -6 78 -12 100 -27 114 -20 17 -20 17 0 60 19 40 19 51 9 153 -13
134 -28 156 -73 114 -20 -19 -22 -28 -17 -88 5 -58 3 -68 -11 -68 -13 0 -16
12 -16 68 0 37 -4 71 -10 74 -14 8 -13 65 1 65 10 0 9 59 -6 205 -2 22 -4 48
-4 58 -1 15 -13 17 -107 17 -78 0 -109 -4 -120 -14 -21 -21 -20 -272 1 -296
12 -14 12 -19 0 -43 -9 -17 -11 -36 -7 -50 4 -12 7 -60 5 -107 -3 -122 -4
-120 77 -120 38 0 81 5 96 10 18 7 31 7 37 1 12 -12 42 19 53 52 6 19 7 18 20
-9 7 -16 19 -36 25 -45 10 -14 8 -21 -14 -43 -15 -15 -27 -23 -27 -18 0 18
-35 25 -135 27 -70 2 -103 -1 -112 -11 -16 -15 -19 -249 -3 -259 13 -8 13 -52
1 -60 -6 -3 -8 -51 -7 -107 3 -84 6 -104 22 -115 10 -7 25 -11 33 -9 9 3 53 8
98 11 91 8 137 31 114 59 -17 21 -12 146 6 146 12 0 16 -26 18 -130 0 -48 10
-60 51 -60 24 0 34 -5 34 -15 0 -8 -9 -15 -21 -15 -45 0 -59 -17 -57 -73 1
-29 -1 -66 -5 -82 -6 -24 -3 -36 13 -52 11 -12 20 -27 20 -33 0 -5 5 -10 10
-10 6 0 2 -10 -10 -22 -17 -18 -20 -35 -20 -105 0 -82 1 -84 28 -100 l29 -17
-29 -29 c-28 -30 -37 -57 -18 -57 15 0 12 -46 -3 -59 -20 -16 -27 -4 -27 43
-1 59 -17 76 -76 76 -58 0 -49 19 15 27 49 7 55 20 52 117 -3 81 -14 96 -70
96 -53 0 -53 16 1 30 65 18 71 29 64 118 -11 121 -1 112 -128 112 -101 0 -112
-2 -130 -22 -11 -13 -16 -28 -12 -37 4 -9 9 -50 12 -91 2 -41 8 -79 13 -84 13
-14 11 -42 -3 -54 -9 -7 -12 -34 -8 -96 4 -70 9 -88 25 -100 11 -8 22 -10 23
-5 4 10 42 12 66 3 28 -11 -9 -35 -49 -32 -19 1 -40 -3 -47 -10 -15 -15 -12
-171 4 -189 7 -9 25 -11 58 -7 30 4 50 2 54 -5 5 -7 -1 -11 -13 -11 -12 0 -21
-4 -21 -10 0 -14 -38 -12 -43 3 -3 8 -10 5 -23 -9 -18 -20 -19 -39 -17 -265 3
-456 13 -954 20 -974 4 -11 10 -193 15 -405 23 -1038 28 -1322 33 -1650 3
-203 9 -364 15 -375 5 -11 11 -51 12 -90 4 -84 1 -83 150 -65 126 16 142 27
140 101 -1 30 1 62 4 72 5 15 7 15 20 3 9 -9 14 -36 14 -74 0 -39 4 -62 13
-65 6 -3 53 -3 104 0 75 5 94 3 107 -10 45 -45 -1 -92 -94 -95 -65 -2 -119
-17 -132 -36 -4 -6 -21 -5 -47 4 -32 10 -47 11 -66 2 -14 -7 -49 -12 -78 -13
-72 -1 -138 -20 -151 -44 -6 -11 -12 -22 -13 -24 -2 -2 -12 6 -23 19 -16 18
-26 21 -57 16 -21 -3 -59 -9 -86 -12 -26 -4 -50 -11 -53 -15 -3 -5 -23 -9 -44
-9 -35 0 -39 -3 -50 -35 -14 -42 -50 -50 -50 -11 0 33 -16 36 -107 25 -156
-18 -188 -25 -207 -45 -15 -14 -18 -14 -33 1 -13 14 -26 15 -77 8 -138 -18
-186 -5 -186 50 0 36 15 43 120 55 133 15 146 21 154 74 16 97 2 1902 -15
1956 -8 24 -8 37 2 48 14 17 13 -3 4 938 -4 427 -2 572 6 583 9 10 9 17 1 25
-8 8 -12 54 -12 129 0 134 -5 145 -69 134 -25 -4 -41 -2 -46 5 -12 19 16 40
55 40 21 0 43 6 49 14 6 7 11 46 10 88 -1 70 -3 77 -26 87 -16 8 -30 8 -43 1
-18 -10 -50 -4 -50 9 2 30 54 54 63 29 3 -9 13 -5 31 11 25 23 26 30 24 105
-2 98 -10 110 -73 100 -37 -5 -45 -4 -45 10 0 19 35 39 58 32 9 -3 26 1 36 9
16 12 20 29 22 102 2 108 -8 126 -63 111 -25 -7 -39 -6 -46 1 -20 20 6 46 48
49 21 2 43 9 50 16 17 16 5 196 -14 219 -11 14 -11 22 3 51 18 38 19 48 16
151 -3 91 -11 105 -60 105 -29 0 -40 4 -40 15 0 16 42 31 59 21 5 -4 19 4 30
16 22 23 25 31 14 42 -4 3 -8 43 -10 87 -2 59 1 86 12 102 17 24 15 33 20 -73
8 -143 9 -149 32 -165 l23 -16 -26 -26 c-25 -24 -25 -27 -20 -135 3 -80 9
-114 20 -127 14 -15 14 -19 -1 -33 -12 -13 -16 -39 -17 -120 -1 -57 0 -109 2
-115 6 -18 169 -18 175 0 3 10 9 10 26 0 27 -17 28 -17 43 10 14 25 12 201 -3
229 -7 13 -17 16 -40 11 -27 -5 -31 -3 -27 13 2 13 12 19 31 19 15 0 32 7 37
15 13 20 13 216 -1 241 -7 13 -18 19 -36 17 -14 -2 -28 3 -30 10 -3 7 5 12 20
12 44 0 52 23 52 154 0 131 -5 146 -50 146 -42 0 -24 28 28 44 15 5 17 20 17
136 0 118 -2 132 -20 147 -25 22 -25 29 1 56 18 19 20 30 15 87 -3 36 -6 98
-6 138 0 70 -1 73 -30 91 l-30 18 31 24 31 25 -1 106 c-2 124 -14 211 -30 216
-16 5 -14 22 5 43 14 15 15 40 9 193 -4 97 -12 176 -16 176 -13 0 -11 34 2 47
7 7 10 72 9 188 -1 179 -7 214 -40 216 -13 0 -13 1 0 6 39 16 41 26 37 225 -3
158 -7 199 -20 226 -10 17 -13 32 -7 32 6 0 10 79 10 230 0 147 -4 230 -10
230 -5 0 -10 11 -10 25 0 14 5 25 10 25 15 0 13 453 -2 468 -14 14 -13 69 1
86 8 10 8 35 1 87 -6 41 -10 150 -9 243 0 130 -2 171 -13 177 -10 6 -10 11 0
21 19 19 17 564 -2 583 -22 22 -156 16 -177 -8 -10 -10 -15 -25 -13 -35 3 -9
6 -132 9 -272 5 -320 5 -264 -1 -550 -5 -239 -4 -246 16 -270 18 -21 24 -22
40 -12 26 16 68 15 85 -2 19 -19 1 -26 -65 -26 -84 0 -83 3 -73 -264 8 -233 8
-266 3 -321 -2 -23 -3 -742 -1 -830 1 -60 7 -65 77 -65 78 0 77 -15 -2 -23
-31 -3 -61 -10 -67 -16 -6 -6 -9 -83 -8 -193 2 -143 5 -186 17 -199 18 -20 18
-24 -1 -42 -11 -12 -14 -49 -15 -178 -1 -160 3 -199 21 -199 16 0 9 -25 -15
-55 l-25 -30 -16 23 c-11 15 -26 22 -49 22 -38 0 -47 6 -39 26 3 8 18 14 35
14 54 0 58 12 58 192 0 153 -1 166 -21 187 l-21 22 21 18 c20 17 21 28 21 191
0 166 -1 173 -22 192 -12 11 -33 18 -48 16 -17 -2 -25 2 -25 12 0 10 12 16 34
18 60 6 61 12 60 207 -1 110 -7 190 -14 212 -8 22 -9 47 -5 63 12 42 2 440
-11 456 -9 11 -8 18 2 30 17 20 14 495 -4 506 -8 5 -8 13 1 33 8 18 12 104 12
276 0 242 -1 251 -20 256 -11 3 -20 10 -20 15 0 6 -5 6 -14 -1 -10 -9 -15 -8
-20 4 -4 10 1 15 14 15 58 0 59 5 60 306 l0 272 -29 12 c-17 6 -34 9 -40 5 -6
-3 -26 -3 -44 0 -33 7 -34 8 -40 66 -9 84 -6 89 67 89 33 0 66 4 72 8 12 7 19
124 30 498 l6 201 -66 41 c-46 29 -66 47 -66 62 0 11 -4 20 -10 20 -15 0 -12
80 4 96 20 19 31 18 58 -9 19 -19 21 -26 11 -36 -20 -18 -16 -37 13 -56 20
-13 28 -14 34 -5 9 15 1 50 -11 50 -21 0 -7 47 21 69 30 23 40 66 21 87 -5 5
-12 32 -15 59 -10 94 -18 135 -27 141 -5 3 -9 20 -9 37 0 18 -4 48 -9 67 -5
19 -12 53 -14 75 -7 54 -25 144 -32 156 -6 9 -24 130 -32 217 -3 28 -9 52 -14
52 -5 0 -9 13 -9 29 0 31 -14 41 -59 41 -17 0 -36 10 -49 25 -25 28 -47 32
-56 10 -4 -12 -10 -13 -31 -3 -34 15 -36 68 -3 83 12 6 26 24 30 41 9 35 25
46 56 37 17 -4 19 -9 11 -36 -10 -37 3 -57 38 -57 29 0 37 18 25 62 -5 18 -7
39 -5 46 6 17 34 15 61 -4 20 -14 22 -23 22 -124 0 -60 5 -130 10 -157 6 -26
20 -93 32 -148 11 -55 23 -126 25 -157 3 -32 9 -58 14 -58 5 0 9 -20 9 -44 0
-25 5 -48 10 -51 6 -3 10 -23 10 -43 0 -20 4 -53 10 -72 5 -19 14 -64 20 -100
5 -36 14 -85 20 -110 15 -64 30 -157 36 -215 3 -27 9 -59 13 -70 5 -11 14 -47
20 -80 7 -33 16 -80 21 -105 5 -25 17 -83 25 -130 9 -47 18 -94 22 -105 5 -18
11 -60 29 -185 3 -25 10 -49 15 -54 5 -6 9 -23 9 -39 0 -49 20 -59 107 -54
125 7 113 -33 113 366 0 264 3 350 13 360 10 11 10 13 0 7 -17 -10 -18 92 -1
147 10 32 10 41 0 45 -10 3 -12 111 -12 483 1 469 1 480 -19 506 -29 36 -26
58 9 73 21 9 30 19 30 36 0 27 32 64 55 64 8 0 15 -6 15 -12 0 -8 3 -9 8 -3
11 16 50 35 70 35 10 0 28 -9 40 -21 20 -18 22 -27 17 -97 -5 -59 -10 -82 -27
-99 -36 -38 -93 -28 -110 19 -4 9 -16 21 -26 27 -19 10 -20 7 -18 -67 0 -42
-1 -297 -3 -567 -2 -352 0 -490 8 -493 6 -2 11 -11 11 -20 1 -15 2 -14 11 2 6
10 9 38 6 63 -7 62 1 83 29 83 20 0 24 -5 24 -32 0 -48 21 -98 41 -98 27 0 33
18 19 60 -16 49 -7 90 21 90 38 0 50 -24 66 -132 3 -25 1 -38 -6 -38 -6 0 -11
-7 -11 -15 0 -22 -46 -48 -77 -42 -39 7 -57 -15 -49 -61 5 -29 4 -33 -4 -19
-6 9 -13 27 -15 38 -10 48 -29 87 -42 82 -7 -3 -13 -11 -13 -18 0 -7 -5 -15
-10 -17 -7 -2 -11 -119 -12 -336 -1 -182 -5 -332 -10 -332 -15 0 -8 -23 14
-41 16 -14 37 -19 82 -19 89 0 90 2 88 117 -2 97 -2 98 13 58 8 -22 15 -66 15
-97 0 -53 2 -58 25 -64 44 -11 51 0 69 98 23 128 37 190 47 210 5 10 9 29 9
43 0 14 5 25 10 25 6 0 10 5 10 12 0 6 12 44 28 84 30 81 38 86 90 54 42 -26
71 -25 130 2 46 22 102 70 102 88 0 4 5 10 12 12 14 5 12 248 -3 262 -5 6 -9
16 -9 23 0 18 -61 81 -95 99 -62 32 -199 -1 -208 -49 -6 -41 -17 108 -27 383
-6 151 -13 294 -16 317 -6 40 -5 42 17 38 13 -3 43 -14 67 -27 32 -16 45 -19
54 -10 7 7 25 12 40 12 31 0 43 7 92 56 55 54 75 208 36 283 -58 115 -191 174
-277 122 -29 -18 -32 -18 -39 -3 -5 9 -12 91 -16 182 -10 220 -18 294 -32 302
-6 4 -40 8 -76 8 -72 1 -210 14 -310 30 -36 6 -82 13 -103 17 -20 3 -40 9 -43
14 -3 5 -15 9 -26 9 -24 0 -70 14 -140 41 -52 21 -93 23 -155 6z m481 -210 c7
-7 19 -31 26 -52 7 -22 16 -50 21 -63 5 -13 9 -45 9 -72 0 -121 -79 -180 -104
-77 -3 15 -10 27 -15 27 -5 0 -15 16 -21 35 -13 41 -36 46 -42 10 -3 -15 2
-32 13 -44 11 -11 19 -25 19 -31 0 -16 -32 -12 -54 8 -12 10 -41 24 -66 31
-25 8 -51 15 -58 17 -10 3 -12 13 -6 36 9 40 9 53 -1 100 -6 30 -4 39 9 44 30
11 47 -15 45 -70 -2 -52 17 -99 36 -93 17 6 28 99 16 138 -15 49 -14 51 12 47
18 -2 23 -10 25 -45 3 -35 7 -43 23 -43 14 0 19 7 19 30 0 17 5 30 10 30 6 0
10 5 10 10 0 33 50 51 74 27z m-696 -22 c7 -14 12 -36 12 -48 0 -22 32 -51 44
-40 3 4 6 22 6 42 0 20 4 42 9 50 17 27 31 -1 31 -64 0 -76 6 -95 31 -95 28 0
53 44 40 69 -16 30 -14 98 4 105 20 7 35 -24 29 -59 -11 -63 -8 -72 29 -79 23
-4 38 -15 45 -32 19 -41 15 -54 -18 -54 -16 0 -30 4 -30 8 0 9 -44 32 -60 32
-6 0 -10 -11 -10 -25 0 -32 -26 -43 -48 -21 -14 14 -15 18 -3 25 23 15 3 33
-22 20 -11 -7 -32 -15 -46 -19 -20 -5 -27 -14 -31 -41 -7 -46 -40 -54 -40 -10
0 17 5 31 10 31 6 0 10 18 10 39 0 22 -4 43 -10 46 -12 7 -14 145 -2 145 5 0
14 -11 20 -25z m284 -6319 c3 -12 3 -72 2 -133 -3 -99 -2 -112 17 -132 l20
-21 -20 -27 c-19 -23 -21 -40 -21 -169 0 -79 4 -144 9 -144 5 0 11 -9 14 -20
9 -34 -41 -68 -58 -40 -3 6 -24 10 -46 10 -57 0 -54 28 4 32 l42 3 3 159 c2
119 -1 161 -10 167 -10 6 -10 15 0 42 7 20 12 87 12 165 0 106 3 132 14 132 7
0 16 -11 18 -24z m940 -2558 c16 -18 22 -20 37 -11 18 12 31 8 31 -9 0 -4 -12
-8 -27 -8 -52 0 -55 -7 -55 -141 1 -110 -1 -122 -14 -105 -10 14 -14 48 -14
112 0 62 -4 95 -13 102 -7 6 -37 12 -67 14 -52 3 -53 4 -35 21 13 14 27 17 50
13 24 -5 36 -1 50 14 23 26 33 25 57 -2z m1 -699 c10 -7 15 -133 22 -571 3
-175 1 -279 -5 -283 -6 -4 -10 35 -10 104 0 64 -4 112 -10 116 -7 4 -10 98
-10 263 1 172 -2 267 -10 287 -7 18 -9 48 -4 75 3 25 9 38 12 30 3 -8 9 -18
15 -21z"/>
<path d="M6375 17358 c-51 -12 -137 -52 -165 -75 -12 -10 -35 -30 -52 -45 -26
-24 -35 -27 -76 -21 -26 3 -55 10 -66 15 -12 7 -22 6 -29 -1 -6 -6 -17 -11
-25 -11 -8 0 -42 -12 -76 -26 -73 -31 -104 -44 -131 -54 -11 -4 -40 -17 -65
-28 -25 -12 -71 -33 -103 -46 -58 -25 -131 -91 -165 -148 -9 -16 -20 -28 -24
-28 -4 0 -8 -11 -8 -25 0 -14 -4 -33 -9 -43 -5 -9 -15 -37 -21 -62 -7 -25 -16
-54 -20 -65 -12 -30 -38 -169 -49 -260 -21 -166 -34 -683 -27 -1043 10 -460
10 -1969 0 -2777 l-7 -630 -33 -22 c-18 -12 -61 -34 -96 -49 -35 -16 -64 -32
-66 -36 -2 -4 -12 -8 -23 -8 -10 0 -19 -4 -19 -9 0 -5 -13 -14 -29 -21 -38
-16 -150 -133 -187 -196 -15 -27 -32 -50 -36 -52 -4 -2 -8 -12 -8 -22 0 -10
-4 -22 -10 -25 -6 -3 -10 -15 -10 -26 0 -10 -4 -19 -10 -19 -5 0 -10 -10 -10
-23 0 -13 -4 -27 -9 -32 -4 -6 -14 -32 -20 -60 -18 -78 -43 -159 -53 -170 -4
-5 -8 -21 -8 -36 0 -15 -4 -31 -10 -34 -5 -3 -10 -17 -10 -30 0 -13 -4 -27
-10 -30 -6 -3 -10 -15 -10 -25 0 -10 -3 -20 -7 -22 -10 -4 -64 -167 -63 -189
0 -8 -4 -19 -8 -25 -5 -5 -15 -29 -22 -54 -8 -25 -17 -50 -22 -56 -4 -6 -13
-54 -20 -107 -13 -108 1 -375 24 -434 9 -25 9 -40 -1 -70 -6 -21 -16 -69 -20
-108 -13 -102 2 -129 151 -273 67 -66 143 -137 168 -157 25 -20 53 -42 62 -50
15 -13 15 -18 -10 -67 -15 -29 -30 -54 -34 -56 -5 -2 -8 -12 -8 -23 0 -10 -4
-19 -10 -19 -5 0 -10 -9 -10 -20 0 -11 -3 -20 -8 -20 -4 0 -13 -15 -21 -32 -8
-18 -34 -76 -58 -128 -70 -152 -74 -160 -108 -258 -18 -51 -35 -96 -39 -99 -3
-4 -6 -17 -6 -29 0 -13 -4 -26 -10 -29 -5 -3 -10 -17 -10 -31 0 -13 -4 -32 -9
-42 -13 -24 -94 -349 -99 -397 -2 -22 -8 -44 -13 -49 -5 -6 -9 -28 -9 -51 0
-23 -4 -45 -9 -51 -5 -5 -11 -27 -14 -49 -3 -22 -17 -112 -32 -200 -44 -258
-46 -268 -51 -320 -3 -27 -9 -59 -14 -70 -5 -11 -11 -40 -15 -65 -3 -25 -9
-76 -14 -115 -11 -81 -37 -261 -51 -355 -14 -89 -39 -331 -59 -570 -5 -58 -11
-127 -15 -155 -3 -27 -15 -162 -27 -300 -11 -137 -25 -299 -30 -360 -6 -60
-15 -164 -21 -230 -14 -150 -14 -756 0 -890 6 -55 22 -156 37 -225 15 -69 29
-137 32 -153 3 -15 9 -30 14 -33 5 -3 9 -14 9 -25 0 -10 4 -27 9 -37 5 -9 13
-28 19 -42 51 -129 65 -160 73 -160 5 0 9 -6 9 -13 0 -18 24 -67 33 -67 4 0 7
-4 7 -10 0 -13 157 -170 170 -170 6 0 10 -4 10 -10 0 -5 6 -10 13 -10 16 0 47
-36 47 -54 0 -8 4 -16 9 -18 5 -1 22 -31 39 -64 17 -34 37 -68 44 -75 7 -8 19
-26 26 -40 8 -14 23 -38 35 -52 12 -14 29 -35 37 -45 49 -63 102 -121 149
-166 30 -28 64 -61 77 -73 13 -13 27 -23 33 -23 5 0 11 -4 13 -9 2 -4 35 -29
73 -54 39 -24 97 -71 130 -103 34 -33 70 -66 80 -74 27 -21 171 -90 188 -90 7
0 32 -9 55 -20 22 -11 50 -20 62 -20 11 0 20 -4 20 -9 0 -5 15 -11 33 -14 17
-3 68 -13 112 -21 267 -54 554 -54 1090 -1 134 14 184 21 320 45 33 6 87 15
120 19 161 23 315 54 378 76 23 8 54 15 69 15 15 0 30 4 33 10 3 5 17 10 30
10 13 0 27 5 30 10 3 5 17 10 30 10 38 0 255 67 271 83 4 4 16 7 26 7 10 0 18
5 18 10 0 6 6 10 14 10 15 0 144 65 160 81 6 5 16 9 23 9 8 0 19 5 26 10 7 6
44 30 82 55 39 24 75 48 80 52 6 4 24 15 40 23 17 8 32 18 35 21 3 3 36 28 74
54 131 91 193 152 248 245 14 25 36 55 47 67 12 12 21 25 21 29 0 4 15 28 34
54 19 26 49 76 67 111 19 35 37 66 41 67 5 2 8 11 8 21 0 9 4 21 9 26 5 6 21
42 36 80 15 39 30 75 34 80 11 18 31 80 31 98 0 9 5 17 10 17 6 0 10 11 10 24
0 14 4 27 9 30 5 3 11 18 14 33 2 16 12 55 22 88 32 111 37 130 46 180 6 28
12 70 15 95 3 25 9 54 14 65 47 105 53 1029 10 1425 -6 47 -12 112 -16 145 -3
33 -10 64 -15 69 -5 6 -9 29 -9 53 0 24 -4 51 -9 61 -19 36 -52 160 -60 232
-6 41 -15 95 -21 120 -6 25 -14 59 -17 75 -3 17 -9 35 -13 40 -18 25 -63 332
-76 515 -5 71 -17 131 -34 175 -5 11 -11 34 -13 50 -3 17 -13 62 -22 100 -9
39 -20 129 -26 200 -9 127 -19 208 -40 330 -5 33 -12 78 -15 100 -3 22 -9 49
-14 60 -5 11 -11 34 -13 50 -3 17 -22 98 -42 180 -20 83 -39 167 -42 188 -3
20 -9 40 -14 43 -5 3 -9 21 -9 40 0 19 -4 34 -9 34 -5 0 -11 15 -14 33 -8 46
-53 206 -60 214 -4 3 -7 21 -7 39 0 18 -4 36 -10 39 -5 3 -10 16 -10 27 0 21
-14 71 -31 113 -4 11 -20 61 -34 110 -15 50 -35 109 -46 132 -10 24 -19 50
-19 58 0 8 -4 15 -10 15 -5 0 -10 6 -10 14 0 29 -71 231 -101 288 -5 10 -9 24
-9 32 0 8 -3 16 -7 18 -19 8 -103 235 -103 277 0 11 -4 23 -10 26 -5 3 -10 19
-10 35 0 15 -4 30 -10 32 -9 3 -28 235 -50 612 -6 104 -10 363 -9 575 3 511
-1 2226 -7 2561 -5 312 -21 722 -34 870 -6 58 -14 157 -19 220 -9 108 -25 483
-35 860 -3 91 -10 190 -15 220 -7 35 -8 93 -2 160 4 58 9 158 10 224 1 65 6
141 11 168 14 71 12 232 -2 265 -30 70 -94 165 -123 183 -37 23 -171 51 -270
57 -38 2 -79 8 -90 13 -11 4 -45 11 -75 15 -61 7 -128 16 -300 39 -63 8 -162
20 -220 26 -58 7 -145 16 -195 22 -123 14 -511 18 -560 6z m-1118 -5985 c-4
-131 -11 -301 -17 -378 -6 -77 -15 -207 -19 -290 -9 -157 -20 -237 -52 -370
-11 -44 -19 -94 -19 -112 0 -17 -4 -35 -10 -38 -5 -3 -10 -18 -10 -32 0 -24
-8 -60 -31 -143 -8 -30 -23 -64 -71 -162 -4 -10 -8 -25 -8 -33 0 -8 -4 -15
-10 -15 -5 0 -10 -7 -10 -15 0 -8 -9 -26 -21 -39 -17 -20 -24 -22 -45 -12 -13
6 -24 14 -24 19 0 4 -21 7 -47 7 -36 0 -55 6 -75 24 -16 13 -28 28 -28 35 0 6
-4 11 -10 11 -5 0 -10 9 -10 20 0 11 -4 20 -10 20 -5 0 -10 9 -10 20 0 10 -30
80 -66 155 -64 131 -66 137 -60 193 12 110 18 147 27 157 5 5 9 37 9 72 0 62
6 91 55 258 15 50 29 100 32 113 3 12 9 25 14 28 5 3 9 16 9 30 0 13 5 24 10
24 6 0 10 9 10 20 0 11 4 28 9 38 5 9 21 49 36 87 15 39 35 87 46 108 10 22
19 44 19 51 0 6 9 18 21 26 11 8 37 38 57 65 20 28 46 59 57 71 11 11 39 42
63 67 23 26 47 47 52 47 6 0 10 4 10 9 0 18 94 101 113 101 19 0 19 -8 14
-237z m3040 -5650 c31 -13 73 -60 73 -82 0 -6 4 -11 8 -11 9 0 28 -65 38 -128
8 -58 8 -542 -1 -612 -3 -30 -8 -71 -10 -90 -8 -96 -18 -161 -26 -166 -5 -3
-9 -16 -9 -30 0 -13 -4 -24 -10 -24 -5 0 -10 -7 -10 -15 0 -30 -88 -121 -138
-142 -42 -17 -79 -10 -144 28 -42 25 -59 29 -123 29 -43 0 -75 4 -75 10 0 6
-28 10 -64 10 -36 0 -68 5 -71 10 -3 6 -34 10 -69 10 -74 0 -122 14 -155 47
-30 29 -33 29 -69 -2 -27 -22 -39 -25 -115 -25 -47 0 -89 -4 -92 -10 -9 -14
-121 -12 -145 2 -16 10 -24 10 -40 0 -11 -6 -27 -12 -35 -12 -8 0 -15 -4 -15
-9 0 -5 -19 -11 -42 -15 -24 -3 -68 -9 -98 -15 -116 -21 -152 -24 -159 -14
-17 27 -48 23 -87 -12 -46 -42 -88 -65 -120 -65 -13 0 -26 -4 -29 -10 -3 -5
-15 -10 -26 -10 -10 0 -27 -4 -37 -9 -30 -15 -116 -41 -137 -41 -11 0 -33 7
-49 15 -24 13 -35 13 -65 3 -48 -16 -61 -27 -61 -50 0 -10 -10 -30 -22 -43
-26 -27 -143 -95 -164 -95 -8 0 -14 -4 -14 -10 0 -5 -9 -10 -20 -10 -11 0 -20
-4 -20 -9 0 -8 -30 -21 -55 -25 -17 -2 -52 28 -58 49 -4 11 -2 65 4 120 13
122 24 323 38 680 6 149 13 320 16 380 8 171 32 198 182 211 73 6 84 5 111
-15 38 -27 50 -26 80 2 21 19 36 22 131 25 107 4 108 4 130 -23 11 -15 26 -45
31 -66 14 -50 40 -53 40 -5 0 38 45 93 82 100 80 16 150 15 186 -3 37 -18 82
-14 82 8 0 13 70 23 175 25 50 1 99 7 111 13 12 7 54 13 94 15 71 2 73 1 99
-31 19 -22 32 -30 44 -25 9 3 17 10 17 16 0 12 47 58 60 58 5 0 10 5 10 10 0
6 27 10 61 10 47 0 65 -4 78 -18 27 -31 60 -34 83 -7 29 33 89 55 151 55 45 0
57 -4 80 -28 23 -23 27 -37 26 -75 -3 -79 15 -76 57 8 23 49 46 74 105 118 32
24 59 37 78 37 11 0 22 4 26 10 6 9 16 6 92 -27z m-596 -1455 c46 -13 52 -39
13 -56 -23 -11 -26 -10 -35 18 -17 48 -34 38 -29 -17 1 -13 -3 -23 -9 -23 -6
0 -11 -9 -11 -19 0 -22 30 -35 60 -26 24 8 26 -7 4 -25 -27 -23 -72 -16 -99
16 -34 39 -32 71 7 111 35 36 43 38 99 21z m-851 -52 c0 -35 4 -45 20 -49 12
-3 20 0 20 7 0 7 9 21 21 32 16 15 22 16 29 5 11 -19 3 -38 -21 -44 -26 -7
-24 -41 5 -72 14 -15 22 -33 19 -41 -8 -23 -47 -13 -51 13 -2 12 -10 24 -17
27 -15 5 -45 -29 -45 -51 0 -14 -10 -16 -32 -8 -12 5 -12 16 2 73 16 63 17 92
4 135 -4 13 1 17 20 17 24 0 26 -3 26 -44z m572 27 c10 -9 18 -25 18 -35 0
-29 -28 -33 -55 -8 l-24 23 -7 -29 c-4 -16 -11 -35 -16 -41 -17 -22 -1 -43 33
-43 43 0 32 -24 -13 -28 -29 -2 -40 2 -57 24 -21 27 -30 94 -12 94 5 0 12 8
15 18 12 37 87 53 118 25z m-792 -10 c2 -2 0 -7 -5 -11 -31 -22 -46 -150 -21
-171 27 -23 78 -9 103 28 12 18 20 37 17 42 -3 5 0 9 5 9 19 0 12 -39 -11 -66
-59 -69 -73 -75 -125 -49 -53 26 -58 39 -45 104 7 31 12 71 12 88 0 17 6 34
13 36 12 5 47 -1 57 -10z"/>
<path d="M8163 5694 c-70 -24 -138 -102 -172 -199 -22 -62 -31 -194 -31 -441
l0 -255 -32 3 -33 3 0 165 c0 91 3 266 7 389 9 280 7 285 -97 274 -43 -5 -67
-13 -85 -30 -24 -23 -25 -27 -28 -176 -3 -173 -7 -206 -25 -188 -11 11 -21 77
-33 216 -3 39 -10 74 -15 80 -5 5 -9 17 -9 26 0 24 -43 49 -83 49 -42 0 -97
-36 -117 -75 -8 -17 -18 -57 -22 -90 -4 -33 -12 -87 -17 -120 -6 -33 -14 -86
-19 -118 -4 -31 -13 -62 -19 -68 -20 -20 -26 55 -19 218 8 200 -4 227 -99 216
-74 -9 -92 -18 -111 -58 l-17 -36 -18 27 c-10 15 -24 31 -32 35 -18 11 -147
-1 -147 -12 0 -5 -9 -9 -19 -9 -21 0 -24 -14 -37 -145 -6 -65 -7 -68 -20 -45
-7 14 -13 38 -14 54 0 37 -21 108 -36 124 -15 15 -174 17 -174 2 0 -5 -6 -10
-13 -10 -25 0 -57 -107 -57 -190 0 -21 -4 -42 -10 -45 -5 -3 -10 -35 -10 -70
0 -35 -4 -67 -10 -70 -5 -3 -10 -18 -10 -33 0 -23 -2 -24 -14 -12 -11 11 -18
63 -26 185 -7 94 -18 185 -25 203 l-14 32 -96 0 c-126 0 -132 -6 -152 -140
-11 -77 -34 -57 -52 45 -8 46 -18 75 -29 81 -9 6 -51 10 -92 8 -93 -3 -83 -1
-108 -22 -26 -22 -29 -49 -42 -367 -11 -270 -37 -708 -49 -845 -5 -47 -6 -90
-4 -97 10 -25 43 -23 95 5 29 16 73 40 98 53 63 33 69 41 80 99 5 28 12 56 15
61 8 12 45 12 45 -1 0 -12 43 -13 56 -1 20 19 52 22 68 5 18 -17 104 -22 115
-7 7 10 130 53 150 53 25 0 97 52 114 82 9 16 17 43 17 60 0 16 7 36 15 44 13
14 16 12 25 -11 5 -14 10 -35 10 -45 0 -31 39 -60 81 -60 21 0 40 4 43 9 3 4
34 11 69 13 76 6 157 40 164 68 7 25 18 25 51 0 24 -19 36 -20 161 -16 75 3
145 8 156 11 24 7 55 58 55 90 0 12 7 26 16 29 23 9 44 -18 44 -58 0 -46 40
-76 102 -76 23 0 60 -5 80 -10 66 -19 171 -33 257 -34 55 -2 86 -6 89 -14 2
-7 10 -12 18 -12 8 0 14 -3 14 -7 0 -14 53 -33 91 -33 31 0 45 8 87 49 81 79
99 125 114 286 14 151 21 685 8 685 -5 0 -10 17 -10 38 0 70 -58 160 -117 183
-31 12 -39 11 -90 -7z m98 -91 c33 -30 43 -48 66 -128 11 -39 14 -121 13 -384
0 -184 -4 -339 -8 -345 -5 -6 -14 -31 -22 -56 -7 -25 -17 -49 -22 -55 -4 -5
-8 -17 -8 -27 0 -10 -4 -18 -10 -18 -5 0 -10 -5 -10 -10 0 -6 -12 -23 -26 -37
-45 -45 -120 -30 -160 32 -8 13 -24 59 -35 101 -17 67 -19 114 -19 373 0 393
13 462 103 544 52 47 93 50 138 10z m-421 -64 c8 -15 8 -124 0 -405 -12 -427
-14 -414 52 -414 21 0 43 -8 56 -20 12 -12 22 -22 22 -23 12 -63 10 -76 -10
-90 -15 -11 -30 -13 -48 -7 -15 4 -58 13 -97 20 -38 7 -75 18 -81 25 -9 9 -10
37 -4 111 5 54 9 252 10 440 0 328 1 341 20 362 26 28 66 29 80 1z m-300 -19
c14 0 27 -58 40 -165 6 -55 16 -116 21 -136 5 -20 9 -57 9 -82 0 -25 4 -48 9
-51 4 -3 11 -38 14 -78 4 -40 11 -111 17 -158 5 -47 13 -115 16 -152 l7 -68
-46 0 c-40 0 -47 3 -51 23 -2 12 -8 42 -13 66 -11 58 -29 69 -90 53 -52 -14
-63 -25 -63 -63 0 -14 -6 -37 -12 -52 -11 -22 -20 -27 -50 -27 -35 0 -38 2
-38 28 0 24 13 97 42 232 5 25 12 65 14 90 3 25 9 54 14 65 5 11 11 38 14 60
37 270 62 388 87 408 12 10 29 15 36 12 8 -3 18 -5 23 -5z m-291 -43 c9 -17
11 -67 7 -183 -2 -87 -4 -168 -4 -179 1 -23 1 -26 -8 -286 l-6 -195 -28 -12
c-22 -10 -33 -10 -55 0 -26 12 -27 15 -21 63 16 122 19 266 6 289 -13 25 -14
25 -102 10 l-38 -6 0 -174 c0 -96 -4 -174 -9 -174 -5 0 -11 -9 -14 -21 -5 -17
-12 -20 -60 -18 -37 2 -61 -3 -78 -14 -13 -10 -40 -17 -61 -17 -34 0 -38 3
-38 25 0 14 -6 43 -12 65 -12 38 -15 40 -53 40 -83 0 -97 -15 -110 -114 -10
-74 -66 -117 -114 -87 -10 6 -21 2 -37 -15 -24 -23 -90 -48 -106 -38 -4 3 -8
83 -8 178 0 204 -6 267 -26 259 -9 -3 -14 -21 -14 -48 0 -24 -4 -47 -10 -50
-5 -3 -10 -21 -10 -40 0 -18 -5 -57 -11 -87 -6 -29 -15 -78 -21 -108 -17 -91
-37 -118 -78 -105 -18 6 -36 55 -44 120 -5 46 -31 189 -47 264 -6 31 -16 51
-24 51 -12 0 -15 -45 -18 -242 -5 -244 -11 -323 -29 -345 -5 -6 -32 -23 -59
-37 -61 -32 -64 -27 -55 82 4 42 10 158 14 257 4 99 10 185 14 190 3 6 8 103
9 217 3 207 17 382 32 406 5 6 28 12 51 12 57 0 54 6 101 -255 9 -49 20 -109
26 -132 5 -23 9 -59 9 -81 0 -21 3 -42 8 -46 7 -8 9 -13 11 -46 1 -25 18 -26
25 -2 5 17 29 191 47 347 21 174 25 200 31 211 11 17 64 25 92 14 28 -10 34
-35 46 -205 5 -66 14 -163 19 -215 6 -52 15 -171 20 -265 10 -187 16 -221 35
-202 15 15 36 107 36 157 0 21 5 42 10 45 6 3 10 30 10 60 0 30 4 56 9 59 5 3
11 29 14 58 3 29 12 94 20 143 9 50 23 137 32 195 10 58 23 123 29 145 11 40
11 40 60 40 55 0 59 -5 77 -110 4 -27 13 -72 18 -100 17 -91 60 -352 82 -500
11 -77 22 -97 37 -69 5 11 12 182 15 384 3 209 10 376 15 391 8 19 20 28 41
31 54 8 55 4 52 -176 -3 -195 -2 -197 73 -182 28 5 57 15 64 22 8 9 12 58 12
171 0 136 2 162 18 181 23 29 65 29 81 -1z"/>
<path d="M8161 5483 c-8 -9 -23 -41 -33 -71 -15 -47 -18 -90 -18 -289 0 -149
4 -233 10 -233 6 0 10 -26 10 -57 0 -46 5 -64 23 -87 14 -18 28 -26 36 -22 22
14 49 90 58 161 17 147 5 537 -18 551 -5 3 -9 12 -9 20 0 17 -23 44 -37 44 -4
-1 -14 -8 -22 -17z m42 -125 c27 -148 12 -488 -19 -456 -13 14 -30 442 -18
472 10 27 31 18 37 -16z"/>
<path d="M7491 5162 c-6 -11 -11 -35 -11 -53 0 -18 -7 -67 -16 -111 -9 -43
-13 -85 -10 -93 7 -18 57 -20 74 -3 15 15 15 97 1 191 -12 81 -22 99 -38 69z"/>
<path d="M6643 5093 c-7 -15 -13 -51 -13 -79 0 -29 -4 -56 -10 -59 -14 -9 -13
-122 1 -127 25 -8 79 5 84 21 6 20 -30 250 -42 262 -4 4 -14 -4 -20 -18z"/>
<path d="M13686 15399 c-2 -8 -7 -108 -11 -224 -3 -115 -8 -269 -11 -341 -7
-163 -5 -166 99 -162 79 3 100 18 80 60 -12 27 -53 251 -79 438 -3 25 -10 49
-15 55 -5 5 -9 33 -9 61 0 29 -4 56 -10 59 -5 3 -10 14 -10 24 0 25 -28 49
-34 30z"/>
<path d="M14227 14523 l-78 -4 7 -102 c10 -177 24 -471 23 -497 -1 -14 -1
-133 1 -265 2 -283 4 -291 76 -280 25 3 59 3 76 0 47 -11 14 -25 -58 -25 -42
0 -65 -5 -74 -15 -9 -11 -12 -67 -10 -207 2 -233 5 -269 21 -279 10 -6 10 -13
1 -34 -18 -40 -16 -434 3 -459 10 -13 11 -25 4 -45 -6 -14 -8 -44 -5 -66 3
-22 7 -202 8 -400 2 -338 7 -405 31 -405 4 0 7 -7 7 -15 0 -8 -4 -15 -10 -15
-6 0 -10 -67 -10 -180 0 -113 4 -180 10 -180 6 0 10 -16 10 -35 0 -19 -4 -35
-10 -35 -13 0 -13 -84 0 -170 7 -47 6 -74 -3 -98 -9 -27 -9 -35 2 -42 17 -10
19 -72 3 -78 -8 -2 -9 -10 -4 -20 5 -9 10 -73 11 -142 1 -71 7 -130 13 -138
12 -14 137 -8 196 10 l32 10 -3 144 c-3 118 -7 149 -20 165 -21 24 -21 36 -3
55 8 7 13 22 11 31 -2 10 -4 77 -4 150 l-1 132 -36 17 c-30 15 -43 15 -86 5
-38 -8 -54 -8 -64 0 -25 21 -3 30 65 27 52 -2 74 1 95 15 30 20 31 25 13 222
-6 62 1 95 19 95 11 0 14 -26 14 -135 0 -116 3 -139 20 -170 l20 -36 -21 -28
c-17 -23 -19 -33 -10 -49 6 -12 11 -74 11 -145 0 -98 3 -127 15 -137 13 -11
13 -16 -1 -42 -9 -17 -13 -40 -10 -52 2 -11 6 -68 7 -126 1 -82 6 -112 20
-136 17 -28 18 -33 3 -44 -21 -18 -19 -253 2 -287 17 -26 39 -29 60 -9 17 17
21 266 4 266 -5 0 -10 9 -10 19 0 11 -6 22 -12 25 -10 5 -10 7 0 12 15 7 18
314 2 314 -5 0 -10 9 -10 19 0 11 -6 22 -12 24 -10 4 -10 6 0 6 6 1 12 7 12
15 0 8 4 16 10 18 12 4 -9 300 -23 309 -6 4 -7 19 -2 35 21 82 10 358 -15 389
-9 11 -9 22 1 48 9 26 9 72 1 203 -6 93 -13 272 -16 397 -3 125 -8 232 -11
238 -4 5 -9 118 -11 251 -2 139 -9 247 -14 252 -13 13 -13 56 1 56 7 0 9 24 5
73 -3 39 -9 140 -12 222 -3 83 -10 154 -15 160 -13 13 -11 62 3 85 10 15 10
26 0 53 -8 22 -12 99 -12 223 0 184 -1 190 -24 216 l-23 28 -11 -25 c-8 -17
-10 -73 -6 -173 3 -81 7 -188 8 -237 2 -50 8 -100 15 -113 9 -16 9 -27 1 -42
-18 -34 -3 -446 17 -477 12 -18 13 -29 6 -46 -12 -27 -5 -441 8 -445 12 -5 12
-55 0 -68 -5 -5 -5 -52 0 -109 4 -55 8 -142 9 -193 0 -55 5 -100 12 -112 10
-16 10 -24 0 -40 -16 -26 -16 -222 1 -268 10 -28 10 -36 0 -39 -15 -5 -18 -43
-3 -43 6 0 10 -9 10 -20 0 -11 5 -20 10 -20 15 0 12 -30 -6 -47 -14 -14 -21
-14 -76 2 -47 15 -64 16 -79 7 -25 -16 -37 -15 -54 2 -12 12 -11 15 9 20 13 3
38 3 54 0 37 -8 88 13 100 41 5 11 5 53 1 95 -4 41 -8 114 -8 163 -1 74 -4 90
-21 104 -24 21 -25 30 -5 50 14 13 15 41 9 207 -6 172 -9 193 -27 213 -19 21
-19 23 -2 39 16 17 17 36 11 229 -6 191 -9 212 -27 227 -22 19 -25 38 -5 38
24 0 27 31 16 151 -5 63 -10 162 -10 221 0 60 -4 110 -10 113 -14 8 -13 55 1
55 8 0 9 24 5 78 -3 42 -9 155 -12 250 -4 94 -10 172 -15 172 -5 0 -9 6 -9 14
0 8 -5 16 -12 18 -8 3 -4 13 11 29 16 17 21 32 17 50 -3 14 -8 136 -12 270 -7
237 -11 262 -39 257 -5 -1 -45 -4 -88 -5z"/>
<path d="M13926 14505 c-3 -9 -6 -132 -6 -273 0 -207 3 -262 15 -285 11 -22
12 -34 4 -49 -7 -13 -10 -105 -10 -262 2 -194 5 -245 17 -264 12 -18 12 -26 2
-45 -16 -29 -12 -437 5 -485 9 -25 8 -37 -1 -53 -7 -11 -10 -34 -7 -52 3 -18
7 -216 10 -441 3 -234 9 -414 14 -419 6 -6 4 -24 -5 -49 -8 -22 -12 -43 -10
-47 3 -4 6 -77 7 -163 2 -130 5 -160 20 -179 16 -21 16 -24 0 -48 -15 -23 -17
-46 -12 -194 5 -125 9 -170 19 -176 12 -7 11 -14 -3 -41 -14 -28 -16 -53 -10
-184 4 -97 11 -153 18 -158 18 -12 140 -9 176 3 17 6 32 16 32 22 1 7 1 80 -1
162 -1 99 -6 152 -14 157 -38 25 -38 25 -12 51 l25 25 -5 154 c-5 168 -13 198
-53 198 l-26 1 26 14 c15 8 30 22 34 32 7 16 7 208 1 331 -2 24 -10 50 -19 59
-14 14 -14 18 2 42 16 24 17 44 11 216 -4 105 -10 302 -13 440 -3 170 -8 250
-16 253 -14 5 -14 52 0 52 11 0 11 25 -6 399 -3 61 -9 98 -17 104 -11 7 -11
10 0 14 10 4 12 62 11 259 0 144 -4 256 -10 259 -13 8 -11 72 2 81 6 4 8 15 3
28 -4 11 -10 134 -13 271 l-6 250 -86 3 c-72 2 -88 0 -93 -13z"/>
<path d="M14390 14458 c0 -35 5 -160 11 -278 12 -218 21 -262 50 -233 13 13
14 222 3 446 l-7 127 -28 0 c-29 0 -29 0 -29 -62z"/>
<path d="M14060 10612 c-86 -6 -80 7 -80 -172 0 -100 4 -160 10 -160 6 0 10
-13 10 -30 0 -16 -4 -30 -10 -30 -6 0 -10 -50 -10 -131 0 -150 6 -164 70 -161
21 2 41 -2 45 -8 4 -6 -8 -10 -30 -10 -24 0 -43 -8 -60 -24 -22 -22 -23 -30
-22 -135 1 -61 5 -111 10 -111 4 0 7 -11 7 -24 0 -13 6 -27 13 -29 10 -4 10
-6 0 -6 -7 -1 -13 -10 -13 -21 0 -11 -5 -20 -12 -20 -9 0 -9 -3 0 -12 8 -8 12
-48 12 -113 0 -99 0 -101 28 -117 25 -16 25 -17 6 -18 -12 0 -25 -7 -28 -16
-11 -29 -6 -204 6 -224 9 -15 9 -30 -1 -69 -13 -53 -12 -182 2 -192 9 -7 9 -9
3 -139 -6 -113 7 -146 52 -135 15 4 54 11 87 16 115 18 105 8 105 108 0 112
-2 114 -116 110 -58 -3 -88 0 -91 7 -2 8 23 13 74 16 43 3 90 10 105 16 27 11
27 12 27 111 0 80 -3 100 -15 105 -9 3 -54 6 -102 6 -107 0 -99 15 16 32 l82
12 0 118 0 118 -45 0 c-33 0 -45 4 -45 15 0 10 10 15 33 15 52 0 57 12 57 141
0 127 -1 129 -60 129 -15 0 -33 7 -40 15 -11 13 -8 15 19 15 17 0 31 5 31 10
0 6 11 10 25 10 l25 0 0 126 c0 146 -4 153 -82 154 -64 0 -61 16 5 27 l52 8 3
148 3 147 -34 0 c-19 0 -36 3 -40 6 -12 12 6 34 29 34 13 0 28 9 34 19 17 33
8 288 -11 305 -6 6 -101 11 -139 8z"/>
<path d="M13779 8972 c-67 -4 -77 -20 -79 -122 -3 -110 -3 -110 15 -110 8 0
15 -5 15 -12 0 -9 3 -9 12 0 7 7 38 12 70 12 32 0 58 4 58 10 0 6 18 10 39 10
29 0 41 5 45 18 9 27 5 165 -5 183 -9 17 -47 20 -170 11z"/>
<path d="M13815 8720 c6 -10 1 -11 -59 -15 -33 -2 -70 -40 -61 -62 3 -8 5 -43
5 -78 0 -45 5 -68 16 -80 15 -14 15 -18 0 -40 -11 -17 -16 -48 -16 -101 0 -90
10 -103 80 -104 34 -1 40 -3 25 -10 -11 -5 -32 -9 -46 -9 -14 -1 -33 -9 -42
-19 -15 -16 -16 -101 -14 -927 2 -813 4 -913 18 -941 13 -26 14 -35 3 -55 -19
-37 -8 -1898 12 -1919 15 -16 159 -16 204 0 14 4 37 11 52 14 25 6 27 9 30 78
4 105 -9 1284 -17 1533 -4 116 -12 216 -18 223 -6 8 -6 12 2 12 11 0 10 626
-3 1080 -6 201 -17 809 -16 858 0 55 -12 67 -72 67 -42 0 -53 3 -56 18 -3 15
5 17 56 17 45 0 61 4 66 16 7 19 6 109 -3 149 -6 28 -9 30 -53 30 -25 0 -49 3
-53 7 -15 15 25 38 64 38 l41 0 0 100 c0 84 -3 101 -17 108 -10 5 -27 6 -37 2
-23 -8 -64 -2 -72 11 -3 5 -10 9 -15 9 -6 0 -7 -4 -4 -10z"/>
<path d="M14031 8471 c-19 -12 -16 -180 4 -200 11 -11 17 -12 28 -2 11 8 22 9
41 1 40 -15 22 -30 -36 -30 l-51 0 8 -642 c8 -758 11 -925 24 -1613 6 -286 11
-614 11 -730 1 -292 17 -826 26 -848 6 -16 15 -18 73 -14 169 13 216 31 204
78 -3 13 -5 40 -4 59 6 141 -12 1231 -21 1246 -4 5 -9 167 -12 359 -3 193 -8
409 -11 480 -4 113 -14 544 -20 880 -1 61 -5 135 -9 165 -4 30 -3 73 2 95 5
23 5 50 1 62 -4 12 -9 110 -11 218 l-2 197 -26 10 c-14 5 -37 7 -52 4 -36 -7
-58 18 -29 33 11 6 30 11 43 11 13 0 34 7 46 16 17 12 20 19 12 34 -5 10 -10
46 -10 79 l0 61 -107 0 c-60 0 -114 -4 -122 -9z"/>
</g>
</svg>
